<svg width="602" height="601" viewBox="0 0 602 601" fill="none" xmlns="http://www.w3.org/2000/svg">
<g clip-path="url(#clip0_1_618)">
<path d="M527.388 515.022C515.138 527.918 503.548 536.234 494.391 542.805C386.75 620.038 259.381 597.525 232.312 592.027C192.339 583.908 115.073 568.215 59.21 502.522C-25.3052 403.134 -12.145 246.55 53.4108 143.187C65.402 124.281 128.743 19.3434 257.483 2.51471C335.395 -7.66988 426.215 12.8712 491.985 67.9731C630.042 183.637 620.213 417.298 527.388 515.022Z" fill="url(#paint0_linear_1_618)"/>
<path d="M10.6013 203.391C10.0136 203.12 9.60344 202.531 9.60108 201.855C9.59228 199.622 9.63091 197.351 9.71548 195.107C9.75025 194.185 10.5373 193.478 11.4738 193.529C13.7452 193.638 12.9712 195.858 12.9944 201.9C12.9987 202.823 12.2414 203.562 11.3041 203.549C11.0538 203.546 10.816 203.49 10.6013 203.391Z" fill="white" fill-opacity="0.55"/>
<path d="M11.8719 174.212C12.5884 169.982 13.4854 165.729 14.5378 161.573C14.764 160.681 15.6842 160.15 16.5939 160.389C19.0693 161.053 17.3324 162.352 15.2197 174.818C15.0658 175.726 14.192 176.326 13.2673 176.159C12.33 175.988 11.7195 175.108 11.8719 174.212ZM20.9704 141.624C22.5521 137.617 24.3231 133.598 26.1755 129.82C27.1682 127.787 30.1915 129.368 29.2365 131.314C27.3932 135.082 25.6848 138.96 24.1368 142.883C23.7992 143.739 22.8166 144.15 21.9425 143.802C21.0584 143.45 20.6364 142.471 20.9704 141.624ZM36.5818 111.633C38.9465 108.061 41.4871 104.54 44.1345 101.164C45.5007 99.4245 48.1916 101.505 46.8338 103.236C44.2398 106.544 41.7502 109.995 39.434 113.493C38.215 115.334 35.3661 113.468 36.5818 111.633ZM58.1637 87.8808C57.4968 87.2207 57.4902 86.1621 58.1491 85.5169C61.216 82.5106 64.4472 79.5872 67.752 76.8275C69.4514 75.4094 71.6706 77.9761 69.9727 79.394C66.7348 82.0976 63.5684 84.9623 60.5628 87.9074C59.9047 88.5541 58.8287 88.5417 58.1637 87.8808ZM84.2858 66.7013C83.767 65.9234 83.9793 64.8897 84.7601 64.392C88.3985 62.0734 92.1754 59.8697 95.9866 57.8419C97.9484 56.8037 99.6001 59.7464 97.6389 60.7911C93.9043 62.7781 90.2028 64.9369 86.638 67.2092C85.8587 67.7061 84.8048 67.479 84.2858 66.7013ZM115.19 52.1807C114.804 52.0028 114.483 51.6858 114.313 51.2655C113.963 50.4033 114.384 49.4363 115.254 49.1066C119.308 47.5696 123.471 46.1731 127.629 44.955C128.524 44.6933 129.476 45.198 129.758 46.0844C130.038 46.9703 129.542 47.8999 128.648 48.162C124.574 49.3547 120.493 50.7242 116.52 52.2305C116.074 52.3992 115.597 52.3681 115.19 52.1807ZM147.96 43.4422C147.466 43.2149 147.088 42.762 146.984 42.197C146.818 41.2852 147.432 40.4267 148.354 40.2786C152.647 39.59 157.025 39.0607 161.367 38.7063C162.299 38.628 163.132 39.3129 163.225 40.2346C163.318 41.1541 162.638 41.9622 161.706 42.0384C157.452 42.3861 153.162 42.9051 148.956 43.5798C148.606 43.636 148.261 43.5813 147.96 43.4422ZM180.965 39.9042C180.991 38.9815 181.771 38.268 182.708 38.3094C187.066 38.5028 191.479 38.8705 195.824 39.4009C198.061 39.6804 197.69 42.9904 195.463 42.7188C191.207 42.1988 186.884 41.8395 182.614 41.6499C181.68 41.6091 180.939 40.8285 180.965 39.9042ZM286.969 83.7751C277.368 75.3053 275.076 75.2692 276.618 73.2664C277.179 72.5357 278.241 72.4054 278.992 72.9685C282.488 75.6017 285.925 78.4056 289.208 81.3011C290.893 82.7864 288.66 85.2638 286.969 83.7751ZM214.825 44.5266C215.042 43.6321 215.956 43.093 216.868 43.3224C221.109 44.3894 225.368 45.6339 229.526 47.0229C231.664 47.7374 230.622 50.901 228.488 50.1878C224.412 48.8271 220.238 47.6067 216.083 46.5612C215.161 46.3278 214.61 45.4115 214.825 44.5266ZM259.434 64.0492C248.339 57.6833 246.063 58.0961 247.154 55.8101C247.847 54.3604 249.614 55.046 249.41 55.04C253.377 56.9297 257.311 58.9916 261.103 61.1659C261.919 61.6342 262.206 62.6592 261.745 63.4546C261.305 64.2147 260.303 64.5332 259.434 64.0492Z" fill="white" fill-opacity="0.55"/>
<path d="M306.182 103.793C302.584 99.3603 300.269 97.7809 302 96.3091C302.702 95.7116 303.775 95.7923 304.395 96.5006C308.3 100.934 310.288 102.733 308.569 104.078C308.053 104.482 306.772 104.517 306.182 103.793Z" fill="white" fill-opacity="0.55"/>
<path d="M342.915 228.409C342.255 228.105 341.835 227.407 341.929 226.664C342.202 224.484 342.431 222.274 342.612 220.094C342.689 219.175 343.508 218.504 344.442 218.595C345.374 218.689 346.071 219.505 345.995 220.425C345.81 222.649 345.575 224.904 345.297 227.129C345.183 228.043 344.336 228.681 343.406 228.552C343.232 228.528 343.067 228.479 342.915 228.409Z" fill="#3CAFC2"/>
<path d="M104.473 352.122C100.24 350.03 96.044 347.738 92.0033 345.308C91.1969 344.824 90.9308 343.794 91.4092 343.008C92.7574 340.794 93.5651 343.017 105.952 349.139C106.796 349.556 107.149 350.561 106.74 351.385C106.026 352.825 104.269 352.115 104.473 352.122ZM124.707 358.836C125.526 356.381 126.873 358.396 140.192 361.735C141.107 361.96 141.668 362.875 141.452 363.769C141.236 364.663 140.321 365.203 139.41 364.975C134.852 363.833 130.27 362.482 125.792 360.962C124.895 360.657 124.417 359.703 124.707 358.836ZM73.0755 332.122C69.4031 329.176 65.8062 326.038 62.3867 322.795C61.7061 322.15 61.6756 321.091 62.3195 320.431C64.1345 318.57 64.4236 320.907 75.1908 329.543C75.9236 330.131 76.0444 331.185 75.4606 331.897C74.8759 332.609 73.8093 332.709 73.0755 332.122ZM161.548 368.921C160.904 368.624 160.485 367.951 160.556 367.22C160.646 366.302 161.474 365.643 162.407 365.747C166.998 366.259 171.656 366.584 176.251 366.712C177.191 366.739 177.94 367.507 177.93 368.43C177.92 369.354 177.152 370.081 176.215 370.054C171.524 369.924 166.769 369.592 162.083 369.069C161.894 369.048 161.713 368.997 161.548 368.921ZM198.236 368.994C197.715 368.754 197.325 368.263 197.248 367.662C197.13 366.745 197.788 365.919 198.718 365.818C203.281 365.327 207.88 364.636 212.386 363.765C213.303 363.587 214.204 364.179 214.4 365.085C214.595 365.991 214.011 366.869 213.095 367.046C208.496 367.936 203.803 368.64 199.144 369.143C198.824 369.178 198.512 369.121 198.236 368.994ZM233.915 361.133C233.511 360.947 233.179 360.608 233.016 360.161C232.698 359.287 233.155 358.337 234.036 358.039C238.366 356.573 242.684 354.907 246.872 353.087C247.724 352.718 248.73 353.103 249.122 353.948C249.512 354.794 249.138 355.78 248.287 356.15C244.014 358.008 239.607 359.707 235.188 361.203C234.757 361.349 234.303 361.312 233.915 361.133ZM266.873 345.766C266.582 345.631 266.323 345.415 266.139 345.126C265.637 344.338 265.871 343.309 266.662 342.827C270.55 340.463 274.38 337.904 278.049 335.222C278.795 334.676 279.859 334.836 280.426 335.583C280.993 336.327 280.848 337.374 280.102 337.919C276.358 340.656 272.449 343.268 268.481 345.681C267.98 345.986 267.376 345.998 266.873 345.766ZM295.019 323.275C293.153 321.409 295.518 321.229 304.388 310.998C305.833 309.331 308.431 311.527 306.985 313.195C303.958 316.686 300.74 320.09 297.419 323.313C296.76 323.952 295.686 323.942 295.019 323.275ZM318.211 295.611C315.978 294.19 318.224 293.515 324.563 281.561C325.591 279.623 328.612 281.2 327.577 283.148C325.414 287.228 323.05 291.258 320.55 295.127C320.043 295.911 318.982 296.111 318.211 295.611ZM334.438 263.459C333.64 263.091 333.238 262.18 333.538 261.359C335.091 257.092 336.475 252.725 337.65 248.38C337.891 247.492 338.82 246.976 339.726 247.228C340.634 247.486 341.171 248.405 340.931 249.293C339.731 253.728 338.319 258.183 336.734 262.536C336.42 263.4 335.449 263.838 334.566 263.512C334.522 263.496 334.479 263.478 334.438 263.459Z" fill="white" fill-opacity="0.55"/>
<path d="M46.7321 305.789C43.0306 301.177 41.1325 299.298 42.9149 298.035C44.7688 296.72 45.5915 299.02 49.3802 303.743C49.9668 304.473 49.8483 305.523 49.1174 306.088C48.3862 306.653 47.3181 306.518 46.7321 305.789Z" fill="white" fill-opacity="0.55"/>
<path d="M68.2418 264.992L92.5372 263.714C99.2639 272.864 107.502 281.05 117.078 287.846C116.374 311.136 114.673 312.719 117.097 313.722L144.199 324.933C144.991 325.26 145.898 325.06 146.457 324.435L162.411 306.599C173.98 308.55 185.578 308.57 196.783 306.837L213.112 324.92C213.684 325.554 214.596 325.767 215.381 325.451L242.259 314.632C243.045 314.316 243.531 313.54 243.471 312.7L241.752 288.737C250.924 282.268 259.089 274.293 265.822 264.975L290.131 266.605C290.984 266.662 291.77 266.181 292.089 265.406L302.998 238.895C303.317 238.12 303.098 237.223 302.453 236.661L284.07 220.63C285.849 209.263 285.668 197.836 283.714 186.764C301.035 170.985 303.302 171.131 302.285 168.762C290.596 142.796 291.514 140.721 288.853 140.86L264.558 142.138C257.831 132.987 249.593 124.802 240.018 118.006C240.722 94.7304 242.423 93.1339 239.999 92.1296C212.88 81.4535 212.353 79.4983 210.638 81.4166L194.684 99.2529C183.115 97.3016 171.517 97.2812 160.312 99.0145C144.191 81.883 144.137 79.4251 141.714 80.4011C115.306 91.5747 113.439 90.5633 113.624 93.1517L115.343 117.114C106.171 123.583 98.0057 131.559 91.2736 140.876C68.0355 139.797 66.0016 138.025 65.0065 140.446C54.6856 166.866 52.6536 167.456 54.6418 169.191L73.0251 185.222C71.2462 196.588 71.4273 208.016 73.3812 219.088C56.1185 234.814 53.789 234.709 54.8097 237.09C66.4987 263.056 65.5813 265.131 68.2418 264.992Z" fill="white" fill-opacity="0.55"/>
<path d="M150.321 198.654C152.442 183.359 166.829 172.831 182.393 175.187C197.954 177.547 208.893 191.903 206.774 207.198C204.652 222.493 190.266 233.021 174.702 230.666C159.134 228.31 148.201 213.946 150.321 198.654ZM181.706 180.145C169.073 178.232 157.133 186.667 155.366 199.417C153.624 211.98 162.605 223.777 175.389 225.709C188.171 227.643 199.988 218.997 201.729 206.435C203.473 193.854 194.465 182.073 181.706 180.145Z" fill="white"/>
<path d="M149.074 267.728C145.235 265.959 141.552 263.874 138.091 261.508C137.05 260.797 136.696 259.472 137.194 258.39C137.254 258.26 137.325 258.135 137.409 258.014C138.197 256.881 139.784 256.61 140.944 257.403C144.924 260.125 149.225 262.447 153.723 264.311C187.616 278.33 226.168 263.501 241.039 231.231C241.419 230.407 241.783 229.571 242.131 228.725C256.207 194.518 239.168 155.354 204.469 140.989C169.818 126.655 130.117 142.463 116.061 176.575C107.707 196.883 112.735 211.263 111.774 213.347C110.737 215.599 107.333 215.086 106.938 212.63C104.783 199.212 106.477 185.026 112.513 171.927C138.56 115.408 221.448 117.72 246.294 175.602C253.94 193.414 254.139 212.974 246.853 230.679C246.476 231.595 246.081 232.5 245.67 233.396C238.118 249.786 224.742 262.485 207.722 269.336C189.773 276.56 169.92 276.416 151.822 268.929C150.898 268.548 149.981 268.146 149.074 267.728Z" fill="white"/>
<path d="M360.626 161.512C364.733 166.353 369.64 170.574 375.236 173.944L375.509 187.525C375.539 189.032 376.827 188.449 391.8 193.569C393.185 194.016 393.032 192.722 401.191 182.315C407.702 182.849 414.151 182.291 420.311 180.761L430.113 190.178C431.203 191.223 431.699 189.899 445.907 182.933C446.331 182.715 446.571 182.253 446.504 181.782L444.588 168.325C449.429 164.219 453.65 159.311 457.02 153.715C469.992 153.183 471.185 154.08 471.641 152.669C476.326 137.217 477.427 136.797 476.253 135.916L465.39 127.76C465.925 121.25 465.367 114.801 463.837 108.64L473.253 98.8376C474.298 97.7507 472.975 97.2523 466.008 83.0446C465.349 81.754 464.595 82.7649 451.401 84.3632C447.295 79.5223 442.387 75.3016 436.791 71.9315L436.518 58.3506C436.488 56.8419 435.199 57.4266 420.227 52.3058C418.849 51.8609 419.036 53.1009 410.836 63.5606C404.325 63.026 397.876 63.5842 391.716 65.114L381.914 55.6978C381.57 55.3677 381.055 55.2922 380.631 55.5092L366.121 62.9427C365.697 63.1599 365.457 63.6222 365.524 64.094L367.439 77.5506C362.598 81.6567 358.378 86.5646 355.008 92.1603C342.035 92.6918 340.84 91.7954 340.387 93.2071C335.703 108.652 334.6 109.077 335.774 109.96L346.637 118.116C346.103 124.626 346.661 131.075 348.19 137.235C339.392 146.784 337.907 146.996 338.585 148.32L346.019 162.831C346.683 164.128 347.499 163.102 360.626 161.512Z" fill="white" fill-opacity="0.55"/>
<path d="M389.037 121.838C389.646 112.455 397.729 105.353 407.114 105.962C416.494 106.569 423.599 114.654 422.99 124.037C422.383 133.398 414.274 140.521 404.913 139.914C395.553 139.306 388.431 131.2 389.037 121.838ZM394.097 122.165C393.672 128.737 398.674 134.429 405.241 134.855C415.792 135.537 421.988 123.031 414.986 115.058C408.015 107.121 394.785 111.545 394.097 122.165Z" fill="white"/>
<path d="M320.626 148.388C319.973 146.199 319.397 143.954 318.915 141.714C318.719 140.801 319.299 139.903 320.212 139.707C322.509 139.212 322.182 141.777 323.865 147.421C324.132 148.316 323.623 149.257 322.729 149.524C321.838 149.79 320.894 149.286 320.626 148.388Z" fill="#3CAFC2"/>
<path d="M317.011 119.2C317.2 114.716 317.735 110.048 318.669 105.377C319.108 103.179 322.42 103.853 321.984 106.039C319.566 118.142 321.454 121.082 318.628 120.96C317.687 120.919 316.972 120.127 317.011 119.2ZM326.66 86.2209C325.82 85.8125 325.471 84.8011 325.879 83.9612C327.906 79.7984 330.279 75.7588 332.937 71.9558C334.219 70.1246 336.989 72.0579 335.708 73.8925C333.152 77.5504 330.868 81.4355 328.92 85.4403C328.202 86.9138 326.456 86.2156 326.66 86.2209ZM348.5 58.045C348.285 57.9458 348.087 57.8005 347.924 57.6095C347.317 56.8998 347.4 55.8333 348.109 55.2258C351.631 52.212 355.416 49.4526 359.359 47.025C360.153 46.5367 361.196 46.7842 361.684 47.5775C362.174 48.3721 361.926 49.414 361.132 49.9025C357.338 52.2391 353.696 54.8944 350.307 57.7943C349.789 58.2373 349.081 58.3126 348.5 58.045ZM379.722 40.8667C379.3 40.6722 378.96 40.3054 378.813 39.8263C378.539 38.934 379.042 37.9885 379.934 37.7157C384.363 36.3583 388.937 35.3426 393.527 34.6974C394.453 34.5686 395.307 35.2119 395.437 36.1368C395.566 37.0606 394.922 37.9153 393.997 38.0454C389.583 38.6653 385.184 39.6415 380.924 40.9469C380.511 41.0738 380.086 41.0341 379.722 40.8667ZM414.241 35.8938C414.346 34.9666 415.183 34.2988 416.11 34.4038C420.729 34.9264 425.329 35.8138 429.784 37.0415C431.934 37.6236 431.047 40.8952 428.885 40.3004C424.601 39.1195 420.175 38.2658 415.731 37.7638C414.781 37.6526 414.139 36.8028 414.241 35.8938Z" fill="white" fill-opacity="0.55"/>
<path d="M454.597 52.2889C449.491 48.7707 447.241 48.4073 448.386 46.4338C448.855 45.6266 449.871 45.3379 450.696 45.8202C452.666 46.9621 454.624 48.2023 456.516 49.5056C457.284 50.0349 457.478 51.0875 456.948 51.8566C456.426 52.6132 455.383 52.8257 454.597 52.2889Z" fill="white" fill-opacity="0.55"/>
<path d="M491.053 111.993C490.264 105.819 489.036 103.92 491.271 103.457C492.187 103.267 493.08 103.855 493.269 104.768C493.733 106.999 494.116 109.286 494.406 111.564C494.525 112.49 493.87 113.337 492.944 113.455C492.022 113.574 491.172 112.92 491.053 111.993Z" fill="white" fill-opacity="0.55"/>
<path d="M376.877 205.364C377.759 202.699 379.759 205.444 391.802 207.454C394.002 207.817 393.457 211.157 391.246 210.789C386.742 210.037 382.269 208.93 377.951 207.5C377.079 207.214 376.58 206.262 376.877 205.364ZM411.616 210.172C411.54 209.242 412.232 208.426 413.163 208.35C425.435 207.342 427.542 204.767 428.206 207.506C428.425 208.413 427.866 209.327 426.96 209.546C422.534 210.614 417.985 211.346 413.439 211.719C412.508 211.794 411.693 211.102 411.616 210.172ZM445.441 200.966C444.122 198.48 447.459 198.956 457.27 191.631C459.062 190.296 461.086 193.001 459.293 194.34C455.636 197.069 451.745 199.535 447.727 201.667C446.903 202.104 445.879 201.792 445.441 200.966ZM472.931 179.197C470.739 177.42 474.008 176.554 480.162 165.976C481.284 164.045 484.21 165.74 483.085 167.675C480.795 171.61 478.179 175.402 475.308 178.947C474.719 179.674 473.655 179.782 472.931 179.197ZM488.506 146.297C491.85 134.456 490.178 131.564 492.981 131.907C493.909 132.019 494.567 132.862 494.455 133.789C493.901 138.327 492.994 142.844 491.759 147.217C491.506 148.115 490.572 148.638 489.673 148.384C488.777 148.13 488.252 147.197 488.506 146.297Z" fill="white" fill-opacity="0.55"/>
<path d="M357.831 197.874C355.907 196.635 354.009 195.305 352.189 193.923C351.447 193.358 351.302 192.299 351.866 191.555C353.288 189.684 354.702 191.837 359.662 195.032C360.447 195.538 360.673 196.584 360.168 197.369C359.654 198.165 358.601 198.372 357.831 197.874Z" fill="#3CAFC2"/>
<path d="M385.394 159.043C384.002 158.248 383.72 156.673 384.382 155.529C385.083 154.317 386.647 153.906 387.846 154.604C390.096 155.905 392.506 156.976 395.011 157.784C395.559 157.85 408.442 162.99 423.089 155.513C452.137 140.63 448.704 97.7507 417.605 87.7258C399.714 81.9566 380.566 90.6651 372.888 107.331C365.154 124.115 373.896 132.848 368.546 134.086C367.182 134.403 365.82 133.554 365.503 132.19C363.795 124.832 364.124 117.126 366.454 109.902C373.524 87.9634 397.153 75.803 419.162 82.9002C442.845 90.5353 454.931 117.31 444.31 140.359C435.746 158.949 414.203 169.301 393.455 162.61L393.454 162.609C390.646 161.703 387.933 160.504 385.394 159.043Z" fill="white"/>
<path d="M378.461 219.663C378.397 218.871 377.588 218.185 376.218 217.636C377.707 216.815 378.53 215.935 378.461 215.072C378.25 212.461 369.98 210.996 359.989 211.802C349.998 212.608 342.069 215.378 342.28 217.989C342.344 218.781 343.153 219.467 344.523 220.016C343.034 220.837 342.21 221.717 342.28 222.58C342.344 223.372 343.153 224.058 344.523 224.608C343.034 225.429 342.21 226.308 342.28 227.171C342.344 227.964 343.153 228.649 344.523 229.199C343.034 230.02 342.21 230.9 342.28 231.763C342.373 232.917 344.045 233.848 346.742 234.456C346.707 235.31 346.727 236.245 346.811 237.278C347.202 242.09 352.614 245.863 359.773 245.863C366.932 245.863 373.128 240.719 373.199 235.892C373.216 234.708 373.166 233.667 373.058 232.742C376.484 231.598 378.57 230.201 378.461 228.845C378.397 228.053 377.588 227.368 376.218 226.818C377.707 225.997 378.53 225.117 378.461 224.254C378.397 223.462 377.588 222.777 376.218 222.227C377.707 221.406 378.53 220.526 378.461 219.663Z" fill="#4F8189"/>
<path d="M355.366 235.496C352.399 235.496 349.684 235.278 347.44 234.848C347.31 234.823 347.225 234.697 347.25 234.567C347.275 234.437 347.4 234.352 347.531 234.377C351.041 235.049 355.729 235.197 360.732 234.793C364.826 234.463 368.654 233.803 371.803 232.884C371.931 232.847 372.064 232.919 372.101 233.047C372.138 233.174 372.065 233.307 371.938 233.344C368.758 234.272 364.896 234.939 360.771 235.272C358.912 235.422 357.096 235.496 355.366 235.496Z" fill="url(#paint1_linear_1_618)"/>
<path d="M355.416 230.9C351.56 230.9 348.115 230.538 345.685 229.846C345.558 229.809 345.484 229.676 345.52 229.549C345.556 229.421 345.688 229.348 345.817 229.384C349.279 230.37 354.855 230.676 360.732 230.202C366.545 229.733 371.967 228.553 375.235 227.046C375.355 226.991 375.498 227.043 375.553 227.164C375.609 227.284 375.556 227.426 375.436 227.482C372.119 229.012 366.637 230.207 360.771 230.68C358.94 230.828 357.137 230.9 355.416 230.9Z" fill="url(#paint2_linear_1_618)"/>
<path d="M355.366 226.313C351.204 226.313 347.561 225.887 345.109 225.078C344.983 225.037 344.915 224.901 344.957 224.775C344.998 224.649 345.133 224.581 345.26 224.622C348.672 225.747 354.456 226.117 360.732 225.611C366.545 225.142 371.967 223.962 375.235 222.455C375.355 222.4 375.498 222.452 375.553 222.572C375.609 222.693 375.556 222.835 375.436 222.891C372.119 224.42 366.637 225.616 360.771 226.089C358.912 226.239 357.094 226.313 355.366 226.313Z" fill="url(#paint3_linear_1_618)"/>
<path d="M355.398 221.719C352.096 221.719 349.093 221.452 346.759 220.934C346.629 220.905 346.548 220.777 346.576 220.647C346.605 220.518 346.734 220.436 346.863 220.465C350.374 221.245 355.429 221.447 360.732 221.02C366.493 220.555 371.887 219.389 375.161 217.898C375.281 217.843 375.424 217.897 375.479 218.017C375.534 218.138 375.48 218.28 375.36 218.335C372.038 219.847 366.584 221.03 360.771 221.498C358.934 221.646 357.125 221.719 355.398 221.719Z" fill="url(#paint4_linear_1_618)"/>
<path d="M335.574 196.487C334.361 192.189 332.299 188.173 329.524 184.674C323.576 177.178 313.873 161.933 312.678 141.127C310.941 110.863 337.782 95.7114 362.274 97.7683C386.767 99.8252 410.935 118.062 408.289 146.216C406.661 163.54 396.964 176.68 389.745 184.226C385.161 189.018 381.891 194.888 380.121 201.279C377.954 209.101 372.798 218.849 360.543 219.444C344.685 220.212 338.099 205.431 335.574 196.487Z" fill="url(#paint5_linear_1_618)"/>
<path d="M364.594 213.408L373.164 157.669C373.341 156.517 373.908 155.744 374.43 155.941C374.952 156.139 375.232 157.233 375.054 158.384C375.05 158.415 375.044 158.453 375.038 158.483L365.276 213.704C365.203 214.12 364.992 214.382 364.805 214.29C364.624 214.201 364.532 213.81 364.594 213.408Z" fill="url(#paint6_linear_1_618)"/>
<path d="M355.698 213.851L347.128 158.111C346.951 156.96 346.384 156.187 345.862 156.384C345.34 156.582 345.061 157.676 345.238 158.827C345.242 158.858 345.249 158.896 345.254 158.926L355.016 214.147C355.089 214.563 355.3 214.825 355.487 214.733C355.668 214.644 355.759 214.253 355.698 213.851Z" fill="url(#paint7_linear_1_618)"/>
<path d="M373.102 152.883C372.885 152.533 372.381 152.402 371.977 152.591L367.205 154.821L365.549 150.101C365.461 149.855 365.258 149.636 364.968 149.517C364.419 149.291 363.763 149.493 363.502 149.969L363.494 149.984L359.569 157.14L355.928 146.954L355.921 146.937C355.832 146.688 355.644 146.465 355.37 146.315C354.76 145.982 353.953 146.141 353.568 146.67L348.082 154.223C347.859 154.533 347.936 154.947 348.275 155.176C348.638 155.42 349.16 155.364 349.442 155.049L354.273 149.661L358.622 159.35L358.625 159.358C358.695 159.513 358.826 159.648 359.008 159.734C359.416 159.925 359.926 159.793 360.146 159.439L364.343 152.704L365.923 156.11L365.937 156.141C365.948 156.165 365.961 156.189 365.976 156.213C366.194 156.563 366.697 156.693 367.1 156.505L372.765 153.858C373.169 153.67 373.32 153.233 373.102 152.883Z" fill="white"/>
<path d="M389.932 177.041C389.706 177.041 389.479 176.971 389.284 176.826C388.802 176.469 388.701 175.787 389.059 175.304C390.518 173.339 391.856 171.307 393.034 169.266C393.335 168.746 394 168.568 394.52 168.868C395.041 169.168 395.219 169.833 394.918 170.354C393.698 172.467 392.315 174.569 390.806 176.602C390.593 176.889 390.264 177.041 389.932 177.041Z" fill="white"/>
<path d="M396.982 164.941C396.837 164.941 396.69 164.912 396.549 164.851C395.998 164.612 395.745 163.971 395.984 163.42C405.04 142.565 397.23 125.06 397.151 124.886C396.9 124.34 397.14 123.694 397.686 123.444C398.234 123.194 398.879 123.433 399.128 123.979C399.471 124.727 407.419 142.549 397.981 164.287C397.802 164.697 397.402 164.941 396.982 164.941Z" fill="white"/>
<path d="M215.812 561.461C215.812 561.461 214.398 569.042 213.669 576.552C213.383 579.487 215.624 582.059 218.569 582.211C228.574 582.723 249.978 583.738 257.665 583.468C258.82 583.428 259.586 582.252 259.169 581.174C258.82 580.271 258.136 579.536 257.259 579.123L222.047 562.531L215.812 561.461Z" fill="#4F8189"/>
<path d="M214.755 556.99L215.746 566.082C215.746 566.082 221.914 569.026 226.176 565.818L223.707 555.672L214.755 556.99Z" fill="url(#paint8_linear_1_618)"/>
<path d="M217.194 386.243C216.706 388.61 213.566 504.58 225.469 556.677C225.663 557.527 225.225 558.397 224.414 558.719C222.505 559.478 218.766 560.567 214.297 560.675C212.914 560.708 211.681 559.797 211.304 558.465C207.875 546.372 191.469 485.786 189.804 428.045C187.944 363.524 189.825 425.849 189.825 425.849L191.658 385.994L217.194 386.243Z" fill="#4F8189"/>
<path d="M175.089 565.035C175.089 565.035 172.918 568.848 170.754 579.014C170.363 580.85 171.631 582.623 173.498 582.825C176.8 583.181 181.884 583.648 185.96 583.659C187.839 583.664 189.321 582.041 189.112 580.174C188.696 576.452 187.348 570.338 183.048 565.542L175.089 565.035Z" fill="#4F8189"/>
<path d="M173.325 553.335L175.712 567.094C175.712 567.094 178.184 568.969 183.122 567.674L182.061 552.885L173.325 553.335Z" fill="url(#paint9_linear_1_618)"/>
<path d="M168.087 389.334C157.363 450.434 168.844 540.608 172.837 558.274C173.082 559.356 173.945 560.191 175.037 560.382C176.892 560.708 179.948 560.988 182.971 560.141C184.013 559.85 184.752 558.919 184.804 557.839C185.499 543.594 185.328 456.102 195.106 421.618C195.602 419.871 196.686 418.353 198.177 417.315L216.64 404.453L218.247 383.392L168.087 389.334Z" fill="#4F8189"/>
<path d="M233.807 273.994C203.423 273.202 169.813 281.363 169.813 281.363C160.25 334.131 167.143 395.165 167.143 395.165C190.61 401.559 217.243 391.871 217.243 391.871C221.364 369.816 240.201 307.817 240.201 307.817C255.066 306.116 267.338 301.949 277.465 296.382C269.867 287.403 266.353 276.036 264.844 269.322C254.067 272.559 243.178 274.239 233.807 273.994Z" fill="#3CAFC2"/>
<path d="M323.995 230.09C321.045 226.456 317.25 228.126 317.25 228.126C312.598 246.973 289.004 262.066 264.844 269.322C266.353 276.036 269.867 287.403 277.465 296.382C317.658 274.285 323.995 230.09 323.995 230.09Z" fill="url(#paint10_linear_1_618)"/>
<path d="M323.262 231C323.565 231.996 319.934 233.474 317.843 229.392C317.787 227.445 316.683 219.095 317.861 217.52C324.136 209.134 336.246 198.662 336.246 198.662C338.257 200.685 336.566 202.636 336.566 202.636L330.682 208.65C331.88 210.863 333.349 212.736 334.02 215.407C334.528 217.429 334.185 219.581 333.148 221.408C332.108 223.24 330.69 225.622 329.353 227.484C326.823 231.007 323.262 231 323.262 231Z" fill="url(#paint11_linear_1_618)"/>
<path d="M328.096 212.563L322.744 217.014L321.035 221.479L325.718 226.775C325.718 226.775 327.395 217.899 328.596 215.986C329.797 214.073 329.193 213.137 328.096 212.563Z" fill="url(#paint12_linear_1_618)"/>
<path d="M181.188 310.899L169.813 281.363C169.813 281.363 141.244 300.378 136.343 324.786C141.703 325.233 151.449 326.721 160.955 331.635C163.164 320.109 181.188 310.899 181.188 310.899Z" fill="#30ABBF"/>
<path d="M205.728 338.824C205.728 338.824 173.688 356.53 163.082 341.049C160.88 337.834 160.376 334.655 160.955 331.635C151.449 326.721 141.702 325.233 136.343 324.786C134.865 332.145 135.534 339.992 139.791 347.957C158.298 382.593 209.871 346.722 209.871 346.722L205.728 338.824Z" fill="url(#paint13_linear_1_618)"/>
<path d="M203.262 249.03L193.326 276.9C193.161 277.362 193.346 277.877 193.773 278.118C196.395 279.6 205.851 283.903 217.363 276.757C218.563 276.012 219.386 274.787 219.581 273.389L222.942 249.218L203.262 249.03Z" fill="url(#paint14_linear_1_618)"/>
<path d="M224.547 223.337C224.547 223.337 234.974 243.425 233.536 251.485C232.098 259.546 218.945 258.841 207.516 252.174L199.693 230.516L224.547 223.337Z" fill="url(#paint15_linear_1_618)"/>
<path d="M208.126 241.581C208.594 241.378 208.772 240.808 208.497 240.378C207.658 239.07 206.089 236.404 205.602 234.078C205.602 234.078 203.705 232.837 210.487 231.282C217.27 229.727 227.385 227.31 229.561 221.57C231.682 215.974 226.384 201.8 217.608 212.969C217.274 213.394 216.628 213.398 216.302 212.966C214.899 211.103 211.2 207.228 205.99 209.506C201.115 211.638 200.535 215.189 200.584 216.983C200.599 217.511 200.123 217.916 199.606 217.812C197.156 217.321 191.271 216.863 188.464 222.878C186.153 227.833 187.597 230.664 188.924 232.054C189.354 232.505 189.157 233.238 188.56 233.414C186.942 233.893 184.846 235.24 185.019 239.021C185.257 244.248 191.102 243.844 192.768 243.621C193.04 243.585 193.314 243.681 193.497 243.887C194.908 245.479 201.268 252.24 208.213 253.114C208.815 253.189 209.287 252.599 209.095 252.024L206.17 243.248C206.034 242.841 206.232 242.397 206.627 242.227L208.126 241.581Z" fill="#4F8189"/>
<path d="M209.323 242.833C209.323 242.833 201.813 237.574 201.219 241.937C200.625 246.3 207.966 248.329 211.627 246.735L209.323 242.833Z" fill="url(#paint16_linear_1_618)"/>
<path d="M199.18 366.807L216.634 305.855C216.832 305.163 217.422 304.658 218.137 304.575C221.299 304.206 230.463 303.17 241.042 302.275C253.786 301.197 268.585 300.324 277.429 301.067C278.686 301.172 279.446 302.502 278.887 303.633C273.858 313.807 253.172 355.194 242.813 368.751C242.47 369.201 241.939 369.463 241.374 369.458L200.878 369.081C199.7 369.07 198.856 367.94 199.18 366.807Z" fill="#4F8189"/>
<path d="M203.397 352.081C203.397 352.081 200.965 342.084 201.946 338.537C202.927 334.99 204.827 330.429 211.161 331.443C217.495 332.456 224.966 335.124 224.966 335.124C224.966 335.124 224.589 339.744 219.775 338.254L222.76 340.564C222.76 340.564 222.333 344.263 218.268 342.286L221.044 345.35C221.044 345.35 219.298 348.388 216.306 346.439C213.314 344.49 211.88 353.285 203.397 352.081Z" fill="url(#paint17_linear_1_618)"/>
<path d="M239.879 320.471C239.879 323.3 242.173 325.594 245.002 325.594C247.832 325.594 250.126 323.3 250.126 320.471C250.126 317.641 247.832 315.347 245.002 315.347C242.173 315.347 239.879 317.641 239.879 320.471Z" fill="#3CAFC2"/>
<path d="M218.609 323.848L217.303 323.462L220.856 311.408C221.436 309.445 223.021 307.97 224.991 307.56C236.255 305.209 265.92 304.73 267.177 304.71L267.198 306.072C266.892 306.076 236.406 306.569 225.269 308.893C223.79 309.201 222.599 310.312 222.162 311.794L218.609 323.848Z" fill="#3CAFC2"/>
<path d="M12.0474 494.426C10.1869 497.179 2.79245 559.513 1.6351 582.534C1.55675 584.091 2.80211 585.389 4.36085 585.389C5.70516 585.389 6.84899 584.41 7.05654 583.082L20.5816 496.409L12.0474 494.426Z" fill="#6EB8C4"/>
<path d="M71.4993 494.426C73.3598 497.179 80.7543 559.513 81.9116 582.534C81.99 584.091 80.7448 585.389 79.1857 585.389C77.8416 585.389 76.6975 584.41 76.4904 583.082L62.9653 496.409L71.4993 494.426Z" fill="#6EB8C4"/>
<path d="M0.861806 489.561L0.855576 490.241C0.81093 495.131 5.02373 499.142 10.2988 499.232L72.8146 500.296C78.0137 500.384 82.3475 496.627 82.5997 491.813L82.6324 491.191C82.8953 486.17 78.6316 481.94 73.2098 481.842L10.6675 480.722C5.31435 480.625 0.906881 484.599 0.861806 489.561Z" fill="#6EB8C4"/>
<path d="M132.553 580.27C121.44 580.27 116.523 579.317 114.325 578.447C114.752 580.272 116.378 581.713 118.432 581.713H157.746C159.07 581.713 159.906 580.446 159.589 579.298C155.108 579.659 145.59 580.27 132.553 580.27Z" fill="#3CAFC2"/>
<path d="M159.589 579.298C159.525 579.067 159.432 578.839 159.267 578.629C156.272 574.806 150.256 568.801 142.073 568.916C130.085 569.085 125.905 570.386 116.589 568.989L114.391 576.274C114.167 577.016 114.163 577.758 114.325 578.447C116.523 579.317 121.44 580.27 132.553 580.27C145.589 580.27 155.108 579.659 159.589 579.298Z" fill="#4F8189"/>
<path d="M119.287 561.139L116.589 570.314C116.589 570.314 122.565 573.035 127.822 570.851L128.854 562.902L119.287 561.139Z" fill="url(#paint18_linear_1_618)"/>
<path d="M200.771 574.492C192.108 581.453 187.68 583.793 185.425 584.495C186.896 585.644 189.061 585.743 190.662 584.457L221.309 559.832C222.341 559.003 222.203 557.496 221.241 556.804C217.972 559.891 210.933 566.327 200.771 574.492Z" fill="#3CAFC2"/>
<path d="M221.241 556.804C221.047 556.664 220.832 556.546 220.573 556.487C215.855 555.396 207.422 554.505 201.114 559.72C191.874 567.36 189.427 570.987 181.294 575.739L184.122 582.768C184.41 583.484 184.869 584.062 185.425 584.495C187.68 583.793 192.108 581.453 200.771 574.492C210.933 566.327 217.972 559.891 221.241 556.804Z" fill="#4F8189"/>
<path d="M61.5769 456.604C61.5769 456.604 128.111 462.037 141.76 468.462C155.409 474.887 130.622 564.94 130.622 564.94C130.622 564.94 126.906 566.728 118.638 564.158C118.638 564.158 127.116 497.702 120.807 483.292L48.7678 471.509L61.5769 456.604Z" fill="#4F8189"/>
<path d="M174.683 563.089C175.301 563.652 181.294 575.739 181.294 575.739C181.294 575.739 187.966 574.296 189.326 570.073L183.323 559.164L174.683 563.089Z" fill="url(#paint19_linear_1_618)"/>
<path d="M21.5042 456.048C21.5042 456.048 19.3359 461.265 19.4245 468.198C19.5469 477.786 27.2551 485.567 36.8321 486.045L115.486 489.631C117.147 489.707 118.553 490.857 118.969 492.467C120.817 499.616 129.851 521.57 174.013 565.378C175.188 566.543 177.018 566.742 178.417 565.858L184.704 561.887C185.364 561.47 185.574 560.605 185.18 559.931L139.384 481.727C136.978 477.757 133.111 474.89 128.615 473.74L61.577 456.604L21.5042 456.048Z" fill="#4F8189"/>
<path d="M99.0172 333.886C99.0172 333.886 90.5914 348.783 82.0007 356.001L99.7571 365.908C99.7571 365.908 103.758 350.137 112.899 345.518L99.0172 333.886Z" fill="url(#paint20_linear_1_618)"/>
<path d="M20.0754 456.604C20.0754 456.604 41.3092 461.779 61.5771 456.604C61.5771 456.604 89.9374 418.48 100.909 408.103C100.909 408.103 118.411 435.72 157.365 439.633L159.538 434.779C159.538 434.779 128.525 420.483 118.978 398.517C109.431 376.551 105.597 367.183 96.9109 361.451C91.5015 357.882 88.2625 355.444 86.589 354.113C85.6724 353.384 84.4078 353.301 83.4078 353.91C74.1899 359.528 30.817 389.234 20.0754 456.604Z" fill="#3CAFC2"/>
<path d="M99.7579 407.566C99.3488 407.566 98.9447 407.382 98.6766 407.033C91.9147 398.216 88.1485 388.497 87.9916 388.088C87.7223 387.386 88.0728 386.599 88.7751 386.329C89.4787 386.059 90.2649 386.41 90.5347 387.112C90.5719 387.209 94.3247 396.882 100.838 405.375C101.296 405.972 101.183 406.826 100.586 407.285C100.339 407.474 100.047 407.566 99.7579 407.566Z" fill="url(#paint21_linear_1_618)"/>
<path d="M155.023 432.243L159.407 431.075L172.72 427.992C174.323 427.621 176.007 427.905 177.4 428.781L188.847 435.983L157.235 435.93L155.023 432.243Z" fill="url(#paint22_linear_1_618)"/>
<path d="M112.395 311.547C112.395 311.547 120.584 325.159 122.005 332.682C123.425 340.206 125.706 344.909 117.144 347.589C108.581 350.27 100.624 346.877 95.6297 339.854C95.6297 339.854 87.8306 329.047 88.6085 324.097C89.3866 319.148 112.395 311.547 112.395 311.547Z" fill="url(#paint23_linear_1_618)"/>
<path d="M97.9092 334.032L99.017 333.886C99.017 333.886 93.2189 325.124 97.0129 322.951C100.807 320.778 116.268 315.445 118.953 309.356C121.541 303.486 117.669 296.854 113.001 295.47C112.706 295.383 112.394 295.557 112.287 295.846L112.013 296.585C111.825 297.092 111.117 297.112 110.9 296.617C110.695 296.148 110.023 296.128 109.812 296.595C108.984 298.419 106.504 301.535 99.0691 303.945C88.519 307.365 81.9473 312.683 82.7561 320.179C82.8074 320.654 82.3356 320.982 81.8988 320.789C81.0364 320.407 79.729 320.347 78.2108 322.008C75.5707 324.895 77.6388 331.212 84.8493 335.681C85.1919 335.894 85.253 336.377 84.9467 336.639C83.8679 337.563 82.3504 339.622 87.2288 341.458C92.2195 343.336 94.9426 342.7 95.9489 342.297C96.2198 342.188 96.3743 341.908 96.3185 341.622L95.0369 335.053C94.9706 334.713 95.2045 334.388 95.5477 334.343L97.9092 334.032Z" fill="#4F8189"/>
<path d="M98.3639 335.382C98.3639 335.382 94.7506 326.473 90.9557 329.605C87.161 332.736 94.4636 339.657 97.8339 339.564L98.3639 335.382Z" fill="url(#paint24_linear_1_618)"/>
<path d="M142.81 442.184C142.861 442.186 142.913 442.188 142.965 442.187L210.497 442.12C212.166 442.119 213.518 440.767 213.516 439.1C213.515 437.433 212.155 436.056 210.49 436.086L142.958 436.153C141.288 436.155 139.937 437.507 139.938 439.173C139.941 440.788 141.213 442.105 142.81 442.184Z" fill="#4F8189"/>
<path d="M236.651 376.049C236.627 376.094 236.603 376.141 236.582 376.188L208.167 437.451C207.464 438.966 208.12 440.761 209.632 441.462C211.145 442.164 212.967 441.511 213.642 439.989L242.056 378.726C242.759 377.212 242.103 375.416 240.591 374.715C239.127 374.036 237.396 374.634 236.651 376.049Z" fill="#4F8189"/>
<path d="M413.49 503.753H406.363V580.834H413.49V503.753Z" fill="#6EB8C4"/>
<path d="M441.14 582.32H378.712C378.712 579.757 380.789 577.68 383.352 577.68H436.5C439.063 577.68 441.14 579.757 441.14 582.32Z" fill="#6EB8C4"/>
<path d="M450.405 501.077C450.405 505.293 446.956 508.742 442.74 508.742H379.58C375.364 508.742 371.915 505.293 371.915 501.077V494.146C371.915 489.931 375.364 486.481 379.58 486.481H442.74C446.956 486.481 450.405 489.931 450.405 494.146V501.077Z" fill="#6EB8C4"/>
<path d="M357.307 452.357C357.307 452.357 346.715 453.999 334.807 461.96C332.933 463.212 331.905 465.396 332.188 467.633C333.614 478.928 339.476 515.485 358.809 551.191C359.828 553.074 360.121 555.266 359.672 557.359L356.313 572.99L350.084 578.83H366.128L376.81 549.922L372.242 548.477C368.701 547.357 366.271 544.1 366.207 540.386L365.671 509.376C366.128 495.56 357.199 486.027 357.199 486.027L382.821 484.781L357.307 452.357Z" fill="#FEBBBA"/>
<path d="M343.819 581.65C342.358 583.562 359.545 586.085 368.228 581.902C368.228 581.902 380.265 560.96 380.265 550.177C380.265 550.177 379.31 547.979 372.242 548.477C372.242 548.477 368.201 573.274 363.933 576.052C359.665 578.83 351.993 576.333 351.993 576.333C351.993 576.333 345.975 578.828 343.819 581.65Z" fill="#4F8189"/>
<path d="M379.58 486.482C379.443 486.246 351.993 483.181 351.993 483.181C351.993 483.181 352.892 491.527 350.084 503.017C347.277 514.506 306.974 564.284 306.974 564.284L311.2 577.68C298.134 582.232 285.282 582.959 272.635 580L298.824 564.284C298.824 564.284 323.334 480.758 338.347 465.857L365.863 456.338L379.58 486.482Z" fill="#FEBBBA"/>
<path d="M441.14 437.881C441.14 437.881 456.955 461.404 458.253 472.134C459.551 482.864 453.921 487.224 437.327 487.944C420.733 488.663 376.433 488.651 376.433 488.651L338.623 456.338C338.623 456.338 366.177 446.506 373.341 443.726C380.505 440.946 441.14 437.881 441.14 437.881Z" fill="#4F8189"/>
<path d="M309.603 573.169C309.603 573.169 314.153 577.575 311.079 582.478C311.079 582.478 275.039 588.866 265.253 585.968C265.253 585.968 267.285 581.331 278.304 576.052L277.491 576.676C276.462 577.466 277.065 579.111 278.36 579.037C285.621 578.623 300.647 577.293 309.603 573.169Z" fill="#4F8189"/>
<path d="M372.634 288.701C404.963 283.204 420.183 309.572 419.071 315.112C418.923 315.847 419.616 316.469 420.34 316.274C424.051 315.275 432.251 314.015 437.333 320.384C441.821 326.007 438.467 331.313 435.733 334.226C435.073 334.93 435.628 336.072 436.585 335.951C443.409 335.089 458.236 334.883 460.662 348.773C462.925 361.726 453.909 365.379 448.562 366.408C447.657 366.583 447.446 367.772 448.224 368.265C450.891 369.957 453.982 373.454 452.733 380.355C450.776 391.172 429.569 390.286 427.091 390.145C426.934 390.137 426.785 390.091 426.648 390.013L392.681 370.641C392.417 370.49 392.233 370.229 392.181 369.928L385.324 330.325C385.268 330.005 385.369 329.677 385.594 329.443L363.45 298.193C355.412 297.01 372.253 288.765 372.634 288.701Z" fill="#4F8189"/>
<path d="M398.533 435.137C398.533 435.137 380.116 417.6 371.051 405.985C366.15 399.706 364.612 391.441 366.878 383.805C371.017 369.861 378.372 355.419 379.043 353.171C380.071 349.725 400.722 349.869 400.722 349.869C400.722 349.869 441.357 376.241 457.323 420.915L439.392 426.497C439.392 426.497 428.782 408.697 418.299 397.38C418.299 397.38 436.439 421.343 437.077 431.153L398.533 435.137Z" fill="#3CAFC2"/>
<path d="M376.382 333.546C376.598 334.262 381.988 352.13 382.409 352.5C382.831 352.871 394.229 353.484 399.595 349.817L386.286 323.786L376.382 333.546Z" fill="url(#paint25_linear_1_618)"/>
<path d="M354.775 310.586C354.775 310.586 352.17 320.822 359.377 334.589C366.583 348.356 374.742 348.342 379.201 343.935C383.661 339.529 389.16 332.051 387.854 318.741C386.548 305.431 358.537 297.565 354.775 310.586Z" fill="url(#paint26_linear_1_618)"/>
<path d="M377.885 319.464C377.885 319.464 365.929 301.185 354.716 315.571L354.513 320.803C354.513 320.803 341.382 319.245 343.68 307.203C345.978 295.162 357.328 287.636 371.943 292.852C386.558 298.068 394.933 303.417 395.876 313.89C396.819 324.364 388.486 322.068 388.486 322.068C388.486 322.068 385.768 314.693 381.904 313.926C378.039 313.159 379.044 318.911 379.044 318.911L377.885 319.464Z" fill="#4F8189"/>
<path d="M380.947 319.218C380.947 319.218 374.746 309.858 381.1 308.463C387.454 307.067 386.468 317.583 385.782 321.473L380.947 319.218Z" fill="url(#paint27_linear_1_618)"/>
<path d="M360.85 436.069L374.382 423.027L393.1 430.934C393.1 430.934 411.733 433.821 422.397 430.934C433.061 428.048 433.061 428.048 433.061 428.048L457.159 420.545L460.944 431.242C461.905 433.957 460.939 436.973 458.591 438.641C456.506 440.122 454.062 441.751 452.505 442.432C449.331 443.82 374.273 441.471 374.273 441.471L360.85 436.069Z" fill="url(#paint28_linear_1_618)"/>
<path d="M412.057 442.218C411.997 442.221 411.937 442.222 411.876 442.222L333.384 442.136C331.444 442.134 329.873 440.56 329.875 438.619C329.876 436.678 331.457 435.075 333.392 435.11L411.884 435.195C413.825 435.197 415.396 436.772 415.394 438.712C415.391 440.592 413.913 442.126 412.057 442.218Z" fill="#4F8189"/>
<path d="M262.823 370.951H328.192C333.014 370.951 337.403 373.734 339.46 378.096L369.68 442.176H288.444C285.337 442.176 282.545 440.277 281.402 437.387L257.968 378.09C256.614 374.664 259.139 370.951 262.823 370.951Z" fill="#4F8189"/>
<path d="M308.876 403.807C310.293 408.208 309.246 412.482 306.539 413.354C303.831 414.225 300.488 411.364 299.071 406.963C297.655 402.562 298.701 398.288 301.409 397.416C304.116 396.545 307.46 399.406 308.876 403.807Z" fill="#6EB8C4"/>
<path d="M501.544 572.604C501.544 572.604 502.367 577.179 502.693 582.609C502.832 584.923 501.117 586.933 498.81 587.157C490.775 587.936 472.488 589.375 460.81 587.69C459.175 587.454 458.525 585.445 459.734 584.318C464.549 579.833 476.177 571.107 495.316 569.199L501.544 572.604Z" fill="#4F8189"/>
<path d="M505.538 562.293L501.476 572.25C500.919 573.614 499.535 574.462 498.07 574.309C497.075 574.205 495.897 574.014 494.751 573.666C492.459 572.97 491.166 570.54 491.852 568.245L494.918 557.99L505.538 562.293Z" fill="url(#paint29_linear_1_618)"/>
<path d="M574.985 580.534C574.985 580.534 566.851 587.34 563.681 596.07C562.809 598.471 564.652 601 567.206 601H583.945C586.395 601 588.273 598.796 587.847 596.383C586.78 590.355 583.706 580.559 574.985 580.534Z" fill="#4F8189"/>
<path d="M585.062 571.677C585.062 571.677 583.419 578.949 582.156 583.755C581.926 584.627 580.996 585.106 580.146 584.802C577.613 583.897 575.552 583.496 574.053 583.697C573.361 583.79 572.756 583.214 572.747 582.515L572.589 570.436L585.062 571.677Z" fill="url(#paint30_linear_1_618)"/>
<path d="M541.801 408.038L492.325 558.975C492.325 558.975 501.815 565.19 506.336 564.931L565.102 443.628C565.102 443.628 575.385 518.371 570.402 572.03L587.234 573.315C587.234 573.315 614.604 436.187 593.873 389.22L541.801 408.038Z" fill="#4F8189"/>
<path d="M564.784 442.324C564.803 442.324 564.824 442.323 564.844 442.321C565.107 442.287 565.293 442.048 565.259 441.785L563.34 426.546C563.307 426.284 563.07 426.101 562.804 426.131C562.542 426.164 562.356 426.403 562.389 426.666L564.309 441.905C564.34 442.148 564.546 442.324 564.784 442.324Z" fill="#FF928E"/>
<path d="M532.525 275.221C532.525 275.221 572.61 278.78 566.94 307.341C566.94 307.341 589.097 349.04 599.457 398.16C599.794 399.758 598.723 401.317 597.113 401.593L530.359 413.023C528.517 413.338 526.741 412.19 526.273 410.381L510.323 348.738L504.108 377.398L484.36 372.252L500.985 288.036C500.985 288.036 503.304 275.749 532.525 275.221Z" fill="#3CAFC2"/>
<path d="M509.984 345.981C510.019 345.981 510.054 345.977 510.09 345.97C510.358 345.911 510.528 345.646 510.47 345.378L504.906 319.828C504.847 319.56 504.586 319.391 504.314 319.448C504.046 319.507 503.876 319.771 503.934 320.04L509.498 345.59C509.55 345.822 509.755 345.981 509.984 345.981Z" fill="#3CAFC2"/>
<path d="M514.013 422.011C516.116 420.855 518.577 420.535 520.906 421.115L525.551 422.271C526.538 422.517 527.516 421.837 527.63 420.826L532.436 378.046C538.446 380.9 547.116 380.559 549.975 380.35L538.913 430.784H500.202L514.013 422.011Z" fill="url(#paint31_linear_1_618)"/>
<path d="M411.16 329.218L412.33 325.329C413.003 323.092 414.657 321.281 416.825 320.41L437.987 311.9C437.987 311.9 438.307 309.186 433.516 307.341C428.725 305.497 429.845 300.132 429.845 300.132C429.845 300.132 436.391 303.117 445.972 307.853C451.452 310.561 454.526 315.342 456.156 318.941L504.108 377.398L498.478 381.266C491.075 386.353 480.893 383.854 476.686 375.918L450.709 326.105C437.667 330.023 424.469 330.772 411.16 329.218Z" fill="url(#paint32_linear_1_618)"/>
<path d="M519.539 247.95L531.868 282.456C531.868 282.456 520.951 290.991 512.984 288.105L506.771 268.326C506.771 268.326 511.516 244.151 519.539 247.95Z" fill="url(#paint33_linear_1_618)"/>
<path d="M482.744 235.558C482.744 236.09 494.62 269.178 494.62 269.178L513.368 261.995L506.772 228.962C506.772 228.962 482.744 226.657 482.744 235.558Z" fill="url(#paint34_linear_1_618)"/>
<path d="M503.483 237.01L508.317 254.127C508.379 254.346 508.411 254.567 508.411 254.796C508.413 256.192 508.067 260.996 503.174 260.342C498.734 259.749 494.673 259.274 492.091 260.491C490.931 261.037 490.377 262.371 490.81 263.577C491.89 266.583 494.448 273.312 497.563 278.819C498.195 279.936 499.582 280.371 500.75 279.839C504.271 278.237 511.603 274.651 516.826 270.383C517.533 269.805 517.873 268.896 517.705 267.998C516.883 263.619 514.436 250.301 514.328 246.484C514.226 242.902 518.246 240.167 520.016 239.139C520.596 238.802 521.009 238.247 521.166 237.595C521.721 235.289 522.193 230.071 515.536 228.921C514.143 228.68 513.235 227.346 513.518 225.961C514.081 223.204 513.901 219.146 508.664 217.651C503.342 216.132 499.992 219.336 498.289 221.793C497.6 222.786 496.311 223.108 495.208 222.615C494.58 222.334 493.82 222.322 493.005 223.01C491.906 223.936 490.232 223.654 489.425 222.465C487.872 220.18 485.053 217.9 480.279 219.445C471.809 222.185 472.214 231.951 475.319 237.261C478.424 242.57 487.438 239.076 491.706 235.558C494.951 232.883 499.891 234.483 502.073 235.404C502.764 235.696 503.279 236.288 503.483 237.01Z" fill="url(#paint35_linear_1_618)"/>
<path d="M516.026 252.734C516.026 252.734 511.013 243.251 514.328 240.273C517.643 237.295 523.259 237.783 523.108 245.198C522.92 254.423 516.026 252.734 516.026 252.734Z" fill="url(#paint36_linear_1_618)"/>
<path d="M546.085 380.992C548.821 380.992 550.773 380.784 550.985 380.761L551.34 380.721L565.936 312.669C565.994 312.401 565.823 312.137 565.555 312.079C565.284 312.019 565.023 312.193 564.965 312.461L550.52 379.806C548.348 379.997 536.748 380.767 530.625 376.429L543.269 317.305L540.63 312.332C540.501 312.089 540.2 311.997 539.957 312.126C539.715 312.255 539.623 312.555 539.751 312.798L542.221 317.452L529.519 376.848L529.773 377.038C534.197 380.363 541.324 380.992 546.085 380.992Z" fill="#3CAFC2"/>
<path d="M108.512 588.474C108.176 588.474 107.836 588.401 107.508 588.248C106.217 587.642 105.621 586.009 106.176 584.601L159.513 449.27C160.067 447.862 161.562 447.212 162.854 447.817C164.144 448.422 164.74 450.055 164.185 451.463L110.849 586.795C110.435 587.845 109.497 588.474 108.512 588.474Z" fill="#094D58"/>
<path d="M168.597 588.474C167.612 588.474 166.674 587.845 166.26 586.794L112.924 451.463C112.369 450.055 112.965 448.422 114.255 447.816C115.544 447.211 117.041 447.861 117.596 449.269L170.932 584.601C171.487 586.009 170.891 587.641 169.601 588.247C169.274 588.401 168.932 588.474 168.597 588.474Z" fill="#094D58"/>
<path d="M470.491 588.474C470.155 588.474 469.815 588.401 469.487 588.247C468.197 587.641 467.6 586.009 468.156 584.6L521.492 449.269C522.047 447.861 523.541 447.211 524.833 447.816C526.123 448.422 526.719 450.055 526.164 451.463L472.828 586.794C472.414 587.845 471.476 588.474 470.491 588.474Z" fill="#094D58"/>
<path d="M530.576 588.474C529.59 588.474 528.652 587.845 528.238 586.794L474.902 451.463C474.347 450.055 474.943 448.422 476.233 447.816C477.522 447.211 479.019 447.861 479.574 449.269L532.91 584.601C533.465 586.009 532.87 587.641 531.579 588.247C531.252 588.401 530.911 588.474 530.576 588.474Z" fill="#094D58"/>
<path d="M462.751 439.711H540.001V431.739H462.751C464.405 431.739 464.405 439.711 462.751 439.711Z" fill="#3CAFC2"/>
<path d="M539.276 439.711C539.675 439.711 540.001 439.384 540.001 438.986V432.464C540.001 432.065 539.675 431.739 539.276 431.739H461.121C460.722 431.739 460.396 431.413 460.396 431.014V430.662C460.396 430.263 460.722 429.937 461.121 429.937H544.424C546.267 429.937 547.761 431.43 547.761 433.273V438.368C547.761 440.105 546.352 441.514 544.615 441.514H461.121C460.722 441.514 460.396 441.187 460.396 440.788V440.436C460.396 440.038 460.722 439.711 461.121 439.711H539.276Z" fill="url(#paint37_linear_1_618)"/>
<path d="M551.199 445.085C551.458 444.195 551.105 443.275 550.235 442.576C549.366 441.876 548.071 441.471 546.704 441.471H83.8309C82.0339 441.471 80.3607 442.079 79.3927 443.083C78.4244 444.087 78.2946 445.35 79.0482 446.432L84.0642 453.633C85.2127 455.282 87.7015 456.338 90.4401 456.338H543.528C546.076 456.338 548.266 455.14 548.749 453.48L551.199 445.085Z" fill="#094D58"/>
</g>
<defs>
<linearGradient id="paint0_linear_1_618" x1="674.098" y1="776.212" x2="140.812" y2="113.905" gradientUnits="userSpaceOnUse">
<stop stop-color="#8BD1DD" stop-opacity="0.1"/>
<stop offset="1" stop-color="#91D1DB" stop-opacity="0.4"/>
</linearGradient>
<linearGradient id="paint1_linear_1_618" x1="363.126" y1="195.836" x2="350.434" y2="335.815" gradientUnits="userSpaceOnUse">
<stop stop-color="#53D8FF"/>
<stop offset="1" stop-color="#3840F7"/>
</linearGradient>
<linearGradient id="paint2_linear_1_618" x1="363.496" y1="195.869" x2="350.804" y2="335.849" gradientUnits="userSpaceOnUse">
<stop stop-color="#53D8FF"/>
<stop offset="1" stop-color="#3840F7"/>
</linearGradient>
<linearGradient id="paint3_linear_1_618" x1="362.795" y1="195.805" x2="350.103" y2="335.786" gradientUnits="userSpaceOnUse">
<stop stop-color="#53D8FF"/>
<stop offset="1" stop-color="#3840F7"/>
</linearGradient>
<linearGradient id="paint4_linear_1_618" x1="363.172" y1="195.839" x2="350.48" y2="335.82" gradientUnits="userSpaceOnUse">
<stop stop-color="#53D8FF"/>
<stop offset="1" stop-color="#3840F7"/>
</linearGradient>
<linearGradient id="paint5_linear_1_618" x1="367.027" y1="96.2937" x2="347.445" y2="229.015" gradientUnits="userSpaceOnUse">
<stop stop-color="#FF928E"/>
<stop offset="1" stop-color="#FE7062"/>
</linearGradient>
<linearGradient id="paint6_linear_1_618" x1="547.511" y1="-63.2664" x2="459.393" y2="59.6637" gradientUnits="userSpaceOnUse">
<stop stop-color="#E1473D"/>
<stop offset="1" stop-color="#E9605A"/>
</linearGradient>
<linearGradient id="paint7_linear_1_618" x1="535.276" y1="-72.0362" x2="447.158" y2="50.8938" gradientUnits="userSpaceOnUse">
<stop stop-color="#E1473D"/>
<stop offset="1" stop-color="#E9605A"/>
</linearGradient>
<linearGradient id="paint8_linear_1_618" x1="214.713" y1="561.42" x2="226.217" y2="561.529" gradientUnits="userSpaceOnUse">
<stop stop-color="#FEBBBA"/>
<stop offset="1" stop-color="#FF928E"/>
</linearGradient>
<linearGradient id="paint9_linear_1_618" x1="173.258" y1="560.435" x2="183.19" y2="560.529" gradientUnits="userSpaceOnUse">
<stop stop-color="#FEBBBA"/>
<stop offset="1" stop-color="#FF928E"/>
</linearGradient>
<linearGradient id="paint10_linear_1_618" x1="264.915" y1="261.744" x2="323.689" y2="262.303" gradientUnits="userSpaceOnUse">
<stop stop-color="#FEBBBA"/>
<stop offset="1" stop-color="#FF928E"/>
</linearGradient>
<linearGradient id="paint11_linear_1_618" x1="310.691" y1="252.328" x2="270.4" y2="341.683" gradientUnits="userSpaceOnUse">
<stop stop-color="#FEBBBA"/>
<stop offset="1" stop-color="#FF928E"/>
</linearGradient>
<linearGradient id="paint12_linear_1_618" x1="323.785" y1="222.566" x2="340.482" y2="197.421" gradientUnits="userSpaceOnUse">
<stop stop-color="#FEBBBA"/>
<stop offset="1" stop-color="#FF928E"/>
</linearGradient>
<linearGradient id="paint13_linear_1_618" x1="135.515" y1="343.766" x2="209.892" y2="344.473" gradientUnits="userSpaceOnUse">
<stop stop-color="#FEBBBA"/>
<stop offset="1" stop-color="#FF928E"/>
</linearGradient>
<linearGradient id="paint14_linear_1_618" x1="193.384" y1="264.797" x2="222.792" y2="265.076" gradientUnits="userSpaceOnUse">
<stop stop-color="#FEBBBA"/>
<stop offset="1" stop-color="#FF928E"/>
</linearGradient>
<linearGradient id="paint15_linear_1_618" x1="229.964" y1="246.435" x2="197.819" y2="226.408" gradientUnits="userSpaceOnUse">
<stop stop-color="#FEBBBA"/>
<stop offset="1" stop-color="#FF928E"/>
</linearGradient>
<linearGradient id="paint16_linear_1_618" x1="221.401" y1="253.709" x2="192.48" y2="235.69" gradientUnits="userSpaceOnUse">
<stop stop-color="#FEBBBA"/>
<stop offset="1" stop-color="#FF928E"/>
</linearGradient>
<linearGradient id="paint17_linear_1_618" x1="201.713" y1="341.747" x2="224.966" y2="341.747" gradientUnits="userSpaceOnUse">
<stop stop-color="#FEBBBA"/>
<stop offset="1" stop-color="#FF928E"/>
</linearGradient>
<linearGradient id="paint18_linear_1_618" x1="116.589" y1="566.419" x2="128.854" y2="566.419" gradientUnits="userSpaceOnUse">
<stop stop-color="#FEBBBA"/>
<stop offset="1" stop-color="#FF928E"/>
</linearGradient>
<linearGradient id="paint19_linear_1_618" x1="174.683" y1="567.452" x2="189.326" y2="567.452" gradientUnits="userSpaceOnUse">
<stop stop-color="#FEBBBA"/>
<stop offset="1" stop-color="#FF928E"/>
</linearGradient>
<linearGradient id="paint20_linear_1_618" x1="93.3465" y1="361.108" x2="100.566" y2="342.903" gradientUnits="userSpaceOnUse">
<stop stop-color="#FEBBBA"/>
<stop offset="1" stop-color="#FF928E"/>
</linearGradient>
<linearGradient id="paint21_linear_1_618" x1="98.0295" y1="391.037" x2="238.366" y2="157.143" gradientUnits="userSpaceOnUse">
<stop stop-color="#3CAFC2"/>
<stop offset="1" stop-color="#3CAFC2"/>
</linearGradient>
<linearGradient id="paint22_linear_1_618" x1="155.023" y1="431.908" x2="188.847" y2="431.908" gradientUnits="userSpaceOnUse">
<stop stop-color="#FEBBBA"/>
<stop offset="1" stop-color="#FF928E"/>
</linearGradient>
<linearGradient id="paint23_linear_1_618" x1="115.388" y1="324.084" x2="83.0745" y2="356.314" gradientUnits="userSpaceOnUse">
<stop stop-color="#FEBBBA"/>
<stop offset="1" stop-color="#FF928E"/>
</linearGradient>
<linearGradient id="paint24_linear_1_618" x1="110.163" y1="318.846" x2="77.8499" y2="351.076" gradientUnits="userSpaceOnUse">
<stop stop-color="#FEBBBA"/>
<stop offset="1" stop-color="#FF928E"/>
</linearGradient>
<linearGradient id="paint25_linear_1_618" x1="393.822" y1="379.112" x2="386.603" y2="332.79" gradientUnits="userSpaceOnUse">
<stop stop-color="#FEBBBA"/>
<stop offset="1" stop-color="#FF928E"/>
</linearGradient>
<linearGradient id="paint26_linear_1_618" x1="354.572" y1="330.009" x2="408.696" y2="311.751" gradientUnits="userSpaceOnUse">
<stop stop-color="#FEBBBA"/>
<stop offset="1" stop-color="#FF928E"/>
</linearGradient>
<linearGradient id="paint27_linear_1_618" x1="352.961" y1="325.233" x2="407.084" y2="306.975" gradientUnits="userSpaceOnUse">
<stop stop-color="#FEBBBA"/>
<stop offset="1" stop-color="#FF928E"/>
</linearGradient>
<linearGradient id="paint28_linear_1_618" x1="423.466" y1="431.708" x2="523.928" y2="431.708" gradientUnits="userSpaceOnUse">
<stop stop-color="#FEBBBA"/>
<stop offset="1" stop-color="#FF928E"/>
</linearGradient>
<linearGradient id="paint29_linear_1_618" x1="497.165" y1="577.003" x2="500.809" y2="548.511" gradientUnits="userSpaceOnUse">
<stop stop-color="#FEBBBA"/>
<stop offset="1" stop-color="#FF928E"/>
</linearGradient>
<linearGradient id="paint30_linear_1_618" x1="576.816" y1="586.768" x2="580.367" y2="559.003" gradientUnits="userSpaceOnUse">
<stop stop-color="#FEBBBA"/>
<stop offset="1" stop-color="#FF928E"/>
</linearGradient>
<linearGradient id="paint31_linear_1_618" x1="549.975" y1="404.415" x2="500.202" y2="404.415" gradientUnits="userSpaceOnUse">
<stop stop-color="#FEBBBA"/>
<stop offset="1" stop-color="#FF928E"/>
</linearGradient>
<linearGradient id="paint32_linear_1_618" x1="504.108" y1="342.022" x2="411.16" y2="342.022" gradientUnits="userSpaceOnUse">
<stop stop-color="#FEBBBA"/>
<stop offset="1" stop-color="#FF928E"/>
</linearGradient>
<linearGradient id="paint33_linear_1_618" x1="537.571" y1="289.89" x2="505.223" y2="256.702" gradientUnits="userSpaceOnUse">
<stop stop-color="#FEBBBA"/>
<stop offset="1" stop-color="#FF928E"/>
</linearGradient>
<linearGradient id="paint34_linear_1_618" x1="490.658" y1="235.791" x2="530.988" y2="289.145" gradientUnits="userSpaceOnUse">
<stop stop-color="#FEBBBA"/>
<stop offset="1" stop-color="#FF928E"/>
</linearGradient>
<linearGradient id="paint35_linear_1_618" x1="552.137" y1="84.0537" x2="509.586" y2="207.353" gradientUnits="userSpaceOnUse">
<stop stop-color="#E1473D"/>
<stop offset="1" stop-color="#E9605A"/>
</linearGradient>
<linearGradient id="paint36_linear_1_618" x1="549.726" y1="278.043" x2="517.378" y2="244.855" gradientUnits="userSpaceOnUse">
<stop stop-color="#FEBBBA"/>
<stop offset="1" stop-color="#FF928E"/>
</linearGradient>
<linearGradient id="paint37_linear_1_618" x1="535.288" y1="303.577" x2="516.04" y2="384.418" gradientUnits="userSpaceOnUse">
<stop stop-color="#3CAFC2"/>
<stop offset="1" stop-color="#3CAFC2"/>
</linearGradient>
<clipPath id="clip0_1_618">
<rect width="602" height="601" fill="white"/>
</clipPath>
</defs>
</svg>
