<svg xmlns="http://www.w3.org/2000/svg" xmlns:xlink="http://www.w3.org/1999/xlink" version="1.1" id="Layer_1" x="0px" y="0px" width="120px" height="40px" viewBox="0 0 120 40" style="enable-background:new 0 0 120 40;" xml:space="preserve">
<g id="Cult-of-Mac">
	<g id="Cult_of_Mac_1_">
		<path style="fill:#FFFFFF;" d="M16.744,15.115c-1.339,0-2.392,0.472-3.159,1.414c-0.767,0.941-1.15,2.242-1.15,3.9    c0,1.736,0.369,3.051,1.106,3.941s1.805,1.336,3.202,1.336c0.604,0,1.189-0.06,1.754-0.181c0.566-0.118,1.154-0.271,1.765-0.459    v1.983c-1.118,0.421-2.385,0.632-3.802,0.632c-2.086,0-3.688-0.63-4.806-1.885c-1.118-1.256-1.676-3.051-1.676-5.389    c0-1.471,0.271-2.758,0.814-3.863c0.543-1.103,1.327-1.948,2.354-2.535c1.026-0.588,2.233-0.881,3.617-0.881    c1.456,0,2.801,0.303,4.036,0.91l-0.838,1.926c-0.481-0.225-0.99-0.424-1.525-0.596C17.899,15.201,17.335,15.115,16.744,15.115z"/>
		<path style="fill:#FFFFFF;" d="M29.895,27.488l-0.321-1.403h-0.117c-0.319,0.496-0.772,0.888-1.36,1.172    c-0.588,0.283-1.259,0.427-2.013,0.427c-1.306,0-2.281-0.324-2.924-0.97s-0.965-1.624-0.965-2.935v-6.998h2.31v6.603    c0,0.819,0.169,1.435,0.507,1.845c0.338,0.41,0.868,0.613,1.589,0.613c0.962,0,1.668-0.283,2.12-0.855    c0.452-0.571,0.678-1.527,0.678-2.87v-5.334h2.3v10.707L29.895,27.488L29.895,27.488z"/>
		<path style="fill:#FFFFFF;" d="M36.855,27.488h-2.292V12.424h2.292V27.488z"/>
		<path style="fill:#FFFFFF;" d="M43.747,25.842c0.559,0,1.118-0.086,1.677-0.261v1.714c-0.253,0.109-0.58,0.201-0.979,0.275    c-0.4,0.074-0.814,0.111-1.243,0.111c-2.171,0-3.256-1.137-3.256-3.408v-5.771h-1.472v-1.008l1.579-0.832l0.78-2.266h1.414v2.383    h3.07v1.723h-3.07v5.731c0,0.549,0.138,0.953,0.414,1.215C42.937,25.712,43.299,25.842,43.747,25.842z"/>
		<path style="fill:#FFFFFF;" d="M60.73,22.115c0,1.749-0.453,3.113-1.355,4.096c-0.904,0.98-2.161,1.473-3.772,1.473    c-1.007,0-1.897-0.228-2.671-0.68c-0.773-0.451-1.368-1.1-1.784-1.945c-0.416-0.845-0.624-1.826-0.624-2.942    c0-1.736,0.449-3.092,1.346-4.066c0.897-0.974,2.16-1.463,3.792-1.463c1.56,0,2.794,0.5,3.705,1.497    C60.275,19.08,60.73,20.424,60.73,22.115z M52.883,22.115c0,2.472,0.92,3.707,2.759,3.707c1.819,0,2.729-1.235,2.729-3.707    c0-2.447-0.917-3.67-2.749-3.67c-0.962,0-1.659,0.316-2.09,0.949C53.099,20.027,52.883,20.934,52.883,22.115z"/>
		<path style="fill:#FFFFFF;" d="M68.373,18.504h-2.632v8.984h-2.302v-8.984h-1.773v-1.065l1.773-0.696v-0.697    c0-1.266,0.299-2.203,0.896-2.813c0.598-0.609,1.512-0.914,2.74-0.914c0.806,0,1.598,0.132,2.377,0.397l-0.604,1.723    c-0.564-0.181-1.104-0.271-1.617-0.271c-0.521,0-0.899,0.16-1.139,0.48c-0.234,0.318-0.354,0.798-0.354,1.437v0.698h2.632    L68.373,18.504L68.373,18.504z"/>
		<path style="fill:#FFFFFF;" d="M79.799,27.488L76.45,15.666h-0.078c0.11,1.756-0.618,11.822-0.618,11.822h-2.113l0.783-14.154    h3.285l3.173,11.26h0.058l3.291-11.26h3.295l0.785,14.154h-2.244c0,0-0.662-11.562-0.637-11.802h-0.078l-3.494,11.802H79.799z"/>
		<path style="fill:#FFFFFF;" d="M98.165,27.488l-0.458-1.49h-0.078c-0.52,0.65-1.043,1.095-1.568,1.331    c-0.526,0.235-1.203,0.354-2.026,0.354c-1.062,0-1.886-0.285-2.482-0.854c-0.595-0.568-0.892-1.371-0.892-2.41    c0-1.104,0.413-1.938,1.238-2.499c0.826-0.562,2.084-0.868,3.771-0.919l1.862-0.059v-0.57c0-0.685-0.16-1.196-0.482-1.535    c-0.321-0.339-0.819-0.509-1.495-0.509c-0.553,0-1.084,0.081-1.591,0.242c-0.507,0.161-0.995,0.353-1.462,0.571l-0.74-1.627    c0.584-0.303,1.225-0.533,1.92-0.691c0.695-0.158,1.354-0.238,1.971-0.238c1.371,0,2.404,0.298,3.104,0.892    c0.698,0.595,1.049,1.526,1.049,2.798v7.212H98.165L98.165,27.488z M94.753,25.938c0.832,0,1.5-0.229,2.005-0.69    c0.502-0.461,0.756-1.108,0.756-1.94v-0.931l-1.387,0.06c-1.078,0.039-1.861,0.217-2.354,0.537    c-0.489,0.318-0.734,0.809-0.734,1.467c0,0.478,0.143,0.848,0.429,1.107C93.753,25.809,94.182,25.938,94.753,25.938z"/>
		<path style="fill:#FFFFFF;" d="M106.55,27.684c-1.632,0-2.87-0.475-3.719-1.42s-1.271-2.303-1.271-4.072    c0-1.8,0.441-3.185,1.328-4.151c0.889-0.969,2.172-1.453,3.848-1.453c1.137,0,2.16,0.211,3.07,0.63l-0.693,1.83    c-0.969-0.374-1.768-0.562-2.396-0.562c-1.865,0-2.798,1.229-2.798,3.688c0,1.2,0.231,2.103,0.697,2.706    c0.464,0.604,1.146,0.905,2.042,0.905c1.021,0,1.984-0.252,2.896-0.755v1.984c-0.41,0.239-0.848,0.41-1.312,0.514    C107.777,27.63,107.214,27.684,106.55,27.684z"/>
	</g>
</g>
<g id="Layer_1_1_">
</g>
</svg>