<svg width="467" height="500" viewBox="0 0 467 500" fill="none" xmlns="http://www.w3.org/2000/svg">
<g clip-path="url(#clip0_1_355)">
<path d="M376 355.45L282.31 301.36C274.38 296.78 267.94 284.49 267.94 273.91V12.59C268 1.99999 274.41 -2.86001 282.34 1.71999L376 55.81C384 60.4 390.4 72.69 390.4 83.27V344.59C390.4 355.17 384 360 376 355.45Z" fill="#2A8E9E"/>
<path d="M377.63 360.16L385.06 356.41L377.94 344.2L377.63 360.16Z" fill="#B1B4C4"/>
<path d="M266.52 4.33L273.35 0.75L271.97 10.82L266.52 4.33Z" fill="#B1B4C4"/>
<path d="M370.05 358.44L276.37 304.35C268.43 299.77 262 287.48 262 276.89V15.57C262 5 268.43 0.130002 276.37 4.71L370.05 58.8C377.99 63.38 384.42 75.67 384.42 86.25V347.58C384.42 358.16 378 363 370.05 358.44Z" fill="#616E84"/>
<path d="M383.43 86.92V348.24C383.43 358.82 377 363.68 369.06 359.11L332.32 337.89L320.9 331.3L275.37 305C267.44 300.41 261.01 288.13 261.01 277.54V16.24C261 5.64998 267.44 0.799978 275.37 5.36998L369.06 59.46C377 64.05 383.43 76.33 383.43 86.92Z" fill="#20232D"/>
<path d="M376.67 84.27V338.78C376.67 345.19 372.17 347.78 366.62 344.58L337.33 327.68L334.74 326.18L333.88 325.68L327.55 322L309.23 311.44L301.63 307.05L298.57 305.29L277.81 293.29C272.26 290.08 267.76 282.29 267.76 275.86V21.39C267.76 14.97 272.26 12.39 277.81 15.58L314.39 36.7V36.8C314.537 39.5154 315.322 42.158 316.681 44.5138C318.039 46.8696 319.933 48.8724 322.21 50.36C326.54 52.84 330.05 50.83 330.05 45.84C330.05 45.84 330.05 45.76 330.05 45.73L366.64 66.85C372.17 70.05 376.67 77.85 376.67 84.27Z" fill="white"/>
<path d="M324.326 47.7303C325.483 47.0621 325.481 44.8919 324.321 42.883C323.162 40.8742 321.283 39.7875 320.126 40.4557C318.968 41.124 318.97 43.2942 320.13 45.303C321.29 47.3119 323.168 48.3986 324.326 47.7303Z" fill="#2B303F"/>
<path opacity="0.1" d="M322.22 45.53C321.863 45.2896 321.566 44.9691 321.355 44.5942C321.143 44.2192 321.021 43.8001 321 43.37C321 42.58 321.56 42.25 322.25 42.65C322.611 42.8882 322.911 43.2077 323.126 43.5828C323.342 43.9578 323.466 44.3781 323.49 44.81C323.46 45.6 322.9 45.92 322.22 45.53Z" fill="white"/>
<path d="M387.23 121.3C386.46 121.75 385.84 121.3 385.84 120.3V109.12C385.847 108.6 385.977 108.089 386.218 107.629C386.46 107.169 386.806 106.772 387.23 106.47C387.99 106.03 388.61 106.47 388.61 107.47V118.61C388.61 119.136 388.485 119.654 388.245 120.122C388.005 120.59 387.657 120.993 387.23 121.3Z" fill="#757B89"/>
<path d="M387.23 139.56C386.46 140 385.84 139.56 385.84 138.51V127.37C385.847 126.852 385.977 126.342 386.219 125.883C386.46 125.425 386.807 125.029 387.23 124.73C387.99 124.29 388.61 124.73 388.61 125.73V136.88C388.609 137.404 388.483 137.92 388.243 138.386C388.003 138.852 387.656 139.254 387.23 139.56Z" fill="#757B89"/>
<path d="M293.25 43.29C285.08 38.57 278.43 42.41 278.43 51.85C278.456 54.478 278.891 57.086 279.72 59.58C283.43 71.09 290.54 85.08 292.63 89.1C292.771 89.3816 292.985 89.62 293.25 89.79C293.343 89.8532 293.453 89.887 293.565 89.887C293.677 89.887 293.787 89.8532 293.88 89.79C295.97 88.19 303.08 82.4 306.79 75.18C307.697 73.249 308.138 71.1325 308.08 69C308.08 59.53 301.43 48 293.25 43.29ZM293.25 69.29C291.017 67.8304 289.158 65.8679 287.821 63.56C286.484 61.252 285.706 58.6628 285.55 56C285.55 51.1 289.01 49.1 293.25 51.55C295.494 53.0039 297.365 54.9652 298.711 57.2756C300.058 59.586 300.842 62.1807 301 64.85C301 69.76 297.5 71.75 293.25 69.3V69.29Z" fill="#DADCE5"/>
<path d="M358.6 233.07L285.6 190.92C281.6 188.64 278.44 182.51 278.44 177.24V126.54C278.44 121.27 281.64 118.85 285.6 121.13L358.6 163.29C362.6 165.57 365.76 171.69 365.76 176.97V227.66C365.76 232.93 362.56 235.36 358.6 233.07Z" fill="#E9EAF2"/>
<path d="M362.18 92.83L323.18 70.31C321.18 69.17 319.6 66.11 319.6 63.47V63.26C319.6 60.63 321.2 59.42 323.18 60.56L362.18 83.08C364.18 84.22 365.76 87.28 365.76 89.92V90.13C365.76 92.76 364.16 94 362.18 92.83Z" fill="#E9EAF2"/>
<path d="M362.18 111.59L323.18 89.06C321.18 87.92 319.6 84.86 319.6 82.23V82C319.6 79.36 321.2 78.15 323.18 79.29L362.18 101.82C364.18 102.96 365.76 106.02 365.76 108.65V108.86C365.76 111.52 364.16 112.73 362.18 111.59Z" fill="#E9EAF2"/>
<path d="M362.18 131.42L323.18 108.9C321.18 107.76 319.6 104.69 319.6 102.06V101.85C319.6 99.21 321.2 98 323.18 99.14L362.18 121.67C364.18 122.81 365.76 125.87 365.76 128.51V128.72C365.76 131.35 364.16 132.56 362.18 131.42Z" fill="#E9EAF2"/>
<path d="M362.18 151.25L282 105C280 103.86 278.42 100.8 278.42 98.17V97.96C278.42 95.32 280.02 94.11 282 95.25L362.17 141.54C364.17 142.68 365.75 145.74 365.75 148.38V148.59C365.76 151.18 364.16 152.39 362.18 151.25Z" fill="#E9EAF2"/>
<path d="M362.18 257.2L282 210.91C280 209.77 278.42 206.71 278.42 204.07V203.86C278.42 201.23 280.02 200.02 282 201.16L362.17 247.45C364.17 248.59 365.75 251.65 365.75 254.29V254.49C365.76 257.13 364.16 258.34 362.18 257.2Z" fill="#E9EAF2"/>
<path d="M362.18 278.6L282 232.31C280 231.17 278.42 228.11 278.42 225.47V225.26C278.42 222.63 280.02 221.41 282 222.56L362.17 268.84C364.17 269.99 365.75 273.05 365.75 275.68V275.89C365.76 278.53 364.16 279.74 362.18 278.6Z" fill="#E9EAF2"/>
<path d="M362.18 300L282 253.71C280 252.56 278.42 249.5 278.42 246.87V246.66C278.42 244.02 280.02 242.81 282 243.95L362.17 290.24C364.17 291.38 365.75 294.44 365.75 297.08V297.29C365.76 299.92 364.16 301.14 362.18 300Z" fill="#E9EAF2"/>
<path d="M327.17 301.18L282.9 275.62C280.9 274.48 279.32 271.42 279.32 268.78V268.57C279.32 265.94 280.93 264.72 282.9 265.87L327.17 291.42C329.17 292.56 330.75 295.63 330.75 298.26V298.47C330.75 301.1 329.14 302.32 327.17 301.18Z" fill="#E9EAF2"/>
<path d="M420.24 380.43L374.13 353.81L420.24 327.19L466.35 353.81L420.24 380.43Z" fill="#EFDA86"/>
<path d="M463.24 408.22L420.24 433.05V383.4L463.24 358.58V408.22Z" fill="#D1B66B"/>
<path d="M420.24 433.05L377.25 408.22V358.58L420.24 383.4V433.05Z" fill="#E2C979"/>
<path opacity="0.1" d="M377.25 358.58V371.57L420.24 396.11V383.46L377.25 358.58Z" fill="black"/>
<path opacity="0.1" d="M463.24 358.58V372.5L420.25 396.11L420.24 383.46L463.24 358.58Z" fill="black"/>
<path d="M374.13 353.81V367.58L420.24 393.84V380.43L374.13 353.81Z" fill="#E2C979"/>
<path d="M420.24 393.84L466.35 368.65V353.81L420.24 380.43V393.84Z" fill="#D1B66B"/>
<path d="M365.16 411.82L319.05 385.2L365.16 358.58L411.27 385.2L365.16 411.82Z" fill="#EFDA86"/>
<path d="M408.15 439.62L365.16 464.44V414.8L408.15 389.98V439.62Z" fill="#D1B66B"/>
<path d="M365.16 464.44L322.17 439.62V389.98L365.16 414.8V464.44Z" fill="#E2C979"/>
<path opacity="0.1" d="M322.17 389.98V402.97L365.16 427.5V414.85L322.17 389.98Z" fill="black"/>
<path opacity="0.1" d="M408.15 389.98V403.89L365.16 427.5V414.85L408.15 389.98Z" fill="black"/>
<path d="M319.05 385.2V398.97L365.16 425.23V411.82L319.05 385.2Z" fill="#E2C979"/>
<path d="M365.16 425.23L411.27 400.05V385.2L365.16 411.82V425.23Z" fill="#D1B66B"/>
<path opacity="0.05" d="M364.95 399.39L342.62 386.2L366.8 372.24L389.13 385.43L364.95 399.39Z" fill="black"/>
<path d="M367.85 370.17L343.66 356.21L367.85 342.24L392.03 356.21L367.85 370.17Z" fill="#EFDA86"/>
<path d="M390.39 384.75L367.85 397.76V371.73L390.39 358.71V384.75Z" fill="#D1B66B"/>
<path d="M367.85 397.76L345.3 384.75V358.71L367.85 371.73V397.76Z" fill="#E2C979"/>
<path opacity="0.1" d="M345.3 358.71V365.52L367.85 378.39V371.75L345.3 358.71Z" fill="black"/>
<path opacity="0.1" d="M390.39 358.71V366.01L367.85 378.39V371.75L390.39 358.71Z" fill="black"/>
<path d="M343.66 356.21V363.43L367.85 377.2V370.17L343.66 356.21Z" fill="#E2C979"/>
<path d="M367.85 377.2L392.03 363.99V356.21L367.85 370.17V377.2Z" fill="#D1B66B"/>
<path opacity="0.4" d="M327.1 500L292.69 480.04L329.56 458.75L363.97 478.71L327.1 500Z" fill="#D6D8E5"/>
<path d="M330.97 455.67L294.1 434.38L330.97 413.09L367.85 434.38L330.97 455.67Z" fill="#EFDA86"/>
<path d="M365.35 477.89L330.97 497.75V458.05L365.35 438.19V477.89Z" fill="#D1B66B"/>
<path d="M330.97 497.75L296.59 477.89V438.19L330.97 458.05V497.75Z" fill="#E2C979"/>
<path opacity="0.1" d="M296.59 438.19V448.58L330.97 468.2V458.09L296.59 438.19Z" fill="black"/>
<path opacity="0.1" d="M365.35 438.19V449.32L330.97 468.2V458.09L365.35 438.19Z" fill="black"/>
<path d="M294.1 434.38V445.39L330.97 466.39V455.67L294.1 434.38Z" fill="#E2C979"/>
<path d="M330.97 466.39L367.85 446.25V434.38L330.97 455.67V466.39Z" fill="#D1B66B"/>
<path opacity="0.4" d="M75.52 294.93L36.65 272.49L91.57 241.55L130.44 263.99L75.52 294.93Z" fill="#D6D8E5"/>
<path d="M77.77 246.6L38.9 224.16L93.82 193.22L132.69 215.66L77.77 246.6Z" fill="#EFDA86"/>
<path d="M130.06 261.53L77.77 290.95V249.1L130.06 219.68V261.53Z" fill="#D1B66B"/>
<path d="M77.77 290.95L41.53 270.03V228.18L77.77 249.1V290.95Z" fill="#E2C979"/>
<path opacity="0.1" d="M41.53 228.18V239.13L77.77 259.81V249.15L41.53 228.18Z" fill="black"/>
<path opacity="0.1" d="M130.06 219.68V231.42L77.77 259.81V249.15L130.06 219.68Z" fill="black"/>
<path d="M38.9 224.16V235.76L77.77 257.9V246.6L38.9 224.16Z" fill="#E2C979"/>
<path d="M77.77 257.9L132.69 228.18V215.66L77.77 246.6V257.9Z" fill="#D1B66B"/>
<path opacity="0.4" d="M20.81 323.36L3.25 313.54L29.64 298.68L47.2 308.5L20.81 323.36Z" fill="#D6D8E5"/>
<path d="M23.19 300.72L4.51001 289.94L30.9 275.07L49.57 285.85L23.19 300.72Z" fill="#EFDA86"/>
<path d="M48.31 307.89L23.19 322.02V301.92L48.31 287.79V307.89Z" fill="#D1B66B"/>
<path d="M23.19 322.02L5.77997 311.97V291.87L23.19 301.92V322.02Z" fill="#E2C979"/>
<path opacity="0.1" d="M5.77997 291.87V297.13L23.19 307.06V301.94L5.77997 291.87Z" fill="black"/>
<path opacity="0.1" d="M48.31 287.79V293.42L23.19 307.06V301.94L48.31 287.79Z" fill="black"/>
<path d="M4.51001 289.94V295.51L23.19 306.15V300.72L4.51001 289.94Z" fill="#E2C979"/>
<path d="M23.19 306.15L49.57 291.87V285.85L23.19 300.72V306.15Z" fill="#D1B66B"/>
<path opacity="0.4" d="M155.59 328.27L101.9 297.23L140.77 274.79L194.46 305.83L155.59 328.27Z" fill="#D6D8E5"/>
<path d="M160.65 281.06L106.96 250.02L145.83 227.58L199.52 258.62L160.65 281.06Z" fill="#EFDA86"/>
<path d="M196.89 304.49L160.65 325.41V283.57L196.89 262.64V304.49Z" fill="#D1B66B"/>
<path d="M160.65 325.41L109.59 295.89V254.05L160.65 283.57V325.41Z" fill="#E2C979"/>
<path opacity="0.1" d="M109.59 254.05V265L160.65 294.27V283.61L109.59 254.05Z" fill="black"/>
<path opacity="0.1" d="M196.89 262.64V274.37L160.65 294.27V283.61L196.89 262.64Z" fill="black"/>
<path d="M106.96 250.02V261.63L160.65 292.36V281.06L106.96 250.02Z" fill="#E2C979"/>
<path d="M160.65 292.36L199.52 271.13V258.62L160.65 281.06V292.36Z" fill="#D1B66B"/>
<path opacity="0.4" d="M417.81 478.71L385.21 459.97L409.93 445.69L442.52 464.44L417.81 478.71Z" fill="#D6D8E5"/>
<path d="M421.6 448.23L387.46 428.49L412.18 414.22L446.32 433.96L421.6 448.23Z" fill="#EFDA86"/>
<path d="M444.65 463.13L421.6 476.44V449.82L444.65 436.52V463.13Z" fill="#D1B66B"/>
<path d="M421.6 476.44L389.13 457.66V431.05L421.6 449.82V476.44Z" fill="#E2C979"/>
<path opacity="0.1" d="M389.13 431.05V438.02L421.6 456.63V449.85L389.13 431.05Z" fill="black"/>
<path opacity="0.1" d="M444.65 436.52V443.98L421.6 456.63V449.85L444.65 436.52Z" fill="black"/>
<path d="M387.46 428.49V435.87L421.6 455.42V448.23L387.46 428.49Z" fill="#E2C979"/>
<path d="M421.6 455.42L446.32 441.92V433.96L421.6 448.23V455.42Z" fill="#D1B66B"/>
<path d="M91.19 201.91L59.65 183.69L91.19 165.49L122.73 183.69L91.19 201.91Z" fill="#EFDA86"/>
<path opacity="0.05" d="M87.73 239.75L57.89 223.04L89.44 204.83L119.27 221.54L87.73 239.75Z" fill="black"/>
<path d="M120.6 220.92L91.19 237.9V203.94L120.6 186.96V220.92Z" fill="#D1B66B"/>
<path d="M91.19 237.9L61.78 220.92V186.96L91.19 203.94V237.9Z" fill="#E2C979"/>
<path opacity="0.1" d="M61.78 186.96V195.85L91.19 212.63V203.97L61.78 186.96Z" fill="black"/>
<path opacity="0.1" d="M120.6 186.96V196.48L91.19 212.63V203.97L120.6 186.96Z" fill="black"/>
<path d="M59.65 183.69V193.11L91.19 211.08V201.91L59.65 183.69Z" fill="#E2C979"/>
<path d="M91.19 211.08L122.73 193.85V183.69L91.19 201.91V211.08Z" fill="#D1B66B"/>
<path opacity="0.4" d="M81.3 362.13L41.19 339.11L84.21 314.27L124.32 337.3L81.3 362.13Z" fill="#D6D8E5"/>
<path d="M85.8 310.43L42.77 285.59L85.8 260.75L128.82 285.59L85.8 310.43Z" fill="#EFDA86"/>
<path d="M125.91 336.36L85.8 359.52V313.2L125.91 290.04V336.36Z" fill="#D1B66B"/>
<path d="M85.8 359.52L45.68 336.36V290.04L85.8 313.2V359.52Z" fill="#E2C979"/>
<path opacity="0.1" d="M45.68 290.04V302.16L85.8 325.05V313.25L45.68 290.04Z" fill="black"/>
<path opacity="0.1" d="M125.91 290.04V303.03L85.8 325.05V313.25L125.91 290.04Z" fill="black"/>
<path d="M42.77 285.59V298.43L85.8 322.94V310.43L42.77 285.59Z" fill="#E2C979"/>
<path d="M85.8 322.94L128.82 299.44V285.59L85.8 310.43V322.94Z" fill="#D1B66B"/>
<path d="M160.93 200.12C162.62 203.98 167.36 222.12 171.38 226.88C175.4 231.64 195.38 232.07 195.38 232.07L192.12 221.74L179.32 218.48L172.73 202.05L160.93 200.12Z" fill="#FFCEA9"/>
<path d="M187.24 215.91C179.62 217.83 177.83 213.02 176.82 209.04C174.4 199.41 172.88 219.84 176.07 222.41C180 225.59 181.27 228.32 190.23 226.09C194.05 225.09 198.23 222.85 205.48 219.48C207.42 218.58 208.93 217.97 212.65 216.24C216.37 214.51 220.25 211.61 222.2 208.78C224.15 205.95 224.42 204.63 224.02 203.98C223.52 203.17 222.63 203.35 221.59 204.54C220.082 206.547 218.226 208.268 216.11 209.62C216.11 209.62 218.51 207.13 219.82 205.51C220.988 204.077 221.957 202.493 222.7 200.8C223.39 199.15 221.97 196.92 220.89 198.09C219.81 199.26 219.3 200.46 217.33 202.83C216.291 204.086 215.106 205.214 213.8 206.19C215.021 204.536 216.108 202.787 217.05 200.96C217.889 199.529 218.302 197.888 218.24 196.23C218.18 195.36 216.97 194.34 215.82 195.97C214.82 197.44 214.13 199.74 211.73 202.23C209.99 204.04 208.51 205.07 208.47 204.57C208.43 204.07 209.52 203.08 210.14 200.98C210.76 198.88 210.14 196.65 208.98 196.41C207.82 196.17 208.04 196.23 207.1 198.2C206.16 200.17 204.74 201.62 203.64 204.49C203.051 206.517 201.976 208.371 200.51 209.89C198.63 211.88 194.49 214.08 187.24 215.91Z" fill="#FFCEA9"/>
<path opacity="0.4" d="M196.46 406.17C220.181 406.17 239.41 395.067 239.41 381.37C239.41 367.673 220.181 356.57 196.46 356.57C172.739 356.57 153.51 367.673 153.51 381.37C153.51 395.067 172.739 406.17 196.46 406.17Z" fill="#D6D8E5"/>
<path d="M176.07 177.12C174.414 176.35 172.533 176.216 170.785 176.744C169.037 177.271 167.544 178.423 166.59 179.98C164.08 184.14 161.47 198.38 161.24 200.81C161.24 200.81 164.75 205.67 170.03 204.86L176.07 177.12Z" fill="#EDEDED"/>
<path d="M195.53 378.2C199.231 379.21 203.18 378.729 206.53 376.86C209.18 376.94 223.6 370.77 225.53 375.95C227.25 380.49 221 384.69 217.67 385.5C210.38 387.27 205 390.9 202.07 391.5C199.89 391.96 197.07 392.27 195.33 390.55C193.31 388.51 193.49 380.9 195.53 378.2Z" fill="#2B2A30"/>
<path d="M202.13 390.26C205.06 389.64 210.44 386.01 217.73 384.26C220.52 383.59 225.34 380.53 225.83 376.88C226.47 381.06 220.83 384.77 217.73 385.52C210.44 387.29 205.06 390.92 202.13 391.52C199.95 391.98 197.13 392.29 195.39 390.57C194.94 390.073 194.614 389.477 194.44 388.83C197 390.93 200 390.72 202.13 390.26Z" fill="#BF4B4B"/>
<path d="M172.14 367.69C175.839 368.709 179.791 368.231 183.14 366.36C185.8 366.44 200.21 360.27 202.14 365.45C203.85 369.99 197.61 374.19 194.27 375C186.99 376.77 181.6 380.4 178.68 381C176.5 381.46 173.68 381.77 171.94 380.05C169.93 378 170.11 370.4 172.14 367.69Z" fill="#2B2A30"/>
<path d="M178.75 379.76C181.67 379.14 187.06 375.51 194.34 373.76C197.14 373.09 201.95 370.03 202.44 366.38C203.09 370.56 197.44 374.27 194.34 375.02C187.06 376.79 181.67 380.42 178.75 381.02C176.57 381.48 173.75 381.79 172.01 380.07C171.546 379.576 171.203 378.98 171.01 378.33C173.59 380.43 176.57 380.22 178.75 379.76Z" fill="#BF4B4B"/>
<path d="M171.86 328.52C172.48 323.165 173.595 317.879 175.19 312.73C175.19 312.73 174.19 299.1 173.7 286.18C173.13 271.52 168.05 258.62 172.06 246.92L217.3 257C217.3 257 214.56 315.45 213.96 322.53C213.632 328.036 212.964 333.516 211.96 338.94C209.89 350.29 206.54 377.28 206.54 377.28C201.75 380.06 195.47 378.52 195.47 378.52C195.47 378.52 195.82 344.39 196.13 336.21C196.5 326.21 196.81 326.99 196.81 326.99L195.31 302.12L194.31 289.75C194.31 289.75 193.06 298.83 192.25 306.94C191.54 314.01 189.83 320.4 187.92 333.57C186.27 344.99 183.58 367.93 183.58 367.93C178.8 370.71 172.3 368.4 172.3 368.4C172.3 368.4 170.56 338.43 171.86 328.52Z" fill="#2A8E9E"/>
<path d="M178.47 177.36C181.91 177.53 184.47 178.42 184.91 177.36C185.277 175.584 185.537 173.787 185.69 171.98C185.29 170.98 184.95 169.91 184.95 169.91C180.63 167.24 179.26 162.57 178.69 157.12C177.69 147.81 182.75 139.67 192.06 138.69C200.81 137.78 207.24 143.93 208.96 152.37C209.89 156.54 211.73 164.42 209.24 171.28C207.85 175.11 206.05 178.15 204.24 178.75C202.506 178.701 200.776 178.547 199.06 178.29C199.06 178.29 198.59 180.87 198.27 182.53C197.95 184.19 198.08 185.07 201.38 187.1C204.68 189.13 196.38 193.32 190.97 192.91C185.56 192.5 179.44 189.22 177.77 185.72C175.94 181.86 176.1 177.25 178.47 177.36Z" fill="#FFCEA9"/>
<path d="M183.45 177.88C182.5 180.26 184.92 183.17 191.39 185.2C197.86 187.23 198.44 184.62 198.44 184.62C198.44 184.62 207.93 188.94 211.02 191.1C214.91 193.81 216.63 201.67 217.15 214.93C217.76 230.28 217.81 253.05 217.3 256.98C217.3 256.98 210.04 264.21 200.75 263.45C191.46 262.69 175.84 254.45 172.05 248.12C172.15 234.66 173.72 232.47 171.54 224.72C166.54 206.97 163.93 199.72 166.35 187.91C168.35 178.19 171.15 176.98 174.99 177.08C177.822 177.193 180.647 177.46 183.45 177.88Z" fill="#F4F4F4"/>
<path d="M231.75 227.62C224.13 229.54 222.34 224.74 221.34 220.76C218.91 211.12 217.6 202.42 215.8 196.95C213.67 190.5 211.44 189.47 208.3 188.21C204.62 186.74 201.46 189.85 202.68 198.06C204.13 207.77 206.03 214.59 209.68 226.06C210.62 229.06 212.75 234.39 215.94 236.97C219.87 240.15 225.79 239.97 234.75 237.78C238.58 236.78 242.75 234.55 250 231.17C251.94 230.27 253.45 229.67 257.17 227.93C260.89 226.19 264.77 223.3 266.73 220.48C268.69 217.66 268.94 216.32 268.54 215.68C268.04 214.87 267.15 215.05 266.11 216.24C264.601 218.244 262.745 219.961 260.63 221.31C260.63 221.31 263.03 218.82 264.34 217.21C265.509 215.778 266.478 214.193 267.22 212.5C267.91 210.85 266.49 208.61 265.41 209.78C264.33 210.95 263.82 212.16 261.85 214.52C260.809 215.778 259.625 216.909 258.32 217.89C259.54 216.232 260.627 214.48 261.57 212.65C262.41 211.219 262.823 209.578 262.76 207.92C262.7 207.06 261.49 206.04 260.35 207.67C259.35 209.13 258.65 211.43 256.25 213.92C254.51 215.73 253.03 216.77 252.99 216.27C252.95 215.77 254.04 214.77 254.66 212.67C255.28 210.57 254.66 208.34 253.5 208.1C252.34 207.86 252.56 207.92 251.63 209.89C250.7 211.86 249.26 213.31 248.16 216.19C247.567 218.225 246.482 220.084 245 221.6C243.14 223.59 239 225.8 231.75 227.62Z" fill="#FFCEA9"/>
<path d="M205.48 186.9C210.57 186.15 214.17 188.44 216.42 196.15C218.67 203.86 220.23 210.15 220.23 210.15C218.219 213.059 215.17 215.088 211.71 215.82C205.62 217.29 203.43 214.38 203.43 214.38C203.43 214.38 201.74 206.3 200.69 200.8C199.64 195.3 199.18 187.83 205.48 186.9Z" fill="#EDEDED"/>
<path d="M208.67 151.18C208.67 151.18 216.67 138.96 199.28 136.47C186.71 134.67 178.64 142.74 177.71 151.47C176.81 159.84 181.97 168.53 185.71 171.98C187.53 172.63 191.44 172.98 196.57 170.67C196.78 168.39 196.86 166.099 196.81 163.81C196.81 163.81 190.67 151 208.67 151.18Z" fill="#2B2A30"/>
<path d="M337.33 327.68L334.74 326.18L333.88 325.68C334.685 325.505 335.438 325.146 336.08 324.63C336.35 324.6 336.88 326 337.33 327.68Z" fill="#38226D"/>
<path d="M336.26 325.44C335.792 325.76 335.28 326.009 334.74 326.18L327.55 322C326.07 315.09 322.74 299.47 320.96 291.37C318.64 280.8 318.24 274.7 317.04 268.15C315.59 260.22 312.45 223.21 312.45 223.21L311.21 223.28L307.87 265.05C308.894 268.133 309.598 271.313 309.97 274.54C310.69 279.89 309.69 302.1 309.23 311.43L301.63 307.03L298.57 305.27C296.12 291.54 292 267.83 292 263C292 258.44 292.79 198.26 292.79 198.26L336.24 209.4C336.1 214.12 334.62 234.61 333.97 245.47C333.32 256.33 333.16 269.62 333.16 269.62C333.16 269.62 335.03 277.52 336.24 286.82C337.45 296.12 336.26 325.44 336.26 325.44Z" fill="#2A8E9E"/>
<path d="M325 118.15C325 118.15 324.47 128.44 324.7 129.35C324.93 130.26 329.42 133.28 330.7 134.35C331.98 135.42 323.58 143.74 319.49 145.62C315.4 147.5 302.41 142.55 302.18 136.17C301.95 129.79 304.4 124.45 306.39 124.17C308.38 123.89 325 118.15 325 118.15Z" fill="#FFCEA9"/>
<path d="M296.76 137.24C296.16 132.71 299.14 128.4 296.24 124.78C286.08 134.78 287.38 161.1 285.07 177.96C277.52 185.85 262.36 193.62 258.07 195.54C257.29 195.9 256.61 196.28 256.77 197.11C257.38 200.4 258.33 201.65 260.3 204.83C270.3 200.5 277.57 198.02 290.1 186.11C291.287 184.822 292.352 183.426 293.28 181.94C296.89 171.19 297.79 145.09 296.76 137.24Z" fill="#FFCEA9"/>
<path d="M326.1 131.13C326.1 131.13 318.63 142.26 308.2 143.3C304.92 140.07 304.62 128.54 309.2 124.86C309.2 124.86 305.02 121.48 302.2 122.14C299.129 124.003 296.843 126.922 295.77 130.35C293.086 137.997 291.809 146.068 292 154.17C292.18 165.09 292 198.46 292 198.46C292 198.46 293.47 205.52 302.89 210.77C312.31 216.02 319.32 216.53 325.71 215.04C330.98 213.81 335.34 211.95 337.16 208.12C336.69 200.47 333.27 180.49 334.55 170.87C335.83 161.25 337.86 154.06 338.38 146.28C338.9 138.5 337.38 138.65 333.45 135.88C331.117 134.123 328.66 132.536 326.1 131.13Z" fill="#F4F4F4"/>
<path d="M301.65 102.8C302.88 94.8 308.65 88.8 316.88 89.21C320.199 89.3719 323.383 90.5734 325.981 92.6445C328.58 94.7157 330.461 97.5515 331.359 100.751C332.257 103.95 332.126 107.35 330.985 110.471C329.844 113.592 327.75 116.275 325 118.14C324.709 119.352 324.279 120.526 323.72 121.64C320.81 125.05 311.99 127.15 309.46 126.79C306.21 126.32 304.46 124.97 302.9 121.41C300.12 115.14 301 106.75 301.65 102.8Z" fill="#FFCEA9"/>
<path d="M325 118.14L324.24 111.14C324.24 111.14 329.94 96.4 316.48 99.23C307.6 101.1 305.37 101.91 302.66 95.95C299.95 89.99 309.49 84.63 320.81 86.12C324.708 86.5302 328.309 88.3886 330.902 91.3276C333.494 94.2665 334.889 98.0717 334.81 101.99C334.47 106.41 333.3 115.28 325 118.14Z" fill="#3A2C6D"/>
<path d="M287.1 180.41L255.56 162.2L287.1 143.99L318.64 162.2L287.1 180.41Z" fill="#EFDA86"/>
<path d="M316.51 199.43L287.1 216.41V182.45L316.51 165.47V199.43Z" fill="#D1B66B"/>
<path d="M287.1 216.41L257.69 199.43V165.47L287.1 182.45V216.41Z" fill="#E2C979"/>
<path opacity="0.1" d="M257.69 165.47V174.35L287.1 191.14V182.48L257.69 165.47Z" fill="black"/>
<path opacity="0.1" d="M316.51 165.47V174.99L287.1 191.14V182.48L316.51 165.47Z" fill="black"/>
<path d="M255.56 162.2V171.62L287.1 189.58V180.41L255.56 162.2Z" fill="#E2C979"/>
<path d="M287.1 189.58L318.64 172.36V162.2L287.1 180.41V189.58Z" fill="#D1B66B"/>
<path d="M340.71 141.69C336.8 140.57 339.78 141.5 336.8 140.57C326.64 150.57 327.91 167.57 325.6 184.48C320 193.75 299.18 206.32 299.18 206.32C298.92 208.11 299.55 208.65 301.8 212.32C311.8 207.99 320.23 204.26 332.8 192.32C333.29 191.85 334.02 191.73 334.23 191.08C337.77 180.32 341.74 149.53 340.71 141.69Z" fill="#FFCEA9"/>
<path d="M304.42 206.69C303.92 204.93 302.64 205.36 301.21 205.81C299.648 206.436 297.935 206.582 296.29 206.23C294.93 205.81 293.94 204.63 292.78 203.85C292.106 203.454 291.342 203.238 290.56 203.22C290.63 203.67 291.32 206.3 291.32 206.3C291.32 206.3 284.05 206.37 283.32 206.22C283.07 206.169 282.81 206.198 282.577 206.303C282.344 206.408 282.15 206.583 282.022 206.804C281.894 207.024 281.838 207.28 281.863 207.534C281.888 207.788 281.992 208.028 282.16 208.22C282 208.22 281.83 208.22 281.67 208.15C280.18 207.82 279.55 210.15 281.04 210.44C281.44 210.53 281.85 210.57 282.26 210.62C281.26 211 281.04 212.62 282.26 212.84L282.64 212.9C282.807 212.97 282.989 212.997 283.17 212.98H283.4C283.367 213.154 283.37 213.332 283.408 213.505C283.446 213.678 283.518 213.841 283.621 213.985C283.724 214.129 283.855 214.25 284.006 214.342C284.157 214.434 284.325 214.495 284.5 214.52C288.05 214.98 293.28 216.4 296.5 213.47C298.729 213.255 300.906 212.666 302.94 211.73C305 210.79 305 208.8 304.42 206.69Z" fill="#FFCEA9"/>
<path d="M268.1 198.89C267.93 198.89 267.77 198.89 267.6 198.89C267.808 198.74 267.963 198.529 268.045 198.286C268.126 198.043 268.128 197.781 268.052 197.536C267.976 197.292 267.824 197.077 267.619 196.924C267.414 196.77 267.166 196.685 266.91 196.68C266.15 196.68 258.66 195.12 258.66 195.12L257.76 192.04C257.71 191.87 256.46 192.65 256.42 192.69C255.787 193.104 255.256 193.656 254.865 194.303C254.473 194.95 254.233 195.677 254.16 196.43C254.118 197.488 254.287 198.543 254.656 199.536C255.025 200.528 255.587 201.437 256.31 202.21C257.654 203.569 259.47 204.357 261.38 204.41C262.29 204.47 263.16 204.51 263.95 204.57C264.126 204.584 264.303 204.561 264.47 204.504C264.637 204.446 264.79 204.355 264.92 204.236C265.051 204.117 265.155 203.973 265.227 203.812C265.299 203.651 265.338 203.476 265.34 203.3H265.57C265.751 203.337 265.939 203.337 266.12 203.3H266.5C267.77 203.3 267.87 201.72 267 201.14C267.41 201.14 267.82 201.22 268.23 201.22C269.76 201.25 269.63 198.88 268.1 198.89Z" fill="#FFCEA9"/>
<path d="M292.52 144C292.52 144 288.69 143.81 287.1 141.57C287.39 137.75 292.28 123.23 302.1 122.15C299.419 124.025 297.295 126.588 295.95 129.57C294.19 133.94 292.52 144 292.52 144Z" fill="#EDEDED"/>
<path d="M342.48 163.18C342.48 163.18 332.68 166.56 325.78 160.88C325.03 159.58 329.78 142.88 329.78 142.88C329.78 142.88 333.89 134.36 340.33 137.75C346.77 141.14 342.48 163.18 342.48 163.18Z" fill="#EDEDED"/>
<path opacity="0.4" d="M27.04 387.04C38.5385 387.04 47.86 381.658 47.86 375.02C47.86 368.382 38.5385 363 27.04 363C15.5414 363 6.21997 368.382 6.21997 375.02C6.21997 381.658 15.5414 387.04 27.04 387.04Z" fill="#D6D8E5"/>
<path d="M30.01 384.81C41.5086 384.81 50.83 379.429 50.83 372.79C50.83 366.152 41.5086 360.77 30.01 360.77C18.5114 360.77 9.19 366.152 9.19 372.79C9.19 379.429 18.5114 384.81 30.01 384.81Z" fill="#D6D8E5"/>
<path d="M2.14001 331.68L9.42001 373.63H50.78L57.89 331.99L2.14001 331.68Z" fill="#D6D8E5"/>
<path d="M30.01 347.27C45.4187 347.27 57.91 340.057 57.91 331.16C57.91 322.263 45.4187 315.05 30.01 315.05C14.6012 315.05 2.10999 322.263 2.10999 331.16C2.10999 340.057 14.6012 347.27 30.01 347.27Z" fill="#E4E6EF"/>
<path d="M30 343.72C23.16 343.72 16.79 342.21 12 339.48C7.92998 337.13 5.59998 334.1 5.59998 331.16C5.59998 328.22 7.92998 325.16 12 322.85C16.74 320.11 23.11 318.61 30 318.61C36.89 318.61 43.22 320.11 48 322.85C52.06 325.2 54.39 328.23 54.39 331.16C54.39 334.09 52.06 337.16 48 339.48C43.23 342.21 36.85 343.72 30 343.72Z" fill="#28221C"/>
<path d="M42 318.47C42 318.47 41.45 284.47 30 272.47C16 284.79 18.22 318.55 18.22 318.55L30.22 340.23C31.78 340.29 42 318.47 42 318.47Z" fill="#50B4C4"/>
<path d="M30.18 340.21C30.18 340.21 23.82 299.47 0.17999 284.21C0.16999 284.16 -4.06001 340 30.18 340.21Z" fill="#2A8E9E"/>
<path d="M30 340.21C30 340.21 35.74 300.21 58.79 285.85C58.8 285.85 64.25 340 30 340.21Z" fill="#2A8E9E"/>
</g>
<defs>
<clipPath id="clip0_1_355">
<rect width="466.35" height="500" fill="white"/>
</clipPath>
</defs>
</svg>
