<svg width="322" height="278" viewBox="0 0 322 278" fill="none" xmlns="http://www.w3.org/2000/svg">
<g clip-path="url(#clip0_1_2)">
<path d="M301.793 186.639C269.882 248.475 185.648 275.035 119.649 270.507C101.629 269.27 65.372 266.783 37.0618 244.588C-17.3055 201.964 -8.93252 112.868 43.1128 60.4136C49.8151 53.6585 96.2077 8.40028 168.502 9.00602C221.432 9.44963 258.583 34.2373 263.1 37.3255C268.807 41.2265 281.394 50.4967 292.737 65.2033C319.391 99.7586 321.734 147.998 301.793 186.639Z" fill="url(#paint0_linear_1_2)"/>
<path d="M280.593 8.71482C282.557 5.59857 287.386 7.35474 286.896 11.0057C284.37 29.8241 281.369 62.6713 287.288 84.139C295.99 115.704 311.633 208.553 223.405 232.058C223.405 232.058 231.808 86.098 280.593 8.71482Z" fill="#7DCDDA"/>
<path d="M273.143 47.7254C273.143 47.7254 273.061 47.9012 272.926 48.2386C272.79 48.5753 272.593 49.0885 272.365 49.7632C271.895 51.1089 271.313 53.1238 270.726 55.7194C270.145 58.3157 269.564 61.4984 269.161 65.1813C268.755 68.8612 268.446 73.0317 268.432 77.5891C268.363 79.8656 268.499 82.2399 268.529 84.6929C268.581 85.9195 268.668 87.1664 268.737 88.4319C268.773 89.0645 268.81 89.702 268.847 90.3441C268.896 90.9856 268.966 91.6308 269.025 92.2806C269.148 93.5797 269.273 94.8966 269.4 96.2296C269.465 96.8621 269.564 97.5631 269.644 98.233C269.727 98.91 269.801 99.599 269.903 100.269C270.27 102.961 270.712 105.745 271.183 108.569C271.65 111.396 272.155 114.274 272.617 117.202C272.842 118.669 273.076 120.141 273.283 121.631C273.389 122.375 273.495 123.12 273.602 123.868C273.698 124.618 273.794 125.369 273.891 126.123C274.097 127.626 274.242 129.149 274.413 130.671C274.576 132.194 274.684 133.731 274.822 135.267C274.909 136.809 275.011 138.352 275.057 139.902L275.108 142.228L275.132 143.392L275.118 144.558C275.08 150.77 274.548 157.005 273.378 163.031C272.203 169.055 270.421 174.856 268.187 180.246C267.91 180.92 267.634 181.592 267.358 182.261C267.047 182.913 266.736 183.562 266.427 184.208C265.803 185.497 265.224 186.792 264.524 188.009C263.845 189.235 263.208 190.466 262.516 191.647C261.799 192.811 261.091 193.962 260.393 195.097C257.492 199.565 254.473 203.599 251.443 207.102C250.691 207.982 249.955 208.844 249.236 209.686C248.476 210.491 247.732 211.276 247.008 212.042C246.284 212.807 245.578 213.552 244.892 214.276C244.175 214.969 243.479 215.643 242.805 216.295C240.154 218.952 237.639 221.045 235.629 222.829C234.637 223.735 233.668 224.449 232.861 225.11C232.046 225.761 231.353 226.315 230.791 226.764C229.667 227.662 229.068 228.14 229.068 228.14C228.983 228.208 228.859 228.195 228.791 228.109C228.726 228.028 228.736 227.911 228.811 227.841L228.818 227.836C228.818 227.836 229.382 227.318 230.439 226.348C230.967 225.863 231.619 225.265 232.385 224.562C232.768 224.21 233.179 223.833 233.618 223.43C233.835 223.227 234.068 223.026 234.295 222.806C234.52 222.585 234.752 222.356 234.991 222.122C235.943 221.185 236.998 220.147 238.146 219.018C238.433 218.736 238.726 218.448 239.024 218.155C239.321 217.86 239.604 217.54 239.903 217.225C240.499 216.594 241.116 215.939 241.754 215.263C242.39 214.587 243.047 213.889 243.723 213.171C244.366 212.424 245.029 211.656 245.708 210.867C246.387 210.079 247.084 209.271 247.796 208.444C248.474 207.589 249.167 206.714 249.875 205.82C250.228 205.374 250.586 204.922 250.947 204.467C251.127 204.239 251.308 204.01 251.491 203.78C251.661 203.542 251.833 203.302 252.005 203.061C252.695 202.099 253.397 201.118 254.111 200.121C254.848 199.14 255.492 198.071 256.182 197.011C256.526 196.481 256.872 195.947 257.221 195.408C257.396 195.14 257.571 194.87 257.748 194.599C257.916 194.323 258.073 194.04 258.238 193.76C258.889 192.635 259.549 191.496 260.218 190.342C260.861 189.175 261.448 187.96 262.077 186.752C262.727 185.554 263.254 184.28 263.826 183.015C264.109 182.381 264.393 181.745 264.679 181.105C264.934 180.453 265.189 179.798 265.446 179.14C267.525 173.888 269.154 168.263 270.195 162.433C271.257 156.606 271.766 150.585 271.763 144.549C271.764 138.513 271.3 132.467 270.585 126.527C270.495 125.785 270.405 125.044 270.315 124.304C270.214 123.565 270.113 122.827 270.013 122.091C269.818 120.62 269.594 119.155 269.38 117.698C268.946 114.777 268.517 111.891 268.095 109.053C267.675 106.203 267.282 103.402 266.955 100.611C266.787 99.2122 266.666 97.8918 266.547 96.5031C266.46 95.1438 266.374 93.801 266.29 92.4761C266.251 91.8137 266.2 91.1571 266.171 90.5034C266.153 89.849 266.135 89.1992 266.118 88.5544C266.088 87.2648 266.04 85.996 266.026 84.7472C266.057 82.2478 266.056 79.8349 266.215 77.5206C266.246 76.9423 266.277 76.37 266.307 75.8038C266.322 75.5209 266.337 75.2394 266.352 74.9595C266.377 74.6801 266.402 74.4022 266.426 74.1261C266.527 73.022 266.625 71.9433 266.721 70.8917C266.822 69.841 266.988 68.8229 267.114 67.8315C267.181 67.3362 267.248 66.8483 267.314 66.3674C267.397 65.8888 267.479 65.4173 267.559 64.9535C267.729 64.0271 267.856 63.1262 268.045 62.2665C268.228 61.4067 268.405 60.5779 268.574 59.7814C268.971 58.2007 269.322 56.7482 269.726 55.4577C270.483 52.8644 271.251 50.8818 271.833 49.5566C272.119 48.891 272.358 48.3922 272.528 48.0539C272.696 47.7143 272.79 47.5494 272.79 47.5494L272.792 47.5453C272.846 47.4504 272.966 47.4171 273.061 47.4709C273.151 47.5216 273.185 47.6331 273.143 47.7254Z" fill="#BDD0FB"/>
<path d="M237.638 231.479C237.638 231.479 277.262 245.198 306.866 201.847C334.673 161.126 317.965 110.212 305.696 81.1233C305.057 79.6081 302.831 79.8899 302.586 81.516C298.905 106.006 281.784 201.772 235.522 231.403L237.638 231.479Z" fill="#BAE1E8"/>
<path d="M241.777 232.031C241.777 232.031 241.892 232.008 242.116 231.964C242.337 231.921 242.667 231.848 243.096 231.747C243.953 231.539 245.209 231.224 246.779 230.723C247.569 230.495 248.429 230.187 249.37 229.876C250.299 229.526 251.314 229.181 252.37 228.734C254.501 227.894 256.849 226.805 259.342 225.5C261.847 224.216 264.453 222.628 267.132 220.848C268.443 219.913 269.81 218.984 271.126 217.925C271.459 217.667 271.795 217.407 272.132 217.146L272.638 216.753L273.127 216.333C273.781 215.773 274.441 215.207 275.106 214.637C277.697 212.28 280.283 209.737 282.636 206.911C282.934 206.562 283.233 206.211 283.532 205.861L283.982 205.334L284.402 204.782C284.961 204.046 285.522 203.307 286.085 202.567C286.666 201.84 287.166 201.053 287.689 200.281L289.25 197.958L290.681 195.552L291.397 194.352C291.514 194.151 291.64 193.955 291.75 193.75L292.071 193.13C292.499 192.304 292.926 191.48 293.352 190.659C293.566 190.248 293.778 189.838 293.991 189.429C294.18 189.008 294.368 188.587 294.556 188.168C294.931 187.328 295.304 186.491 295.675 185.659C295.855 185.241 296.057 184.833 296.219 184.409C296.379 183.985 296.538 183.562 296.698 183.14C297.018 182.297 297.335 181.459 297.651 180.627C297.808 180.211 297.976 179.8 298.123 179.383C298.258 178.962 298.392 178.543 298.525 178.125C298.792 177.29 299.057 176.462 299.319 175.641C299.577 174.819 299.863 174.014 300.053 173.189C300.487 171.556 300.912 169.958 301.326 168.402C301.683 166.831 301.979 165.291 302.303 163.809C302.456 163.066 302.64 162.342 302.762 161.619C302.879 160.896 302.994 160.186 303.107 159.491C303.331 158.1 303.549 156.766 303.77 155.499C303.94 154.224 304.069 153.011 304.208 151.871C304.35 150.732 304.483 149.665 304.606 148.678C304.724 147.69 304.76 146.778 304.841 145.956C304.977 144.31 305.087 143.015 305.174 142.132C305.256 141.248 305.3 140.777 305.3 140.777L305.301 140.767C305.311 140.659 305.407 140.579 305.515 140.589C305.617 140.599 305.693 140.684 305.695 140.783C305.695 140.783 305.701 141.256 305.714 142.145C305.731 143.034 305.74 144.338 305.746 146C305.744 146.83 305.768 147.752 305.724 148.753C305.671 149.754 305.614 150.836 305.552 151.992C305.478 153.148 305.418 154.381 305.321 155.679C305.18 156.972 305.019 158.331 304.847 159.749C304.762 160.459 304.675 161.183 304.586 161.921C304.493 162.659 304.337 163.402 304.213 164.162C303.936 165.679 303.663 167.251 303.343 168.86C302.956 170.455 302.559 172.094 302.153 173.769C301.965 174.611 301.681 175.436 301.425 176.278C301.164 177.119 300.9 177.968 300.634 178.824C300.501 179.252 300.367 179.682 300.233 180.113C300.086 180.541 299.919 180.963 299.761 181.39C299.437 182.242 299.111 183.1 298.783 183.963C298.618 184.394 298.452 184.826 298.286 185.26C298.119 185.693 297.91 186.111 297.723 186.539C297.339 187.39 296.953 188.246 296.566 189.105C296.371 189.534 296.176 189.964 295.98 190.395C295.761 190.814 295.541 191.234 295.32 191.654C294.879 192.495 294.437 193.338 293.994 194.183L293.661 194.817C293.548 195.027 293.418 195.228 293.297 195.434L292.557 196.664L291.072 199.124L289.438 201.489C288.89 202.275 288.366 203.075 287.759 203.814C287.172 204.566 286.586 205.317 286.001 206.066L285.562 206.626L285.094 207.161C284.782 207.517 284.471 207.873 284.16 208.227C281.716 211.104 278.998 213.65 276.293 216.003C275.6 216.572 274.912 217.136 274.23 217.695L273.721 218.113L273.194 218.504C272.843 218.763 272.495 219.021 272.148 219.278C270.783 220.336 269.352 221.235 267.988 222.149C267.299 222.596 266.594 222.996 265.914 223.411C265.572 223.617 265.233 223.82 264.897 224.022C264.557 224.219 264.212 224.398 263.874 224.585C263.196 224.953 262.529 225.315 261.874 225.669C261.205 225.996 260.549 226.316 259.906 226.63C257.318 227.849 254.894 228.851 252.701 229.612C251.615 230.018 250.572 230.325 249.619 230.638C248.654 230.913 247.774 231.187 246.965 231.384C245.354 231.802 244.067 232.047 243.191 232.209C242.751 232.286 242.413 232.342 242.183 232.373C241.954 232.405 241.837 232.421 241.837 232.421C241.729 232.436 241.629 232.36 241.614 232.253C241.6 232.148 241.669 232.052 241.771 232.032L241.777 232.031Z" fill="url(#paint1_linear_1_2)"/>
<path d="M68.2061 36.3223L237.763 38.689C247.117 38.8196 254.706 44.9328 255.022 52.5926L263.35 254.154C263.597 260.148 257.737 265.119 250.416 265.126L56.0224 265.307C49.1433 265.314 43.5955 260.696 43.7128 255.061L47.9278 52.3782C48.1156 43.3571 57.1943 36.1688 68.2061 36.3223Z" fill="#DCECFD"/>
<path d="M84.5043 262.223C84.5001 262.223 84.4962 262.223 84.4919 262.223L62.7519 261.689C55.5208 261.512 49.7375 256.546 49.8608 250.62L50.4204 223.725C50.4243 223.548 50.6001 223.407 50.8151 223.407C50.8175 223.407 50.8193 223.407 50.8217 223.407C51.0399 223.41 51.2132 223.557 51.2098 223.735L50.6502 250.631C50.5342 256.205 55.9736 260.876 62.7759 261.043L84.5159 261.577C84.7336 261.582 84.9047 261.731 84.8986 261.91C84.892 262.085 84.7166 262.223 84.5043 262.223Z" fill="#91B3FA"/>
<path d="M50.988 215.722C50.9857 215.722 50.9838 215.722 50.9815 215.722C50.7633 215.719 50.5899 215.572 50.5933 215.393L50.6838 211.038C50.6877 210.859 50.8804 210.714 51.0851 210.72C51.3033 210.723 51.4766 210.87 51.4732 211.049L51.3827 215.404C51.3788 215.581 51.2031 215.722 50.988 215.722Z" fill="#91B3FA"/>
<path d="M68.7617 34.6973C91.8628 37.5928 171.32 46.6599 237.237 43.4389C240.243 43.292 242.809 45.1917 242.918 47.6571L251.834 250.124C251.956 252.9 249.322 255.236 245.934 255.353C218.219 256.309 104.086 259.906 63.4879 255.849C61.0171 255.602 59.1737 253.868 59.2015 251.829L62.0945 39.3377C62.1337 36.4513 65.2786 34.2608 68.7617 34.6973Z" fill="#2A8E9E"/>
<path d="M71.1327 39.9791C93.3639 42.7657 169.829 51.4915 233.264 48.3916C236.156 48.2502 238.626 50.0785 238.731 52.4512L247.311 247.294C247.429 249.966 244.894 252.214 241.633 252.326C214.962 253.246 105.127 256.708 66.0576 252.803C63.6797 252.566 61.9057 250.897 61.9324 248.935L64.7166 44.445C64.7543 41.6672 67.7808 39.559 71.1327 39.9791Z" fill="#A6D7DF"/>
<g opacity="0.6">
<path d="M231.174 65.471C232.042 65.4832 232.718 64.9118 232.675 64.2013L232.662 63.9815C232.62 63.271 231.875 62.6753 231.007 62.6576L86.9456 59.7161C86.0777 59.6984 85.8005 60.1453 86.3296 60.7092L87.973 62.4603C88.5022 63.0242 89.6455 63.4955 90.5136 63.5077L231.174 65.471Z" fill="white"/>
</g>
<g opacity="0.6">
<path d="M86.784 67.4965C85.916 67.4788 85.6389 67.9257 86.168 68.4896L87.8113 70.2408C88.3406 70.8047 89.4838 71.276 90.352 71.2881L231.012 73.2514C231.881 73.2635 232.556 72.6922 232.514 71.9817L232.501 71.7618C232.458 71.0513 231.713 70.4555 230.845 70.4378L86.784 67.4965Z" fill="white"/>
</g>
<path d="M110.207 138.552C110.189 138.552 110.172 138.553 110.155 138.553L91.0689 138.642C88.3186 138.655 86.0197 137.133 85.7215 135.101L83.7978 122.005C83.6836 121.226 83.9651 120.451 84.5902 119.823C85.2884 119.121 86.3561 118.673 87.5194 118.592C89.1274 118.483 91.3417 118.299 93.7778 118.099C99.0823 117.661 105.094 117.165 108.63 117.085C108.657 117.084 108.682 117.084 108.708 117.083C111.238 117.052 113.439 118.288 114.076 120.107C115.129 123.111 115.148 128.814 115.072 134.891C115.047 136.885 112.87 138.519 110.207 138.552ZM87.6496 119.864C86.9047 119.915 86.2298 120.194 85.7973 120.629C85.4416 120.986 85.2806 121.421 85.3442 121.853L87.2679 134.949C87.4714 136.336 89.1019 137.376 91.0603 137.367L110.146 137.277C110.158 137.277 110.171 137.277 110.183 137.277C112.008 137.254 113.499 136.183 113.516 134.878C113.59 128.9 113.574 123.298 112.579 120.459C112.138 119.202 110.462 118.285 108.674 118.36C105.194 118.439 98.9508 118.955 93.9338 119.368C91.4876 119.57 89.2643 119.753 87.6496 119.864Z" fill="white"/>
<path opacity="0.6" d="M89.7243 121.154C93.7288 120.88 102.428 120.045 106.56 119.951C108.31 119.911 109.862 120.759 110.296 121.997C111.139 124.403 111.124 129.22 111.068 133.666C111.052 134.998 109.58 136.079 107.757 136.087L92.5054 136.159C90.6298 136.168 89.0532 135.14 88.8532 133.778L87.3163 123.313C87.1573 122.23 88.2399 121.256 89.7243 121.154Z" fill="white"/>
<g opacity="0.6">
<path d="M126.715 124.73C125.847 124.724 125.328 125.28 125.563 125.965L127.372 131.255C127.607 131.939 128.508 132.491 129.377 132.48L225.438 131.273C226.306 131.262 226.99 130.672 226.957 129.961L226.81 126.716C226.778 126.005 226.041 125.419 225.173 125.412L126.715 124.73Z" fill="white"/>
</g>
<path d="M111.324 103.449C111.306 103.449 111.289 103.449 111.271 103.449L92.1856 103.539C89.4351 103.552 87.1363 102.029 86.8382 99.9977L84.9145 86.9017C84.8003 86.1226 85.0818 85.3478 85.7069 84.7194C86.4051 84.0172 87.4728 83.569 88.6361 83.4889C90.2443 83.379 92.4584 83.196 94.8945 82.9953C100.199 82.558 106.211 82.0619 109.747 81.9815C109.773 81.9811 109.799 81.9802 109.825 81.9798C112.355 81.9481 114.555 83.1844 115.193 85.0037C116.245 88.0076 116.264 93.7109 116.189 99.7878C116.164 101.781 113.987 103.415 111.324 103.449ZM88.7663 84.7607C88.0214 84.8119 87.3464 85.0902 86.9139 85.5255C86.5582 85.8825 86.3973 86.3174 86.4608 86.7491L88.3845 99.8451C88.588 101.233 90.2184 102.272 92.1768 102.263L111.262 102.174C111.275 102.173 111.287 102.173 111.3 102.173C113.124 102.15 114.615 101.08 114.632 99.7751C114.706 93.7966 114.691 88.1949 113.696 85.3554C113.255 84.0986 111.578 83.1816 109.79 83.2569C106.311 83.3361 100.067 83.8514 95.0502 84.2645C92.6042 84.4664 90.381 84.6495 88.7663 84.7607Z" fill="white"/>
<path opacity="0.6" d="M90.8405 86.0509C94.8449 85.7761 103.544 84.9418 107.676 84.8477C109.427 84.8078 110.979 85.6552 111.412 86.8939C112.255 89.2996 112.24 94.1163 112.184 98.5624C112.168 99.894 110.696 100.975 108.873 100.984L93.6215 101.056C91.7458 101.064 90.1693 100.036 89.9693 98.6742L88.4325 88.2092C88.2733 87.1268 89.356 86.1528 90.8405 86.0509Z" fill="white"/>
<g opacity="0.6">
<path d="M127.832 89.6269C126.964 89.6209 126.445 90.1763 126.679 90.8613L128.489 96.1511C128.723 96.8361 129.625 97.3875 130.493 97.3766L226.554 96.1696C227.423 96.1587 228.106 95.5682 228.074 94.8574L227.927 91.6124C227.894 90.9016 227.158 90.3151 226.289 90.3091L127.832 89.6269Z" fill="white"/>
</g>
<path d="M110.834 172.057C110.817 172.058 110.799 172.058 110.782 172.058L91.6962 172.148C88.9458 172.16 86.6469 170.638 86.3488 168.607L84.4253 155.511C84.311 154.731 84.5925 153.957 85.2174 153.328C85.9158 152.626 86.9834 152.178 88.1466 152.098C89.7548 151.988 91.969 151.805 94.4052 151.604C99.7097 151.167 105.722 150.671 109.257 150.59C109.284 150.59 109.309 150.589 109.335 150.589C111.865 150.557 114.066 151.793 114.703 153.613C115.756 156.617 115.775 162.32 115.699 168.397C115.675 170.39 113.497 172.024 110.834 172.057ZM88.2768 153.37C87.5325 153.421 86.8573 153.699 86.4246 154.134C86.069 154.491 85.9077 154.926 85.9713 155.358L87.8949 168.454C88.0984 169.842 89.7289 170.881 91.6874 170.872L110.773 170.782C110.785 170.782 110.798 170.782 110.811 170.782C112.635 170.759 114.126 169.689 114.142 168.384C114.217 162.405 114.201 156.804 113.206 153.965C112.765 152.707 111.089 151.806 109.301 151.866C105.821 151.945 99.5776 152.46 94.5605 152.873C92.1146 153.075 89.8915 153.258 88.2768 153.37Z" fill="white"/>
<path opacity="0.6" d="M90.3513 154.66C94.3557 154.385 103.055 153.551 107.187 153.457C108.937 153.417 110.489 154.264 110.923 155.503C111.766 157.909 111.751 162.725 111.695 167.171C111.679 168.503 110.206 169.584 108.384 169.593L93.1323 169.665C91.2566 169.673 89.6802 168.645 89.48 167.283L87.9432 156.818C87.7843 155.736 88.8668 154.762 90.3513 154.66Z" fill="white"/>
<g opacity="0.6">
<path d="M127.343 158.236C126.475 158.23 125.956 158.785 126.19 159.47L128 164.76C128.234 165.445 129.136 165.997 130.004 165.986L226.065 164.779C226.933 164.768 227.617 164.177 227.585 163.466L227.437 160.221C227.405 159.511 226.668 158.924 225.8 158.918L127.343 158.236Z" fill="white"/>
</g>
<path d="M109.65 204.254C109.633 204.254 109.616 204.254 109.599 204.254L90.5131 204.343C87.7632 204.357 85.4641 202.834 85.1657 200.802L83.2421 187.707C83.128 186.927 83.4094 186.153 84.0342 185.524C84.7322 184.822 85.8001 184.374 86.9634 184.293C88.5702 184.183 90.7821 184.001 93.2156 183.8C98.2598 183.384 104.537 182.867 108.075 182.786C110.585 182.745 112.876 183.97 113.52 185.809C114.573 188.813 114.592 194.516 114.517 200.592C114.492 202.585 112.313 204.22 109.65 204.254ZM87.0938 185.565C86.3496 185.616 85.6741 185.895 85.2412 186.33C84.8858 186.688 84.7248 187.122 84.7884 187.554L86.712 200.649C86.9156 202.037 88.546 203.077 90.5039 203.067L109.59 202.979C111.388 202.93 112.943 201.893 112.96 200.579C113.034 194.601 113.018 189 112.023 186.16C111.582 184.903 109.907 184.018 108.118 184.062C104.637 184.14 98.3907 184.656 93.3716 185.069C90.9282 185.271 88.7072 185.454 87.0938 185.565Z" fill="white"/>
<path opacity="0.6" d="M89.1682 186.856C93.1728 186.581 101.872 185.747 106.004 185.653C107.754 185.613 109.306 186.46 109.74 187.699C110.583 190.104 110.568 194.921 110.512 199.367C110.496 200.699 109.023 201.78 107.201 201.789L91.9492 201.86C90.0738 201.869 88.4971 200.841 88.297 199.479L86.7601 189.014C86.6012 187.932 87.6837 186.958 89.1682 186.856Z" fill="white"/>
<g opacity="0.6">
<path d="M126.16 190.432C125.291 190.426 124.773 190.981 125.007 191.666L126.816 196.956C127.051 197.641 127.953 198.192 128.821 198.181L224.882 196.974C225.75 196.963 226.434 196.373 226.402 195.662L226.254 192.417C226.222 191.706 225.485 191.12 224.617 191.114L126.16 190.432Z" fill="white"/>
</g>
<path d="M108.105 237.459C108.087 237.46 108.07 237.46 108.052 237.46L88.9666 237.55C86.2162 237.563 83.9173 236.04 83.6193 234.008L81.6958 220.913C81.5816 220.133 81.8628 219.358 82.4879 218.73C83.1862 218.028 84.2538 217.58 85.4171 217.5C87.0253 217.39 89.2393 217.207 91.6754 217.006C96.9798 216.569 102.992 216.073 106.528 215.992C109.121 215.988 111.33 217.177 111.974 219.014C113.026 222.018 113.046 227.722 112.97 233.799C112.945 235.792 110.768 237.426 108.105 237.459ZM85.5472 218.771C84.8026 218.823 84.1276 219.101 83.6952 219.536C83.3395 219.893 83.1784 220.328 83.242 220.76L85.1655 233.856C85.369 235.244 86.9995 236.283 88.9579 236.274L108.044 236.184C108.056 236.184 108.069 236.184 108.081 236.184C109.905 236.161 111.396 235.09 111.413 233.786C111.488 227.807 111.472 222.205 110.477 219.366C110.036 218.109 108.36 217.24 106.572 217.268C103.092 217.347 96.8483 217.862 91.8312 218.275C89.3851 218.477 87.1619 218.66 85.5472 218.771Z" fill="white"/>
<path opacity="0.6" d="M87.6219 220.062C91.6264 219.787 100.326 218.953 104.457 218.859C106.208 218.819 107.76 219.666 108.194 220.905C109.037 223.31 109.021 228.127 108.966 232.573C108.95 233.905 107.477 234.986 105.655 234.995L90.4029 235.066C88.5273 235.075 86.9507 234.047 86.7506 232.685L85.2137 222.22C85.055 221.138 86.1375 220.164 87.6219 220.062Z" fill="white"/>
<g opacity="0.6">
<path d="M124.613 223.638C123.745 223.632 123.226 224.187 123.461 224.872L125.27 230.162C125.504 230.847 126.406 231.398 127.275 231.387L223.336 230.18C224.204 230.169 224.888 229.579 224.855 228.868L224.708 225.623C224.676 224.912 223.939 224.326 223.071 224.32L124.613 223.638Z" fill="white"/>
</g>
<path d="M161.186 10.2875C156.741 6.70851 152.829 6.70325 150.062 7.55785C147.538 8.33746 145.869 11.0136 146.063 13.9298L147.03 28.4216L161.137 30.0902C161.137 30.0902 169.903 17.3069 161.186 10.2875ZM154.795 21.8425C152.849 21.8055 151.299 20.0146 151.332 17.8422C151.365 15.6699 152.969 13.9388 154.915 13.9758C156.86 14.0129 158.411 15.8039 158.378 17.9762C158.344 20.1486 156.74 21.8796 154.795 21.8425Z" fill="#2A8E9E"/>
<path d="M148.308 22.6965C148.058 22.5914 147.872 22.3367 147.851 22.0256L147.694 19.7195C147.664 19.2897 147.96 18.9154 148.354 18.8835C148.748 18.8507 149.093 19.1729 149.122 19.6042L149.279 21.9102C149.308 22.3402 149.013 22.7143 148.618 22.7461C148.509 22.7551 148.404 22.7368 148.308 22.6965ZM147.999 18.1777C147.75 18.0727 147.564 17.8181 147.543 17.5069L147.423 15.756C147.221 12.7905 148.973 10.0657 151.589 9.2761C153.381 8.73584 155.219 8.68723 157.054 9.13266C157.434 9.2317 157.683 9.64327 157.597 10.0646C157.511 10.4852 157.128 10.751 156.742 10.6571C155.14 10.2675 153.534 10.3097 151.971 10.781C150.012 11.3721 148.699 13.4154 148.851 15.6406L148.971 17.3916C149 17.8214 148.704 18.1955 148.31 18.2274C148.201 18.2363 148.095 18.218 147.999 18.1777Z" fill="#91B3FA"/>
<path d="M127.048 37.1319L127.161 30.2304C127.199 27.8481 129.126 25.9737 131.41 26.0959L177.048 28.5367C179.074 28.645 180.688 30.3411 180.775 32.4522L181.048 39.0902L127.048 37.1319Z" fill="#2A8E9E"/>
<path d="M144.702 29.0902C144.7 29.0902 144.698 29.0902 144.696 29.0902L142.388 29.0366C142.197 29.032 142.045 28.8166 142.048 28.5556C142.051 28.2968 142.205 28.0902 142.394 28.0902C142.396 28.0902 142.398 28.0902 142.4 28.0902L144.707 28.1438C144.899 28.1485 145.051 28.3638 145.048 28.6249C145.044 28.8837 144.89 29.0902 144.702 29.0902Z" fill="#91B3FA"/>
<path d="M129.497 35.0387C129.23 34.9267 129.043 34.6427 129.048 34.313L129.093 31.4372C129.111 30.2563 129.552 29.1541 130.333 28.3332C131.114 27.5123 132.143 27.0708 133.229 27.0909L140.358 27.2233C140.744 27.2317 141.055 27.5779 141.048 28.0003C141.041 28.4219 140.721 28.7579 140.333 28.7509L133.205 28.6184C131.737 28.5913 130.522 29.8674 130.498 31.4634L130.452 34.3394C130.446 34.7611 130.126 35.0969 129.738 35.0901C129.653 35.0881 129.572 35.0702 129.497 35.0387Z" fill="#91B3FA"/>
<path d="M112.696 34.0909L193.149 35.6009C196.042 35.6552 198.48 37.9986 198.925 41.153L198.986 41.5882C199.473 45.0433 197.021 48.149 193.852 48.0894L111.312 46.5377C109.416 46.5022 107.932 44.7244 108.055 42.6362L108.296 38.5633C108.446 36.016 110.383 34.0476 112.696 34.0909Z" fill="#2A8E9E"/>
<path d="M169.401 127.725C168.715 152.21 166.491 236.669 167.553 266.599C167.665 269.77 170.536 272.315 174.118 272.419C191.831 272.932 256.767 274.232 285.74 273.156C291.774 272.932 296.573 268.605 296.698 263.258C297.3 237.558 298.629 165.272 295.471 132.158C295.093 128.19 291.576 125.031 287.101 124.634C267.81 122.926 202.595 118.75 177.564 120.188C173.05 120.447 169.513 123.721 169.401 127.725Z" fill="#DCECFD"/>
<path d="M177.304 133.429C176.351 139.152 173.344 158.191 174.298 165.232C174.438 166.261 177.601 167.093 181.611 167.153C198.118 167.4 254.439 167.947 278.652 167.449C283.012 167.36 286.433 166.456 286.669 165.336C287.896 159.498 291.419 141.77 290.504 134.808C290.358 133.698 287.002 132.791 282.685 132.691C264.827 132.28 204.979 131.302 184.404 131.59C180.541 131.644 177.469 132.439 177.304 133.429Z" fill="#2A8E9E"/>
<path opacity="0.48" d="M282.982 138.401C282.106 137.495 280.905 136.975 279.644 136.955L186.876 135.481C184.396 135.441 182.304 137.317 182.073 139.787L180.145 160.367C179.987 162.053 182.76 163.471 186.294 163.514L277.498 164.619C281.027 164.662 283.944 163.316 283.973 161.632L284.317 141.786C284.339 140.525 283.859 139.307 282.982 138.401Z" fill="white"/>
<path d="M199.492 187.764C199.492 191.425 196.524 194.392 192.863 194.392H184.808C181.147 194.392 178.18 191.425 178.18 187.764V187.602C178.18 183.941 181.147 180.974 184.808 180.974H192.863C196.524 180.974 199.492 183.941 199.492 187.602V187.764Z" fill="#2A8E9E"/>
<path d="M229.486 187.764C229.486 191.425 226.519 194.392 222.858 194.392H214.803C211.142 194.392 208.174 191.425 208.174 187.764V187.602C208.174 183.941 211.142 180.974 214.803 180.974H222.858C226.519 180.974 229.486 183.941 229.486 187.602V187.764Z" fill="#2A8E9E"/>
<path d="M258.297 187.764C258.297 191.425 255.33 194.392 251.669 194.392H243.614C239.953 194.392 236.985 191.425 236.985 187.764V187.602C236.985 183.941 239.953 180.974 243.614 180.974H251.669C255.33 180.974 258.297 183.941 258.297 187.602V187.764Z" fill="#2A8E9E"/>
<path d="M287.281 188.488C287.281 192.208 284.265 195.224 280.545 195.224H272.746C269.025 195.224 266.01 192.208 266.01 188.488C266.01 184.768 269.026 181.752 272.746 181.752H280.545C284.265 181.752 287.281 184.767 287.281 188.488Z" fill="url(#paint2_linear_1_2)"/>
<path opacity="0.63" d="M199.492 208.681C199.492 212.342 196.524 215.31 192.863 215.31H184.808C181.147 215.31 178.18 212.342 178.18 208.681V208.52C178.18 204.859 181.147 201.891 184.808 201.891H192.863C196.524 201.891 199.492 204.859 199.492 208.52V208.681Z" fill="url(#paint3_linear_1_2)"/>
<path opacity="0.63" d="M229.486 208.681C229.486 212.342 226.519 215.31 222.858 215.31H214.803C211.142 215.31 208.174 212.342 208.174 208.681V208.52C208.174 204.859 211.142 201.891 214.803 201.891H222.858C226.519 201.891 229.486 204.859 229.486 208.52V208.681Z" fill="url(#paint4_linear_1_2)"/>
<path opacity="0.63" d="M258.297 208.681C258.297 212.342 255.33 215.31 251.669 215.31H243.614C239.953 215.31 236.985 212.342 236.985 208.681V208.52C236.985 204.859 239.953 201.891 243.614 201.891H251.669C255.33 201.891 258.297 204.859 258.297 208.52V208.681Z" fill="url(#paint5_linear_1_2)"/>
<path d="M287.898 208.681C287.898 212.342 284.93 215.31 281.269 215.31H273.214C269.553 215.31 266.585 212.342 266.585 208.681V208.52C266.585 204.859 269.553 201.891 273.214 201.891H281.269C284.93 201.891 287.898 204.859 287.898 208.52V208.681Z" fill="#2A8E9E"/>
<path opacity="0.63" d="M199.492 228.02C199.492 231.681 196.524 234.649 192.863 234.649H184.808C181.147 234.649 178.18 231.681 178.18 228.02V227.858C178.18 224.197 181.147 221.23 184.808 221.23H192.863C196.524 221.23 199.492 224.197 199.492 227.858V228.02Z" fill="url(#paint6_linear_1_2)"/>
<path opacity="0.63" d="M229.486 228.02C229.486 231.681 226.519 234.648 222.858 234.648H214.803C211.142 234.648 208.174 231.681 208.174 228.02V227.858C208.174 224.197 211.142 221.23 214.803 221.23H222.858C226.519 221.23 229.486 224.197 229.486 227.858V228.02Z" fill="url(#paint7_linear_1_2)"/>
<path opacity="0.63" d="M258.297 228.02C258.297 231.681 255.33 234.648 251.669 234.648H243.614C239.953 234.648 236.985 231.681 236.985 228.02V227.858C236.985 224.197 239.953 221.23 243.614 221.23H251.669C255.33 221.23 258.297 224.197 258.297 227.858V228.02Z" fill="url(#paint8_linear_1_2)"/>
<path opacity="0.63" d="M199.492 248.148C199.492 251.809 196.524 254.777 192.863 254.777H184.808C181.147 254.777 178.18 251.809 178.18 248.148V247.987C178.18 244.326 181.147 241.358 184.808 241.358H192.863C196.524 241.358 199.492 244.326 199.492 247.987V248.148Z" fill="url(#paint9_linear_1_2)"/>
<path opacity="0.63" d="M229.486 248.148C229.486 251.809 226.519 254.777 222.858 254.777H214.803C211.142 254.777 208.174 251.809 208.174 248.148V247.987C208.174 244.326 211.142 241.358 214.803 241.358H222.858C226.519 241.358 229.486 244.326 229.486 247.987V248.148Z" fill="url(#paint10_linear_1_2)"/>
<path opacity="0.63" d="M258.297 248.148C258.297 251.809 255.33 254.777 251.669 254.777H243.614C239.953 254.777 236.985 251.809 236.985 248.148V247.987C236.985 244.326 239.953 241.358 243.614 241.358H251.669C255.33 241.358 258.297 244.326 258.297 247.987V248.148Z" fill="url(#paint11_linear_1_2)"/>
<path d="M285.135 246.386C285.135 251.02 281.378 254.777 276.745 254.777H276.16C271.526 254.777 267.77 251.02 267.77 246.386V230.41C267.77 225.776 271.526 222.019 276.16 222.019H276.745C281.378 222.019 285.135 225.776 285.135 230.41V246.386Z" fill="#2A8E9E"/>
<g opacity="0.7">
<path d="M273.689 141.309C273.689 142.072 273.07 142.691 272.308 142.691H267.966C267.203 142.691 266.585 142.072 266.585 141.309C266.585 140.547 267.203 139.928 267.966 139.928H272.308C273.07 139.928 273.689 140.546 273.689 141.309Z" fill="#BDD0FB"/>
<path d="M273.689 161.043C273.689 161.806 273.07 162.424 272.308 162.424H267.966C267.203 162.424 266.585 161.806 266.585 161.043C266.585 160.28 267.203 159.662 267.966 159.662H272.308C273.07 159.661 273.689 160.28 273.689 161.043Z" fill="#BDD0FB"/>
<path d="M267.374 149.992C267.374 150.755 266.756 151.373 265.993 151.373C265.23 151.373 264.612 150.755 264.612 149.992V145.651C264.612 144.888 265.23 144.269 265.993 144.269C266.756 144.269 267.374 144.888 267.374 145.651V149.992Z" fill="#BDD0FB"/>
<path d="M267.374 157.886C267.374 158.648 266.756 159.267 265.993 159.267C265.23 159.267 264.612 158.648 264.612 157.886V153.544C264.612 152.781 265.23 152.163 265.993 152.163C266.756 152.163 267.374 152.781 267.374 153.544V157.886Z" fill="#BDD0FB"/>
<path d="M276.847 149.992C276.847 150.755 276.228 151.373 275.465 151.373C274.702 151.373 274.084 150.755 274.084 149.992V145.651C274.084 144.888 274.702 144.269 275.465 144.269C276.228 144.269 276.847 144.888 276.847 145.651V149.992Z" fill="#BDD0FB"/>
<path d="M276.847 157.886C276.847 158.648 276.228 159.267 275.465 159.267C274.702 159.267 274.084 158.648 274.084 157.886V153.544C274.084 152.781 274.702 152.163 275.465 152.163C276.228 152.163 276.847 152.781 276.847 153.544V157.886Z" fill="#BDD0FB"/>
</g>
<path d="M145.76 59.6024C153.557 59.6024 159.878 53.2814 159.878 45.4842C159.878 37.6869 153.557 31.366 145.76 31.366C137.963 31.366 131.642 37.6869 131.642 45.4842C131.642 53.2814 137.963 59.6024 145.76 59.6024Z" fill="url(#paint12_linear_1_2)"/>
<path d="M145.76 59.1329C153.298 59.1329 159.408 53.0222 159.408 45.4842C159.408 37.9462 153.298 31.8354 145.76 31.8354C138.222 31.8354 132.111 37.9462 132.111 45.4842C132.111 53.0222 138.222 59.1329 145.76 59.1329Z" fill="url(#paint13_linear_1_2)"/>
<path opacity="0.78" d="M134.505 40.2093C134.445 40.2093 134.384 40.1959 134.327 40.1669C134.133 40.0687 134.055 39.8312 134.153 39.637C136.378 35.2285 140.825 32.4901 145.76 32.4901C146.547 32.4901 147.336 32.561 148.104 32.7013C148.318 32.7402 148.46 32.9456 148.421 33.1603C148.382 33.375 148.176 33.52 147.962 33.4776C147.241 33.3462 146.5 33.2795 145.76 33.2795C141.125 33.2795 136.947 35.8518 134.857 39.9923C134.788 40.1299 134.649 40.2093 134.505 40.2093Z" fill="white"/>
<path opacity="0.78" d="M157.302 48.4533C158.768 42.2443 154.923 36.0224 148.714 34.5562C142.505 33.0901 136.283 36.935 134.817 43.1441C133.351 49.3531 137.196 55.5751 143.405 57.0412C149.614 58.5073 155.836 54.6624 157.302 48.4533Z" fill="white"/>
<path d="M144.924 54.3695V53.1127C143.614 53.0603 142.318 52.7511 141.397 52.3481C141.068 52.2042 140.901 51.8355 140.995 51.4893L141.315 50.3187C141.432 49.8892 141.899 49.6671 142.309 49.839C143.223 50.2218 144.35 50.5247 145.565 50.5247C146.827 50.5247 147.768 50.0968 147.768 49.2199C147.768 48.4285 147.041 47.958 145.287 47.4875C142.785 46.803 140.988 45.7122 140.988 43.5091C140.988 41.5199 142.443 40.0013 144.967 39.595V38.338C144.967 37.9336 145.294 37.6058 145.699 37.6058H146.437C146.842 37.6058 147.169 37.9336 147.169 38.338V39.4666C148.382 39.5152 149.264 39.7224 149.965 39.9685C150.323 40.0945 150.52 40.4812 150.42 40.8482L150.126 41.9308C150.013 42.3483 149.567 42.577 149.162 42.424C148.518 42.1801 147.606 41.9262 146.421 41.9262C144.924 41.9262 144.496 42.5465 144.496 43.1026C144.496 43.787 145.394 44.2575 147.341 44.8566C150.121 45.6907 151.276 46.8457 151.276 48.9204C151.276 50.8241 149.865 52.5351 147.127 52.9629V54.3693C147.127 54.7738 146.799 55.1016 146.394 55.1016H145.656C145.252 55.1017 144.924 54.774 144.924 54.3695Z" fill="url(#paint14_linear_1_2)"/>
<path d="M185.948 53.319C199.521 53.319 210.525 42.3153 210.525 28.7416C210.525 15.1679 199.521 4.16418 185.948 4.16418C172.374 4.16418 161.37 15.1679 161.37 28.7416C161.37 42.3153 172.374 53.319 185.948 53.319Z" fill="url(#paint15_linear_1_2)"/>
<path d="M185.948 52.5018C199.07 52.5018 209.708 41.864 209.708 28.7417C209.708 15.6193 199.07 4.98157 185.948 4.98157C172.825 4.98157 162.188 15.6193 162.188 28.7417C162.188 41.864 172.825 52.5018 185.948 52.5018Z" fill="url(#paint16_linear_1_2)"/>
<path opacity="0.78" d="M166.355 19.2663C166.295 19.2663 166.234 19.2528 166.177 19.2239C165.983 19.1256 165.905 18.8882 166.003 18.6939C169.826 11.1193 177.469 6.4137 185.948 6.4137C187.302 6.4137 188.657 6.53552 189.976 6.77603C190.19 6.81492 190.332 7.02039 190.293 7.23508C190.253 7.44942 190.05 7.59472 189.834 7.55231C188.562 7.32069 187.255 7.20307 185.948 7.20307C177.768 7.20307 170.396 11.7425 166.707 19.0492C166.638 19.1868 166.499 19.2663 166.355 19.2663Z" fill="white"/>
<path opacity="0.78" d="M200.682 43.4799C208.536 35.6265 208.536 22.8937 200.682 15.0403C192.829 7.18687 180.096 7.18687 172.243 15.0403C164.389 22.8937 164.389 35.6265 172.243 43.4799C180.096 51.3333 192.829 51.3333 200.682 43.4799Z" fill="white"/>
<path d="M184.491 44.2093V42.0215C182.211 41.9301 179.955 41.3919 178.352 40.6905C177.78 40.44 177.489 39.798 177.653 39.1954L178.209 37.1573C178.413 36.4098 179.226 36.023 179.94 36.3227C181.53 36.9889 183.492 37.516 185.608 37.516C187.805 37.516 189.444 36.7713 189.444 35.2447C189.444 33.8671 188.178 33.048 185.124 32.229C180.768 31.0374 177.64 29.1384 177.64 25.3033C177.64 21.8404 180.172 19.1969 184.566 18.4895V16.3014C184.566 15.5973 185.137 15.0266 185.841 15.0266H187.126C187.83 15.0266 188.401 15.5973 188.401 16.3014V18.2658C190.511 18.3504 192.048 18.7112 193.267 19.1396C193.891 19.3591 194.233 20.032 194.06 20.6709L193.548 22.5557C193.351 23.2825 192.575 23.6805 191.87 23.4142C190.748 22.9898 189.161 22.5478 187.098 22.5478C184.491 22.5478 183.747 23.6275 183.747 24.5956C183.747 25.787 185.311 26.6062 188.699 27.6488C193.539 29.1009 195.55 31.1115 195.55 34.7232C195.55 38.0371 193.092 41.0158 188.326 41.7605V44.209C188.326 44.9131 187.756 45.4838 187.052 45.4838H185.766C185.062 45.4842 184.491 44.9135 184.491 44.2093Z" fill="url(#paint17_linear_1_2)"/>
<path d="M202.898 108.926C216.865 108.926 228.187 97.6036 228.187 83.6364C228.187 69.6692 216.865 58.3466 202.898 58.3466C188.931 58.3466 177.608 69.6692 177.608 83.6364C177.608 97.6036 188.931 108.926 202.898 108.926Z" fill="url(#paint18_linear_1_2)"/>
<path d="M202.898 108.085C216.4 108.085 227.347 97.1392 227.347 83.6365C227.347 70.1337 216.4 59.1876 202.898 59.1876C189.395 59.1876 178.449 70.1337 178.449 83.6365C178.449 97.1392 189.395 108.085 202.898 108.085Z" fill="url(#paint19_linear_1_2)"/>
<path opacity="0.78" d="M182.737 73.8751C182.677 73.8751 182.616 73.8617 182.559 73.8327C182.365 73.7345 182.286 73.497 182.385 73.3028C186.317 65.5123 194.177 60.6726 202.897 60.6726C204.289 60.6726 205.683 60.7983 207.04 61.0457C207.254 61.0846 207.396 61.29 207.357 61.5047C207.318 61.7191 207.112 61.8636 206.898 61.822C205.588 61.583 204.242 61.462 202.898 61.462C194.477 61.462 186.887 66.1351 183.089 73.6582C183.02 73.7957 182.881 73.8751 182.737 73.8751Z" fill="white"/>
<path opacity="0.78" d="M218.059 98.8017C226.14 90.7207 226.14 77.6187 218.059 69.5376C209.978 61.4566 196.876 61.4566 188.795 69.5376C180.714 77.6187 180.714 90.7207 188.795 98.8017C196.876 106.883 209.978 106.883 218.059 98.8017Z" fill="white"/>
<path d="M201.399 99.5527V97.3013C199.053 97.2074 196.731 96.6535 195.082 95.9318C194.494 95.6741 194.194 95.0134 194.363 94.3934L194.935 92.2963C195.144 91.5271 195.981 91.1291 196.716 91.4374C198.352 92.123 200.371 92.6654 202.549 92.6654C204.809 92.6654 206.495 91.8991 206.495 90.3282C206.495 88.9107 205.192 88.0679 202.051 87.2251C197.568 85.9991 194.35 84.0451 194.35 80.0988C194.35 76.5355 196.955 73.8153 201.476 73.0874V70.8359C201.476 70.1115 202.063 69.5242 202.788 69.5242H204.11C204.835 69.5242 205.422 70.1115 205.422 70.8359V72.8574C207.594 72.9444 209.175 73.3157 210.429 73.7565C211.072 73.9823 211.423 74.6747 211.245 75.3322L210.719 77.2716C210.516 78.0196 209.717 78.4292 208.992 78.155C207.837 77.7183 206.204 77.2635 204.081 77.2635C201.399 77.2635 200.633 78.3745 200.633 79.3706C200.633 80.5967 202.242 81.4395 205.729 82.5124C210.709 84.0066 212.778 86.0754 212.778 89.7919C212.778 93.2018 210.25 96.2669 205.346 97.0333V99.5528C205.346 100.277 204.758 100.864 204.034 100.864H202.711C201.987 100.864 201.399 100.277 201.399 99.5527Z" fill="url(#paint20_linear_1_2)"/>
<path d="M235.341 67.7164C245.575 67.7164 253.871 59.4204 253.871 49.1867C253.871 38.9531 245.575 30.657 235.341 30.657C225.108 30.657 216.812 38.9531 216.812 49.1867C216.812 59.4204 225.108 67.7164 235.341 67.7164Z" fill="url(#paint21_linear_1_2)"/>
<path d="M235.341 67.1002C245.235 67.1002 253.255 59.0801 253.255 49.1867C253.255 39.2933 245.235 31.2732 235.341 31.2732C225.448 31.2732 217.428 39.2933 217.428 49.1867C217.428 59.0801 225.448 67.1002 235.341 67.1002Z" fill="url(#paint22_linear_1_2)"/>
<path opacity="0.78" d="M220.57 42.1401C220.51 42.1401 220.449 42.1267 220.392 42.0977C220.198 41.9995 220.119 41.762 220.218 41.5678C223.116 35.8239 228.912 32.256 235.341 32.256C236.368 32.256 237.396 32.3486 238.395 32.5309C238.61 32.5698 238.752 32.7752 238.712 32.9899C238.674 33.2043 238.467 33.3491 238.253 33.3072C237.301 33.1337 236.321 33.0454 235.341 33.0454C229.211 33.0454 223.686 36.4471 220.922 41.9231C220.853 42.0608 220.714 42.1401 220.57 42.1401Z" fill="white"/>
<path opacity="0.78" d="M246.449 60.2988C252.37 54.3779 252.37 44.7782 246.449 38.8572C240.528 32.9363 230.929 32.9363 225.008 38.8572C219.087 44.7782 219.087 54.3779 225.008 60.2988C230.929 66.2197 240.528 66.2197 246.449 60.2988Z" fill="white"/>
<path d="M234.244 60.8483V59.1988C232.524 59.13 230.823 58.7241 229.615 58.1953C229.184 58.0064 228.964 57.5224 229.088 57.0681L229.507 55.5317C229.661 54.9679 230.274 54.6765 230.812 54.9023C232.011 55.4047 233.491 55.8022 235.086 55.8022C236.742 55.8022 237.977 55.2406 237.977 54.0897C237.977 53.051 237.023 52.4336 234.721 51.8161C231.437 50.9177 229.079 49.486 229.079 46.5946C229.079 43.9838 230.987 41.9908 234.3 41.4575V39.8078C234.3 39.277 234.73 38.8466 235.261 38.8466H236.23C236.761 38.8466 237.191 39.2769 237.191 39.8078V41.2889C238.782 41.3525 239.941 41.6246 240.86 41.9476C241.331 42.1131 241.588 42.6204 241.457 43.1021L241.072 44.5232C240.924 45.0711 240.338 45.3713 239.807 45.1704C238.961 44.8504 237.764 44.5171 236.209 44.5171C234.244 44.5171 233.682 45.3311 233.682 46.0611C233.682 46.9593 234.861 47.5768 237.416 48.3629C241.065 49.4576 242.581 50.9735 242.581 53.6965C242.581 56.195 240.728 58.4407 237.135 59.0022V60.8483C237.135 61.379 236.705 61.8094 236.174 61.8094H235.205C234.674 61.8095 234.244 61.3792 234.244 60.8483Z" fill="url(#paint23_linear_1_2)"/>
<path d="M46.2735 265.115C46.2735 265.115 45.561 269.148 45.2117 273.14C45.0752 274.701 46.2782 276.055 47.8431 276.121C53.1597 276.342 64.5323 276.773 68.6131 276.59C69.2266 276.563 69.6277 275.935 69.4008 275.364C69.2105 274.886 68.8435 274.5 68.376 274.285L49.5908 265.651L46.2735 265.115Z" fill="#2A8E9E"/>
<path d="M45.6899 262.745L46.2624 267.569C46.2624 267.569 49.553 269.101 51.8004 267.376L50.4376 262L45.6899 262.745Z" fill="url(#paint24_linear_1_2)"/>
<path d="M46.1201 172.05C45.8728 173.309 44.7931 234.917 51.3783 262.525C51.4858 262.975 51.2574 263.439 50.8286 263.615C49.8186 264.027 47.8385 264.625 45.4654 264.705C44.7305 264.729 44.0716 264.252 43.8642 263.546C41.9819 257.141 32.9618 225.047 31.785 194.389C30.4703 160.132 31.785 193.223 31.785 193.223L32.5562 172.047L46.1201 172.05Z" fill="#2A8E9E"/>
<path d="M24.6642 267.219C24.6642 267.219 23.5302 269.255 22.4323 274.665C22.234 275.642 22.9168 276.577 23.909 276.675C25.6646 276.848 28.3671 277.07 30.532 277.055C31.53 277.048 32.3089 276.179 32.1886 275.188C31.9488 273.213 31.2017 269.973 28.8939 267.448L24.6642 267.219Z" fill="#2A8E9E"/>
<path d="M23.6685 261.014L25.0059 268.309C25.0059 268.309 26.3282 269.293 28.9441 268.58L28.3058 260.731L23.6685 261.014Z" fill="url(#paint25_linear_1_2)"/>
<path d="M20.0554 173.94C14.6693 206.445 21.2236 254.278 23.4341 263.639C23.5693 264.213 24.032 264.652 24.613 264.748C25.5996 264.912 27.2241 265.045 28.8257 264.58C29.3775 264.42 29.765 263.922 29.7876 263.348C30.0842 255.779 29.5504 209.313 34.5689 190.949C34.8232 190.019 35.3915 189.207 36.1779 188.648L45.9183 181.724L46.6651 170.531L20.0554 173.94Z" fill="#2A8E9E"/>
<path d="M54.3744 112.351C38.2337 112.084 20.4245 116.589 20.4245 116.589C15.6133 144.662 19.5832 177.042 19.5832 177.042C32.0788 180.319 46.1745 175.038 46.1745 175.038C48.2515 163.304 57.9414 130.282 57.9414 130.282C65.8276 129.303 72.3241 127.027 77.6742 124.019C73.5933 119.289 71.6695 113.27 70.8339 109.712C65.1274 111.486 59.3528 112.433 54.3744 112.351Z" fill="url(#paint26_linear_1_2)"/>
<path d="M102.051 88.5764C100.465 86.6613 98.4584 87.5673 98.4584 87.5673C96.0831 97.6005 83.629 105.736 70.834 109.712C71.6696 113.27 73.5934 119.289 77.6742 124.019C98.9086 112.08 102.051 88.5764 102.051 88.5764Z" fill="url(#paint27_linear_1_2)"/>
<path d="M101.666 89.0634C101.832 89.5909 99.911 90.3939 98.7798 88.2369C98.7402 87.203 98.1116 82.774 98.7294 81.9318C102.019 77.4463 108.398 71.8232 108.398 71.8232C109.477 72.887 108.588 73.9319 108.588 73.9319L105.494 77.1555C106.141 78.3252 106.931 79.3125 107.301 80.7272C107.581 81.7987 107.41 82.9436 106.868 83.9187C106.325 84.8972 105.584 86.1693 104.884 87.1649C103.557 89.0493 101.666 89.0634 101.666 89.0634Z" fill="url(#paint28_linear_1_2)"/>
<path d="M104.14 79.2472L101.32 81.6377L100.435 84.0177L102.949 86.8071C102.949 86.8071 103.794 82.0845 104.423 81.0624C105.051 80.0404 104.725 79.5461 104.14 79.2472Z" fill="url(#paint29_linear_1_2)"/>
<path d="M26.6156 132.218L20.4248 116.589C20.4248 116.589 5.34857 126.832 2.86914 139.82C5.71779 140.03 10.9014 140.771 15.9752 143.333C17.0902 137.2 26.6156 132.218 26.6156 132.218Z" fill="url(#paint30_linear_1_2)"/>
<path d="M39.7904 146.924C39.7904 146.924 22.8636 156.49 17.1523 148.321C15.9665 146.625 15.683 144.94 15.9751 143.333C10.9013 140.771 5.71771 140.03 2.86906 139.82C2.12151 143.735 2.51678 147.9 4.8175 152.108C14.8219 170.409 42.0304 151.097 42.0304 151.097L39.7904 146.924Z" fill="url(#paint31_linear_1_2)"/>
<path d="M37.7568 159.026L46.9948 126.765C47.0996 126.399 47.412 126.131 47.7905 126.087C49.4642 125.892 54.3141 125.344 59.9138 124.87C66.659 124.3 74.492 123.837 79.1727 124.231C79.8382 124.286 80.2403 124.99 79.9445 125.589C77.2827 130.974 66.3338 152.879 60.8511 160.055C60.6693 160.293 60.3884 160.432 60.0893 160.429L38.6556 160.23C38.0317 160.224 37.5851 159.626 37.7568 159.026Z" fill="#2A8E9E"/>
<path d="M60.8719 122.073L67.5697 120.957C67.9264 120.898 68.2185 121.239 68.1052 121.582L67.4422 123.591C67.3844 123.766 67.232 123.892 67.0494 123.917L60.6042 124.778C60.2708 124.822 59.9959 124.519 60.0725 124.192L60.483 122.438C60.5271 122.249 60.6806 122.105 60.8719 122.073Z" fill="#2A8E9E"/>
<path d="M55.8569 127.743L56.4087 124.869C56.464 124.581 56.702 124.363 56.994 124.334L70.5218 122.961C70.9771 122.915 71.3418 123.332 71.2349 123.777L70.3748 127.358C70.306 127.645 70.0566 127.852 69.7621 127.867L56.5426 128.532C56.1124 128.554 55.7757 128.167 55.8569 127.743Z" fill="#2A8E9E"/>
<path d="M39.9888 151.232C39.9888 151.232 38.7019 145.94 39.221 144.063C39.7402 142.185 40.7459 139.772 44.0982 140.308C47.4507 140.844 51.4051 142.257 51.4051 142.257C51.4051 142.257 51.2054 144.702 48.6575 143.913L50.2375 145.136C50.2375 145.136 50.0118 147.094 47.8596 146.048L49.3291 147.669C49.3291 147.669 48.4049 149.277 46.8216 148.246C45.238 147.214 44.479 151.869 39.9888 151.232Z" fill="url(#paint32_linear_1_2)"/>
<path d="M38.0255 99.2469L32.8898 114.099C32.8047 114.345 32.9058 114.617 33.1336 114.743C34.5336 115.517 39.5772 117.755 45.6553 113.901C46.2885 113.5 46.7195 112.845 46.8157 112.101L48.4787 99.2468L38.0255 99.2469Z" fill="url(#paint33_linear_1_2)"/>
<path d="M51.2848 86.0731C51.3996 86.3063 53.337 103.39 53.337 103.39L43.5592 104.289L39.3174 88.3698C39.3174 88.3698 49.3618 82.1675 51.2848 86.0731Z" fill="url(#paint34_linear_1_2)"/>
<path d="M42.4988 91.1906L44.0755 99.7453C44.0957 99.855 44.1296 99.9588 44.1788 100.059C44.4796 100.672 45.669 102.705 47.6749 101.361C49.495 100.142 51.1742 99.0562 52.5699 99.0319C53.1965 99.0211 53.7282 99.4867 53.7987 100.109C53.9742 101.662 54.3054 105.167 54.1284 108.256C54.0925 108.883 53.5781 109.373 52.9505 109.392C51.0594 109.45 47.0676 109.46 43.8544 108.716C43.419 108.615 43.0735 108.29 42.9533 107.859C42.3678 105.761 40.5646 99.3884 39.7875 97.6905C39.058 96.0968 36.7036 95.7654 35.7049 95.6967C35.3775 95.6741 35.0765 95.5198 34.8667 95.2675C34.1247 94.3758 32.7906 92.1881 35.4626 90.2455C36.0219 89.8389 36.1324 89.0576 35.709 88.5109C34.8661 87.4226 34.0685 85.6032 36.0432 83.8162C38.0504 81.9997 40.2121 82.6819 41.4902 83.3918C42.007 83.6789 42.6421 83.5418 43.0197 83.0871C43.2348 82.8281 43.5652 82.6587 44.0716 82.7843C44.754 82.9534 45.4272 82.4682 45.5247 81.7719C45.7121 80.4343 46.4567 78.8246 48.8848 78.471C53.1934 77.8435 55.1255 82.216 54.9102 85.2163C54.6948 88.2165 49.9848 88.6312 47.3524 88.0095C45.3509 87.5368 43.5289 89.3061 42.7706 90.1815C42.5303 90.4586 42.4323 90.8297 42.4988 91.1906Z" fill="#2A8E9E"/>
<path d="M40.3923 100.8C40.3923 100.8 40.5431 95.5557 38.4454 94.9653C36.3476 94.3749 33.9886 95.802 35.6569 99.023C37.732 103.03 40.3923 100.8 40.3923 100.8Z" fill="url(#paint35_linear_1_2)"/>
</g>
<defs>
<linearGradient id="paint0_linear_1_2" x1="333.131" y1="305.934" x2="145.072" y2="63.7994" gradientUnits="userSpaceOnUse">
<stop stop-color="#ECF9FB"/>
<stop offset="1" stop-color="#CFEEF3"/>
</linearGradient>
<linearGradient id="paint1_linear_1_2" x1="241.613" y1="186.506" x2="305.751" y2="186.506" gradientUnits="userSpaceOnUse">
<stop stop-color="#DAE3FE"/>
<stop offset="1" stop-color="#E9EFFD"/>
</linearGradient>
<linearGradient id="paint2_linear_1_2" x1="279.399" y1="106.17" x2="275.848" y2="212.336" gradientUnits="userSpaceOnUse">
<stop stop-color="#FF928E"/>
<stop offset="1" stop-color="#FE7062"/>
</linearGradient>
<linearGradient id="paint3_linear_1_2" x1="178.18" y1="208.601" x2="199.492" y2="208.601" gradientUnits="userSpaceOnUse">
<stop stop-color="#2A8E9E"/>
<stop offset="1" stop-color="#176370"/>
</linearGradient>
<linearGradient id="paint4_linear_1_2" x1="208.174" y1="208.6" x2="229.486" y2="208.6" gradientUnits="userSpaceOnUse">
<stop stop-color="#2A8E9E"/>
<stop offset="1" stop-color="#195E69"/>
</linearGradient>
<linearGradient id="paint5_linear_1_2" x1="236.985" y1="208.6" x2="258.297" y2="208.6" gradientUnits="userSpaceOnUse">
<stop stop-color="#2A8E9E"/>
<stop offset="1" stop-color="#195E69"/>
</linearGradient>
<linearGradient id="paint6_linear_1_2" x1="178.18" y1="227.939" x2="199.492" y2="227.939" gradientUnits="userSpaceOnUse">
<stop stop-color="#2A8E9E"/>
<stop offset="1" stop-color="#195E69"/>
</linearGradient>
<linearGradient id="paint7_linear_1_2" x1="208.174" y1="227.939" x2="229.486" y2="227.939" gradientUnits="userSpaceOnUse">
<stop stop-color="#2A8E9E"/>
<stop offset="1" stop-color="#1C6571"/>
</linearGradient>
<linearGradient id="paint8_linear_1_2" x1="236.985" y1="227.939" x2="258.297" y2="227.939" gradientUnits="userSpaceOnUse">
<stop stop-color="#2A8E9E"/>
<stop offset="1" stop-color="#1C6571"/>
</linearGradient>
<linearGradient id="paint9_linear_1_2" x1="178.18" y1="248.067" x2="199.492" y2="248.067" gradientUnits="userSpaceOnUse">
<stop stop-color="#2A8E9E"/>
<stop offset="1" stop-color="#195E69"/>
</linearGradient>
<linearGradient id="paint10_linear_1_2" x1="208.174" y1="248.067" x2="229.486" y2="248.067" gradientUnits="userSpaceOnUse">
<stop stop-color="#2A8E9E"/>
<stop offset="1" stop-color="#195E69"/>
</linearGradient>
<linearGradient id="paint11_linear_1_2" x1="236.985" y1="248.067" x2="258.297" y2="248.067" gradientUnits="userSpaceOnUse">
<stop stop-color="#2A8E9E"/>
<stop offset="1" stop-color="#195E69"/>
</linearGradient>
<linearGradient id="paint12_linear_1_2" x1="126.44" y1="67.9086" x2="145.377" y2="45.9282" gradientUnits="userSpaceOnUse">
<stop stop-color="#E1473D"/>
<stop offset="1" stop-color="#E9605A"/>
</linearGradient>
<linearGradient id="paint13_linear_1_2" x1="156.078" y1="29.8964" x2="100.081" y2="114.492" gradientUnits="userSpaceOnUse">
<stop stop-color="#FF928E"/>
<stop offset="1" stop-color="#FE7062"/>
</linearGradient>
<linearGradient id="paint14_linear_1_2" x1="154.408" y1="32.3204" x2="124.59" y2="82.3787" gradientUnits="userSpaceOnUse">
<stop stop-color="#FF928E"/>
<stop offset="1" stop-color="#FE7062"/>
</linearGradient>
<linearGradient id="paint15_linear_1_2" x1="152.316" y1="67.7785" x2="185.282" y2="29.5145" gradientUnits="userSpaceOnUse">
<stop stop-color="#E1473D"/>
<stop offset="1" stop-color="#E9605A"/>
</linearGradient>
<linearGradient id="paint16_linear_1_2" x1="203.91" y1="1.60608" x2="106.428" y2="148.873" gradientUnits="userSpaceOnUse">
<stop stop-color="#FF928E"/>
<stop offset="1" stop-color="#FE7062"/>
</linearGradient>
<linearGradient id="paint17_linear_1_2" x1="201.001" y1="5.82568" x2="149.094" y2="92.9687" gradientUnits="userSpaceOnUse">
<stop stop-color="#FF928E"/>
<stop offset="1" stop-color="#FE7062"/>
</linearGradient>
<linearGradient id="paint18_linear_1_2" x1="168.291" y1="123.805" x2="202.212" y2="84.4318" gradientUnits="userSpaceOnUse">
<stop stop-color="#E1473D"/>
<stop offset="1" stop-color="#E9605A"/>
</linearGradient>
<linearGradient id="paint19_linear_1_2" x1="221.38" y1="55.7144" x2="121.073" y2="207.25" gradientUnits="userSpaceOnUse">
<stop stop-color="#FF928E"/>
<stop offset="1" stop-color="#FE7062"/>
</linearGradient>
<linearGradient id="paint20_linear_1_2" x1="218.388" y1="60.0563" x2="164.976" y2="149.725" gradientUnits="userSpaceOnUse">
<stop stop-color="#FF928E"/>
<stop offset="1" stop-color="#FE7062"/>
</linearGradient>
<linearGradient id="paint21_linear_1_2" x1="209.985" y1="78.6179" x2="234.839" y2="49.7694" gradientUnits="userSpaceOnUse">
<stop stop-color="#E1473D"/>
<stop offset="1" stop-color="#E9605A"/>
</linearGradient>
<linearGradient id="paint22_linear_1_2" x1="248.883" y1="28.7284" x2="175.389" y2="139.757" gradientUnits="userSpaceOnUse">
<stop stop-color="#FF928E"/>
<stop offset="1" stop-color="#FE7062"/>
</linearGradient>
<linearGradient id="paint23_linear_1_2" x1="246.691" y1="31.9096" x2="207.557" y2="97.6096" gradientUnits="userSpaceOnUse">
<stop stop-color="#FF928E"/>
<stop offset="1" stop-color="#FE7062"/>
</linearGradient>
<linearGradient id="paint24_linear_1_2" x1="45.6899" y1="265.098" x2="51.8003" y2="265.098" gradientUnits="userSpaceOnUse">
<stop stop-color="#FF928E"/>
<stop offset="1" stop-color="#FEB3B1"/>
</linearGradient>
<linearGradient id="paint25_linear_1_2" x1="23.6685" y1="264.785" x2="28.9443" y2="264.785" gradientUnits="userSpaceOnUse">
<stop stop-color="#FF928E"/>
<stop offset="1" stop-color="#FEB3B1"/>
</linearGradient>
<linearGradient id="paint26_linear_1_2" x1="74.7105" y1="72.4117" x2="21.562" y2="171.605" gradientUnits="userSpaceOnUse">
<stop stop-color="#FF928E"/>
<stop offset="1" stop-color="#FE7062"/>
</linearGradient>
<linearGradient id="paint27_linear_1_2" x1="97.2371" y1="69.3154" x2="86.4561" y2="100.118" gradientUnits="userSpaceOnUse">
<stop stop-color="#FF928E"/>
<stop offset="1" stop-color="#FEB3B1"/>
</linearGradient>
<linearGradient id="paint28_linear_1_2" x1="141.808" y1="70.525" x2="94.4475" y2="83.5491" gradientUnits="userSpaceOnUse">
<stop stop-color="#FF928E"/>
<stop offset="1" stop-color="#FEB3B1"/>
</linearGradient>
<linearGradient id="paint29_linear_1_2" x1="98.1697" y1="92.2204" x2="106.29" y2="75.8387" gradientUnits="userSpaceOnUse">
<stop stop-color="#FF928E"/>
<stop offset="1" stop-color="#FEB3B1"/>
</linearGradient>
<linearGradient id="paint30_linear_1_2" x1="54.1346" y1="61.3871" x2="0.985969" y2="160.58" gradientUnits="userSpaceOnUse">
<stop stop-color="#FF928E"/>
<stop offset="1" stop-color="#FE7062"/>
</linearGradient>
<linearGradient id="paint31_linear_1_2" x1="2.5254" y1="149.904" x2="42.0305" y2="149.904" gradientUnits="userSpaceOnUse">
<stop stop-color="#FF928E"/>
<stop offset="1" stop-color="#FEB3B1"/>
</linearGradient>
<linearGradient id="paint32_linear_1_2" x1="39.0976" y1="145.762" x2="51.4051" y2="145.762" gradientUnits="userSpaceOnUse">
<stop stop-color="#FF928E"/>
<stop offset="1" stop-color="#FEB3B1"/>
</linearGradient>
<linearGradient id="paint33_linear_1_2" x1="44.2719" y1="89.6739" x2="39.0097" y2="117.564" gradientUnits="userSpaceOnUse">
<stop stop-color="#FF928E"/>
<stop offset="1" stop-color="#FEB3B1"/>
</linearGradient>
<linearGradient id="paint34_linear_1_2" x1="47.8627" y1="87.8852" x2="41.6934" y2="120.007" gradientUnits="userSpaceOnUse">
<stop stop-color="#FF928E"/>
<stop offset="1" stop-color="#FEB3B1"/>
</linearGradient>
<linearGradient id="paint35_linear_1_2" x1="31.0734" y1="119.184" x2="38.0967" y2="97.6343" gradientUnits="userSpaceOnUse">
<stop stop-color="#FF928E"/>
<stop offset="1" stop-color="#FEB3B1"/>
</linearGradient>
<clipPath id="clip0_1_2">
<rect width="322" height="278" fill="white"/>
</clipPath>
</defs>
</svg>
