<svg width="322" height="197" viewBox="0 0 322 197" fill="none" xmlns="http://www.w3.org/2000/svg">
<g clip-path="url(#clip0_1_108)">
<mask id="mask0_1_108" style="mask-type:luminance" maskUnits="userSpaceOnUse" x="0" y="0" width="322" height="197">
<path d="M322 0H0V197H322V0Z" fill="white"/>
</mask>
<g mask="url(#mask0_1_108)">
<path d="M28.1836 179.929H305.966L291.623 103.884C284.326 65.1927 246.487 40.8357 209.091 50.7587L166.034 62.1841C156.521 64.7084 146.583 65.0904 136.911 63.3035L128.147 61.6844C84.9602 53.7062 43.74 83.3575 36.6262 127.519L28.1836 179.929Z" fill="#2A8E9E" fill-opacity="0.21"/>
<mask id="mask1_1_108" style="mask-type:luminance" maskUnits="userSpaceOnUse" x="28" y="48" width="278" height="132">
<path d="M28.1836 179.929H305.966L291.623 103.884C284.326 65.1927 246.487 40.8357 209.091 50.7587L166.034 62.1841C156.521 64.7084 146.583 65.0904 136.911 63.3035L128.147 61.6844C84.9602 53.7062 43.74 83.3575 36.6262 127.519L28.1836 179.929Z" fill="white"/>
</mask>
<g mask="url(#mask1_1_108)">
<path opacity="0.7" d="M288.303 185.02V123.662H252.941V88.5326H157.892V142.418H28.1837L22.083 184.319L288.303 185.02Z" fill="#E6F5F8"/>
</g>
<path d="M230.528 170.709L230.781 172.833L226.084 177.801C225.525 178.393 225.365 179.268 225.678 180.026L237.516 174.938L234.528 168.99L230.528 170.709Z" fill="#2A8E9E"/>
<path d="M178.895 77.9531L168.685 74.4801L168.278 79.0634L178.895 85.7909V77.9531Z" fill="#F4D2C6"/>
<mask id="mask2_1_108" style="mask-type:luminance" maskUnits="userSpaceOnUse" x="168" y="74" width="11" height="12">
<path d="M178.895 77.9531L168.685 74.4801L168.278 79.0634L178.895 85.7909V77.9531Z" fill="white"/>
</mask>
<g mask="url(#mask2_1_108)">
<path d="M176.561 75.6028L175.143 84.592L181.222 88.3376L181.932 75.9129L176.561 75.6028Z" fill="#EDA19D"/>
</g>
<path d="M169.15 74.6382C169.15 74.6382 164.85 69.8478 164.376 70.147C163.1 70.9523 165.925 73.4921 165.409 73.616C164.892 73.7398 158.453 73.0275 158.301 73.6469C158.149 74.2664 159.668 78.7266 160.457 79.0673C161.247 79.408 168.932 79.2531 168.932 79.2531L169.15 74.6382Z" fill="#F4D2C6"/>
<path d="M196.544 97.4206L187.381 120.799C186.596 122.802 186.192 124.94 186.192 127.098V173.265H193.07L200.593 127.996L217.252 101.649L196.544 97.4206Z" fill="#4F8189"/>
<mask id="mask3_1_108" style="mask-type:luminance" maskUnits="userSpaceOnUse" x="186" y="97" width="32" height="77">
<path d="M196.544 97.4206L187.381 120.799C186.596 122.802 186.192 124.94 186.192 127.098V173.265H193.07L200.593 127.996L217.252 101.649L196.544 97.4206Z" fill="white"/>
</mask>
<g mask="url(#mask3_1_108)">
<path d="M206.232 119.076L205.269 107.076C205.269 107.076 194.51 125.758 194.332 128.838C194.155 131.918 190.067 174.501 190.067 174.501H195.043L202.507 128.113L206.232 119.076Z" fill="#4F8189"/>
</g>
<path d="M204.519 97.7376L206.868 126.983C207.001 128.637 207.459 130.247 208.215 131.716L229.589 173.265L235.68 170.007L222.252 128.024L224.512 102.381L204.519 97.7376Z" fill="#4F8189"/>
<mask id="mask4_1_108" style="mask-type:luminance" maskUnits="userSpaceOnUse" x="204" y="97" width="32" height="77">
<path d="M204.519 97.7376L206.868 126.983C207.001 128.637 207.459 130.247 208.215 131.716L229.589 173.265L235.68 170.007L222.252 128.024L224.512 102.381L204.519 97.7376Z" fill="white"/>
</mask>
<g mask="url(#mask4_1_108)">
<path d="M205.228 103.67C205.228 103.67 211.434 112.765 225.998 115.466L226.742 104.906L205.889 102.134L205.228 103.67Z" fill="#4F8189"/>
</g>
<path d="M187.295 173.265L186.72 175.322L180.499 178.041C179.758 178.364 179.278 179.107 179.278 179.929H192.124L191.636 173.265H187.295Z" fill="#2A8E9E"/>
<path d="M210.325 49.7714C210.325 49.7714 210.608 39.9026 220.411 43.9901C220.411 43.9901 214.353 50.3214 210.325 49.7714Z" fill="#59445A"/>
<path d="M222.115 53.3551C222.928 49.2136 220.881 45.3038 217.543 44.6222C214.204 43.9407 210.838 46.7455 210.025 50.887C209.212 55.0285 211.259 58.9384 214.598 59.6199C217.936 60.3015 221.302 57.4966 222.115 53.3551Z" fill="#F4D2C6"/>
<mask id="mask5_1_108" style="mask-type:luminance" maskUnits="userSpaceOnUse" x="209" y="44" width="14" height="16">
<path d="M222.115 53.3551C222.928 49.2136 220.881 45.3038 217.543 44.6222C214.204 43.9407 210.838 46.7455 210.025 50.887C209.212 55.0285 211.259 58.9384 214.598 59.6199C217.936 60.3015 221.302 57.4966 222.115 53.3551Z" fill="white"/>
</mask>
<g mask="url(#mask5_1_108)">
<path d="M210.325 49.7714C210.325 49.7714 213.75 51.6147 217.792 50.7716L218.636 51.8174L219.221 49.5232L210.717 47.2992L210.325 49.7714Z" fill="#EDA19D"/>
</g>
<path d="M222.211 52.8531C222.211 52.8531 219.345 64.3111 219.869 67.9863C219.869 67.9863 215.877 68.3808 212.398 66.461C212.398 66.461 216.678 57.0532 216.667 54.6922L222.211 52.8531Z" fill="#F4D2C6"/>
<path d="M215.228 59.7016C215.228 59.7016 216.515 59.9448 218.482 58.8858C218.482 58.8858 217.501 61.9366 214.516 61.514L215.228 59.7016Z" fill="#EDA19D"/>
<path d="M211.004 48.202C211.004 48.202 213.648 49.3361 218.17 49.7948C218.17 49.7948 218.997 51.5167 218.449 53.026C217.38 55.9731 221.31 56.7755 221.31 56.7755C221.31 56.7755 225.052 50.9655 224.304 47.759C223.796 45.5817 221.469 44.337 219.39 43.5813C217.817 43.0097 215.058 42.9405 213.71 43.944C212.891 44.5527 211.549 46.2697 211.004 48.202Z" fill="#59445A"/>
<path d="M220.295 53.4219C220.149 54.1682 219.436 54.6521 218.705 54.5026C217.973 54.3532 217.498 53.627 217.645 52.8807C217.791 52.1344 218.503 51.6506 219.235 51.8001C219.967 51.9495 220.442 52.6756 220.295 53.4219Z" fill="#F4D2C6"/>
<path d="M212.334 44.1948L222.696 54.6617C222.696 54.6617 228.443 49.8167 223.197 44.5078C216.755 37.9874 212.334 44.1948 212.334 44.1948Z" fill="#49B1C2"/>
<path d="M217.637 49.5519L211.423 49.1767C209.544 49.0632 207.79 48.1736 206.568 46.7133L204.361 44.0777L212.334 44.1948L217.637 49.5519Z" fill="#4F8189"/>
<path d="M223.196 44.8601C223.034 45.0617 222.502 44.8906 222.009 44.478C221.515 44.0654 221.246 43.5674 221.409 43.3658C221.571 43.1642 222.102 43.3353 222.596 43.7479C223.089 44.1605 223.358 44.6585 223.196 44.8601Z" fill="#4F8189"/>
<path d="M227.227 77.4623C227.528 70.9912 223.97 65.5175 218.771 64.4561L215.821 63.8536C210.622 62.7922 205.271 66.4467 203.105 72.5371L193.194 100.409L225.85 107.076L227.227 77.4623Z" fill="#49B1C2"/>
<mask id="mask6_1_108" style="mask-type:luminance" maskUnits="userSpaceOnUse" x="193" y="63" width="35" height="45">
<path d="M227.227 77.4623C227.528 70.9912 223.97 65.5175 218.771 64.4561L215.821 63.8536C210.622 62.7922 205.271 66.4467 203.105 72.5371L193.194 100.409L225.85 107.076L227.227 77.4623Z" fill="white"/>
</mask>
<g mask="url(#mask6_1_108)">
<path d="M219.403 88.1788C219.403 88.1788 219.392 102.919 226.717 105.271L227.245 85.8849L219.403 88.1788Z" fill="#2A8E9E"/>
</g>
<path d="M197.987 51.1084H173.787V78.0073H197.987V51.1084Z" fill="#F3AC4A"/>
<path d="M211.39 51.1084H197.992V78.0073H211.39V51.1084Z" fill="#F08F3C"/>
<path d="M187.48 51.1084H184.294V53.8092H187.48V51.1084Z" fill="#FDF1E6"/>
<path d="M206.705 51.1084H203.518V53.8092H206.705V51.1084Z" fill="#FDF1E6"/>
<path d="M203.095 78.0073H178.896V104.906H203.095V78.0073Z" fill="#F3AC4A"/>
<path d="M216.499 78.0073H203.1V104.906H216.499V78.0073Z" fill="#F08F3C"/>
<path d="M192.589 78.0073H189.402V80.7082H192.589V78.0073Z" fill="#FDF1E6"/>
<path d="M211.813 78.0073H208.626V80.7082H211.813V78.0073Z" fill="#FDF1E6"/>
<path opacity="0.54" d="M178.896 78.0073H197.992L178.896 83.0287V78.0073Z" fill="#F08F3C"/>
<path d="M226.553 72.1249L230.323 86.2955L218.481 88.3375L217.252 74.8668L226.553 72.1249Z" fill="#49B1C2"/>
<path d="M229.549 86.3947L230.986 91.7964C231.197 92.5903 231.229 93.4227 231.08 94.231C230.728 96.1285 229.417 97.6937 227.634 98.3442L206.349 106.109L203.458 102.318L223.135 91.8816L221.566 87.7679L229.549 86.3947Z" fill="#F4D2C6"/>
<mask id="mask7_1_108" style="mask-type:luminance" maskUnits="userSpaceOnUse" x="203" y="86" width="29" height="21">
<path d="M229.549 86.3947L230.986 91.7964C231.197 92.5903 231.229 93.4227 231.08 94.231C230.728 96.1285 229.417 97.6937 227.634 98.3442L206.349 106.109L203.458 102.318L223.135 91.8816L221.566 87.7679L229.549 86.3947Z" fill="white"/>
</mask>
<g mask="url(#mask7_1_108)">
<path d="M221.94 91.7117C221.94 91.7117 226.52 90.2855 230.324 87.3925L229.693 85.3736L220.421 87.311L221.94 91.7117Z" fill="#EDA19D"/>
</g>
<path d="M203.72 102.179C203.72 102.179 197.938 100.39 197.938 100.555C197.938 100.72 198.495 102.075 199.071 102.452C199.209 102.542 199.462 102.648 199.767 102.758C198.491 103.494 196.528 104.906 196.528 104.906C196.528 104.906 200.782 107.104 202.011 107.076C203.24 107.048 206.348 106.109 206.348 106.109C206.348 106.109 205.083 102.451 203.72 102.179Z" fill="#F4D2C6"/>
<path d="M215.06 63.7318L216.012 65.893C216.345 66.6485 217.132 67.0796 217.935 66.9563C218.861 66.8141 220.096 66.4085 221.212 65.3334L219.957 64.5579L215.06 63.7318Z" fill="white"/>
<path d="M215.059 63.7318L212.918 64.9325C212.466 65.1863 211.911 64.7981 212.003 64.2798C212.026 64.1486 212.064 64.0102 212.122 63.8676C212.122 63.8676 213.574 63.4674 215.059 63.7318Z" fill="white"/>
<path d="M79.5907 142.418H42.8027V179.929H79.5907V142.418Z" fill="#2A8E9E"/>
<path d="M64.1705 142.418H58.2227V146.517H64.1705V142.418Z" fill="#49ADBD"/>
<path d="M74.788 104.906H38V142.418H74.788V104.906Z" fill="#2A8E9E"/>
<path d="M59.3679 104.906H53.4199V109.006H59.3679V104.906Z" fill="white" fill-opacity="0.17"/>
<path opacity="0.25" d="M74.7882 142.418L42.8027 149.253V142.418H74.7882Z" fill="#2A8E9E"/>
<path d="M88.8516 104.906H74.7881V142.418H88.8516V104.906Z" fill="#2A8E9E" fill-opacity="0.63"/>
<path d="M93.5172 142.418H79.4536V179.929H93.5172V142.418Z" fill="#2A8E9E" fill-opacity="0.44"/>
<path d="M125.629 60.3444L130.799 58.4704L144.511 47.0202L150.809 46.7387L134.401 61.2247L127.6 64.5396L125.629 60.3444Z" fill="#EDA19D"/>
<path d="M90.9757 170.551L90.6541 172.665L95.1871 177.789C95.7271 178.399 95.8584 179.279 95.5209 180.026L83.855 174.542L87.0334 168.698L90.9757 170.551Z" fill="#2A8E9E"/>
<path d="M120.596 173.362L121.172 175.419L127.392 178.137C128.133 178.461 128.613 179.204 128.613 180.026H115.768L116.255 173.362H120.596Z" fill="#2A8E9E"/>
<path d="M114.129 47.1682C114.129 47.1682 116.239 48.9979 116.547 51.25C116.64 51.9273 116.478 52.872 116.478 52.872L113.138 48.6785L114.129 47.1682Z" fill="#1A1949"/>
<path d="M112.289 62.1357C115.681 61.2303 117.556 57.085 116.476 52.8769C115.395 48.6687 111.77 45.9913 108.377 46.8966C104.985 47.802 103.111 51.9473 104.191 56.1554C105.271 60.3636 108.897 63.041 112.289 62.1357Z" fill="#F4D2C6"/>
<mask id="mask8_1_108" style="mask-type:luminance" maskUnits="userSpaceOnUse" x="103" y="46" width="14" height="17">
<path d="M112.289 62.1356C115.681 61.2303 117.556 57.085 116.476 52.8768C115.395 48.6687 111.77 45.9912 108.377 46.8966C104.985 47.802 103.111 51.9473 104.191 56.1554C105.271 60.3635 108.897 63.041 112.289 62.1356Z" fill="white"/>
</mask>
<g mask="url(#mask8_1_108)">
<path d="M115.837 50.3749C115.837 50.3749 109.499 54.4798 106.263 51.7389L113.743 47.7559L115.837 50.3749Z" fill="#EDA19D"/>
</g>
<path d="M104.078 55.6455C104.078 55.6455 107.699 67.2498 107.377 71.0604C107.377 71.0604 111.505 71.2213 114.968 69.0343C114.968 69.0343 110.013 59.6244 109.886 57.1964L104.078 55.6455Z" fill="#F4D2C6"/>
<path d="M111.661 62.2583C111.661 62.2583 110.352 62.5873 108.268 61.6191C108.268 61.6191 109.456 64.6954 112.5 64.0781L111.661 62.2583Z" fill="#EDA19D"/>
<path d="M114.123 48.6749C114.123 48.6749 109.938 51.3792 107.171 51.6752C104.404 51.9712 103.37 51.2149 103.37 51.2149C103.37 51.2149 101.201 48.7601 102.71 47.2374C104.218 45.7147 113.2 42.4419 113.2 42.4419C113.2 42.4419 115.383 46.7864 114.123 48.6749Z" fill="#59445A"/>
<path d="M105.573 49.9368C105.573 49.9368 107.342 53.5548 107.138 54.9816C106.934 56.4084 105.401 60.2307 105.401 60.2307C105.401 60.2307 101.356 56.1242 100.989 54.341C100.621 52.5579 102.381 49.6558 102.381 49.6558L105.573 49.9368Z" fill="#59445A"/>
<path d="M104.186 56.6818C104.412 57.5638 105.297 58.0916 106.162 57.8608C107.027 57.6298 107.544 56.7278 107.318 55.8458C107.091 54.9638 106.207 54.436 105.342 54.6668C104.477 54.8977 103.959 55.7998 104.186 56.6818Z" fill="#F4D2C6"/>
<path d="M166.484 19.2459L142.301 20.1811L143.301 47.0612L167.483 46.126L166.484 19.2459Z" fill="#F3AC4A"/>
<path d="M179.877 18.7279L166.488 19.2457L167.488 46.1258L180.877 45.608L179.877 18.7279Z" fill="#F08F3C"/>
<path d="M155.984 19.6519L152.8 19.7751L152.9 22.474L156.084 22.3509L155.984 19.6519Z" fill="#FDF1E6"/>
<path d="M175.195 18.9084L172.01 19.0315L172.111 21.7305L175.295 21.6073L175.195 18.9084Z" fill="#FDF1E6"/>
<path d="M126.243 61.7376L131.238 59.5511L153.54 44.8127L155.619 48.7037L137.002 66.2396L130.026 69.7916L126.243 61.7376Z" fill="#F4D2C6"/>
<mask id="mask9_1_108" style="mask-type:luminance" maskUnits="userSpaceOnUse" x="126" y="44" width="30" height="26">
<path d="M126.243 61.7376L131.238 59.5511L153.54 44.8127L155.619 48.7037L137.002 66.2396L130.026 69.7916L126.243 61.7376Z" fill="white"/>
</mask>
<g mask="url(#mask9_1_108)">
<path d="M126.925 60.4778L136.706 67.0718L128.762 71.1423L125.13 61.8617L126.925 60.4778Z" fill="#EDA19D"/>
</g>
<path d="M153.54 44.8127C153.54 44.8127 157.571 39.7201 158.622 40.4507C159.104 40.7856 157.141 43.3244 157.571 43.6167C158.001 43.9089 164.985 41.226 165.016 42.0583C165.047 42.8906 164.163 46.0033 163.447 46.7339C162.73 47.4645 155.619 48.7035 155.619 48.7035L153.54 44.8127Z" fill="#F4D2C6"/>
<path d="M100.681 98.6334L96.0363 139.609L85.4346 169.864L91.3641 172.329L107.564 147.019C108.765 145.297 109.704 143.399 110.35 141.392L118.74 115.312L100.681 98.6334Z" fill="#466C72"/>
<path d="M124.167 115.433L122.481 81.9739H102.857L100.949 96.0496C100.021 102.892 100.794 109.887 103.362 116.279C103.463 116.529 103.566 116.779 103.672 117.028L109.37 130.474L111.03 137.192L115.367 173.334H121.247L125.54 135.132L124.167 115.433Z" fill="#4F8189"/>
<path d="M102.867 82.0018L103.368 74.9634C103.711 70.1387 107.499 66.2269 112.238 66.0248C112.362 66.0195 112.486 66.0166 112.61 66.016C113.065 66.0142 113.516 66.0444 113.96 66.1052C117.844 66.6379 120.949 69.6754 121.79 73.5793L122.491 82.0018H102.867Z" fill="#3CAFC2"/>
<path d="M108.819 66.9804L125.303 59.6494L130.799 71.3508L117.631 78.2613L108.819 66.9804Z" fill="#3CAFC2"/>
<path d="M105.132 82.4638C105.132 82.4638 102.657 69.6082 109.376 66.6273C109.376 66.6273 101.236 67.551 102.867 82.0018L105.132 82.4638Z" fill="#4F8189"/>
<path d="M121.989 75.9742L115.881 78.9856L122.491 82.0018L121.989 75.9742Z" fill="#41C1D7"/>
<path d="M108.008 99.5171H118.294L118.576 108.637C118.666 111.526 116.394 113.917 113.559 113.917C110.899 113.917 108.7 111.8 108.547 109.092L108.008 99.5171Z" fill="#3F6970"/>
<path d="M118.362 101.521H108.132V101.916H118.362V101.521Z" fill="#2A8E9E"/>
<path d="M277.95 145.268H244.363V170.956H277.95V145.268Z" fill="#F3AC4A"/>
<path d="M263.295 145.268H259.018V150.189H263.295V145.268Z" fill="#FDF1E6"/>
<path d="M287.165 70.5908H278.964H278.911C278.036 70.5908 277.326 71.3143 277.326 72.2068V72.4071V170.461H245.175C244.017 170.461 243.079 171.418 243.079 172.598C243.079 173.779 244.017 174.735 245.175 174.735H278.964V173.045V170.461V72.4072H287.165V70.5908Z" fill="#4F8189"/>
<path d="M294.628 73.3558H283.163C282.901 73.3558 282.688 73.1388 282.688 72.8711V70.1271C282.688 69.8594 282.901 69.6423 283.163 69.6423H294.628C294.89 69.6423 295.103 69.8594 295.103 70.1271V72.8711C295.103 73.1388 294.89 73.3558 294.628 73.3558Z" fill="#2A8E9E"/>
<path d="M277.94 180.026C282.036 180.026 285.357 176.64 285.357 172.463C285.357 168.287 282.036 164.901 277.94 164.901C273.844 164.901 270.524 168.287 270.524 172.463C270.524 176.64 273.844 180.026 277.94 180.026Z" fill="#2A8E9E"/>
<path d="M277.941 175.498C279.584 175.498 280.916 174.139 280.916 172.463C280.916 170.788 279.584 169.429 277.941 169.429C276.297 169.429 274.965 170.788 274.965 172.463C274.965 174.139 276.297 175.498 277.941 175.498Z" fill="#4F8189"/>
<path d="M14.9438 180.026C112.672 179.634 214.765 179.631 312.492 180.026C214.764 180.421 112.671 180.418 14.9438 180.026Z" fill="#2A8E9E"/>
</g>
</g>
<defs>
<clipPath id="clip0_1_108">
<rect width="322" height="197" fill="white"/>
</clipPath>
</defs>
</svg>
