<svg width="699" height="350" viewBox="0 0 699 350" fill="none" xmlns="http://www.w3.org/2000/svg">
<g clip-path="url(#clip0_1_892)">
<path d="M683.692 348.825C693.465 233.729 644.722 -21.3708 413.41 1.43378C283.798 5.67044 292.003 101.605 242.05 115.99C192.097 130.374 93.0591 86.3499 40.2878 184.907C-9.78594 278.427 57.7304 348.825 57.7304 348.825H683.692Z" fill="#2A8E9E" fill-opacity="0.2"/>
<path d="M683.692 348.825C683.692 348.825 683.097 292.345 679.45 273.306C679.45 273.306 660.656 291.945 661.525 315.183C661.525 315.183 664.942 283.192 635.143 263.286C635.143 263.286 626.365 278.615 629.718 309.591C629.718 309.591 614.687 292.544 589.279 291.289C589.279 291.289 590.779 318.531 606.427 335.22C606.427 335.22 601.367 325.599 569.039 324.608C569.039 324.608 579.159 341.145 588.436 348.826L683.692 348.825Z" fill="#BEDBFA"/>
<path d="M387.194 105.95C371.825 105.996 359.624 92.9858 360.365 77.6869H414.023C414.764 92.9861 402.563 105.996 387.194 105.95Z" fill="#F9CE68"/>
<path d="M614.3 323.593C612.585 323.593 611.042 322.403 610.661 320.659L567.605 123.268L389.157 27.3038C387.344 26.3285 386.664 24.068 387.639 22.2543C388.615 20.4412 390.875 19.7613 392.688 20.7365L574.158 118.326L617.946 319.069C618.476 321.358 616.643 323.62 614.3 323.593Z" fill="#2A8E9E"/>
<path d="M433.555 87.7263H342.83C339.644 54.2247 348.916 20.9066 388.194 19.4341C427.467 20.9048 436.748 54.2425 433.555 87.7263Z" fill="#2A8E9E"/>
<path d="M582.736 123.555C582.427 141.645 555.519 141.642 555.213 123.555C555.521 105.465 582.429 105.468 582.736 123.555Z" fill="#2A8E9E"/>
<path d="M576.54 123.555C576.37 133.5 561.577 133.498 561.409 123.555C561.579 113.61 576.371 113.612 576.54 123.555Z" fill="#2A8E9E"/>
<path d="M570.026 348.825C579.519 306.022 650.746 305.769 657.692 348.825H570.026Z" fill="#2A8E9E"/>
<path d="M433.555 77.7519H342.83C342.224 77.7519 341.733 77.261 341.733 76.6554C341.733 76.0498 342.224 75.5589 342.83 75.5589H433.555C434.952 75.5379 434.997 77.7729 433.555 77.7519Z" fill="#2A8E9E"/>
<path d="M433.555 70.0975H342.83C342.224 70.0975 341.733 69.6067 341.733 69.001C341.733 68.3954 342.224 67.9046 342.83 67.9046H433.555C434.952 67.8836 434.997 70.1185 433.555 70.0975Z" fill="#2A8E9E"/>
<path d="M228.567 348.825H213.793C212.079 348.825 210.69 347.436 210.69 345.723V250.806C210.69 249.093 212.079 247.704 213.793 247.704H228.567C230.281 247.704 231.67 249.093 231.67 250.806V345.723C231.67 347.436 230.281 348.825 228.567 348.825Z" fill="#2A8E9E"/>
<path d="M231.67 258.797H210.69V265.423H231.67V258.797Z" fill="#2A8E9E"/>
<path d="M231.67 268.589H210.69V275.215H231.67V268.589Z" fill="#2A8E9E"/>
<path d="M231.67 319.018H210.69V325.644H231.67V319.018Z" fill="#2A8E9E"/>
<path d="M231.67 328.81H210.69V335.436H231.67V328.81Z" fill="#2A8E9E"/>
<path d="M255.151 348.825H234.669C233.012 348.825 231.67 347.482 231.67 345.826V280.665C231.67 279.009 233.012 277.666 234.669 277.666H255.151C256.807 277.666 258.15 279.009 258.15 280.665V345.826C258.15 347.482 256.807 348.825 255.151 348.825Z" fill="#2A8E9E"/>
<path d="M258.15 288.013H231.67V293.479H258.15V288.013Z" fill="#2A8E9E"/>
<path d="M258.15 331.611H231.67V337.077H258.15V331.611Z" fill="#2A8E9E"/>
<path d="M253.748 313.246C253.549 324.863 236.269 324.861 236.073 313.246C236.271 301.629 253.551 301.631 253.748 313.246Z" fill="#2A8E9E"/>
<path d="M207.224 348.825H187.645C185.731 348.825 184.178 347.273 184.178 345.358V268.89C184.178 266.976 185.731 265.423 187.645 265.423H207.224C209.139 265.423 210.691 266.976 210.691 268.89V345.358C210.691 347.273 209.138 348.825 207.224 348.825Z" fill="#F9CE68"/>
<path d="M184.178 275.215C192.951 274.456 201.918 274.45 210.691 275.215C201.919 275.98 192.951 275.974 184.178 275.215Z" fill="#F08F3C"/>
<path d="M184.178 282.655C192.951 281.895 201.918 281.889 210.691 282.655C201.919 283.42 192.951 283.414 184.178 282.655Z" fill="#F08F3C"/>
<path d="M184.178 332.123C192.951 331.363 201.918 331.357 210.691 332.123C201.919 332.888 192.951 332.882 184.178 332.123Z" fill="#F08F3C"/>
<path d="M184.178 339.563C192.951 338.803 201.918 338.797 210.691 339.563C201.919 340.328 192.951 340.322 184.178 339.563Z" fill="#F08F3C"/>
<path d="M203.817 287.816H192.446V326.432H203.817V287.816Z" fill="#F08F3C"/>
<path d="M163.699 348.725L145.784 344.597C143.685 344.113 142.375 342.019 142.859 339.92L162.871 253.059C163.355 250.959 165.449 249.65 167.548 250.133L185.463 254.261C187.563 254.744 188.873 256.838 188.389 258.938L168.376 345.799C167.893 347.899 165.799 349.208 163.699 348.725Z" fill="#4F8189"/>
<path d="M182.926 262.12L166.415 258.316L165.38 262.805L181.892 266.609L182.926 262.12Z" fill="#96B8BE"/>
<path d="M181.262 269.347L164.75 265.543L163.716 270.031L180.228 273.835L181.262 269.347Z" fill="#96B8BE"/>
<path d="M167.733 328.072L151.221 324.268L150.187 328.757L166.699 332.561L167.733 328.072Z" fill="#96B8BE"/>
<path d="M166.068 335.299L149.556 331.495L148.522 335.984L165.034 339.788L166.068 335.299Z" fill="#96B8BE" fill-opacity="0.545098"/>
<path d="M177.779 276.554C174.729 292.318 171.081 308.171 166.921 323.679C169.967 307.914 173.623 292.064 177.779 276.554Z" fill="#96B8BE"/>
<path d="M171.141 275.481C168.092 291.246 164.443 307.098 160.284 322.607C163.329 306.842 166.985 290.991 171.141 275.481Z" fill="#96B8BE"/>
<path d="M164.504 274.408C161.454 290.173 157.806 306.025 153.646 321.534C156.692 305.769 160.348 289.918 164.504 274.408Z" fill="#96B8BE"/>
<path d="M386.18 184.907H357.573L359.582 171.933L351.544 184.907H345.069C347.193 102.168 424.829 97.5208 425.227 184.907H418.811L416.402 165.29L413.569 184.907H401.73V165.573L397.948 184.907H386.18Z" fill="#59445A"/>
<path d="M366.548 159.202C368.06 168.746 360.051 170.106 358.326 160.598C356.815 151.054 364.824 149.695 366.548 159.202Z" fill="#EDA19D"/>
<path d="M405.82 159.202C404.308 168.746 412.317 170.106 414.041 160.598C415.553 151.054 407.544 149.695 405.82 159.202Z" fill="#EDA19D"/>
<path d="M398.281 167.242C392.201 167.242 380.165 167.242 374.087 167.242C377.005 175.573 370.638 217.298 370.638 217.298C378.437 217.298 393.932 217.298 401.73 217.298C401.73 217.298 395.363 175.572 398.281 167.242Z" fill="#F4D2C6"/>
<path d="M409.524 160.38C408.944 197.735 363.42 197.731 362.843 160.379C358.704 122.141 412.428 121.767 409.524 160.38Z" fill="#F4D2C6"/>
<path d="M374.417 184.907C374.417 184.907 385.379 193.361 397.948 184.907L398.61 192.475C398.61 192.475 385.077 198.799 373.751 192.553L374.417 184.907Z" fill="#EDA19D"/>
<path d="M390.911 131.985V149.875C390.911 149.875 376.463 151.057 363.162 153.112C359.441 129.945 390.233 121.359 390.911 131.985Z" fill="#59445A"/>
<path d="M390.758 130.606L394.571 149.024C394.571 149.024 401.698 149.997 409.087 153.112C409.087 153.112 415.613 126.742 390.758 130.606Z" fill="#59445A"/>
<path d="M434.008 230.645C429.374 205.374 408.893 199.586 386.184 201.078V201.065C386.019 201.071 385.688 201.071 385.524 201.065V201.078C363.174 199.471 342.725 205.968 338.356 230.646L328.891 312.687C381.769 327.96 390.783 327.057 443.472 312.687L434.008 230.645Z" fill="#4F8189"/>
<mask id="mask0_1_892" style="mask-type:luminance" maskUnits="userSpaceOnUse" x="328" y="200" width="116" height="124">
<path d="M434.008 230.645C429.374 205.374 408.893 199.586 386.184 201.078V201.065C386.019 201.071 385.688 201.071 385.524 201.065V201.078C363.174 199.471 342.725 205.968 338.356 230.646L328.891 312.687C381.769 327.96 390.783 327.057 443.472 312.687L434.008 230.645Z" fill="white"/>
</mask>
<g mask="url(#mask0_1_892)">
<path d="M335.515 272.89C354.962 283.666 397.262 309.288 429.652 305.381C381.315 330.489 384.384 330.719 333.75 310.928L335.515 272.89Z" fill="#4F8189"/>
</g>
<path d="M367.488 200.457C369.781 215.834 402.625 215.767 404.876 200.457C404.876 200.457 385.791 199.108 367.488 200.457Z" fill="#F4D2C6"/>
<path d="M386.18 212.089L374.392 223.841C374.392 223.841 362.403 216.458 364.34 201.094L367.487 200.457L386.18 212.089Z" fill="white"/>
<path d="M386.18 212.089L397.968 223.841C397.968 223.841 409.957 216.458 408.019 201.094L404.872 200.457L386.18 212.089Z" fill="white"/>
<path d="M325.614 246.533C324.751 264.22 311.672 294.334 339.621 297.248L337.357 254.616L325.614 246.533Z" fill="#EDA19D"/>
<path d="M445.137 247.685C446.256 266.058 458.652 295.046 431.063 299.657L433.394 255.768L445.137 247.685Z" fill="#EDA19D"/>
<path d="M363.878 332.849C363.878 332.849 354.785 327.208 349.992 328.689C349.273 328.911 344.272 335.081 344.272 335.081L327.289 341.513C324.138 342.605 322.529 345.692 322.066 348.825H365.109L363.878 332.849Z" fill="#EDA19D"/>
<path d="M362.728 329.33C362.728 329.33 438.35 287.458 465.287 291.131C492.224 294.805 493.403 332.296 470.14 340.254C446.876 348.213 364.229 348.825 364.229 348.825L362.728 329.33Z" fill="#2A8E9E"/>
<path d="M409.633 329.33C409.633 329.33 334.01 287.458 307.073 291.131C280.137 294.805 278.957 332.296 302.221 340.254C325.484 348.213 408.131 348.825 408.131 348.825L409.633 329.33Z" fill="#2A8E9E"/>
<path d="M409.362 332.849C409.362 332.849 418.455 327.208 423.248 328.689C423.967 328.911 428.968 335.081 428.968 335.081L445.951 341.513C449.102 342.605 450.711 345.692 451.174 348.825H408.131L409.362 332.849Z" fill="#F4D2C6"/>
<path d="M326.954 218.572L379.921 240.848V301.189L326.954 278.067V218.572Z" fill="#F9CE68"/>
<path d="M443.342 218.572L390.375 240.848V301.189L443.342 278.067V218.572Z" fill="#F9CE68"/>
<path d="M390.375 240.848H379.921V301.189H390.375V240.848Z" fill="#F08F3C"/>
<path d="M330.552 220.085L342.73 217.298L384.914 235.293L379.921 240.848L330.552 220.085Z" fill="white"/>
<path d="M384.914 235.293L390.375 240.848L438.437 220.635L429.644 217.31L384.914 235.293Z" fill="white"/>
<path d="M384.914 235.293L379.921 240.848H390.375L384.914 235.293Z" fill="#DCECFD"/>
<path d="M443.097 240.052C439.279 242.368 431.611 244.726 431.238 250.113C430.01 256.526 437.379 262.087 443.248 259.387C444.483 258.218 445.84 256.768 445.743 254.94V244.238C445.743 242.449 444.713 240.819 443.097 240.052Z" fill="#F4D2C6"/>
<path d="M326.96 240.052C330.778 242.368 338.446 244.726 338.82 250.113C340.048 256.526 332.678 262.088 326.809 259.387C325.575 258.217 324.217 256.769 324.314 254.94V244.238C324.313 242.449 325.344 240.819 326.96 240.052Z" fill="#F4D2C6"/>
<path d="M468.935 100.222C440.414 100.094 415.758 119.427 433.642 139.704C427.286 167.711 428.715 159.179 451.96 149.848C507.759 165.373 540.716 105.369 468.935 100.222Z" fill="white"/>
<path d="M452.793 125.792C452.771 130.646 445.39 130.646 445.369 125.792C445.391 120.937 452.772 120.938 452.793 125.792Z" fill="#DCECFD"/>
<path d="M474.408 125.792C474.386 130.646 467.005 130.646 466.984 125.792C467.006 120.937 474.387 120.938 474.408 125.792Z" fill="#DCECFD"/>
<path d="M496.022 125.792C496 130.646 488.619 130.646 488.598 125.792C488.62 120.937 496.001 120.938 496.022 125.792Z" fill="#DCECFD"/>
<path d="M526.013 264.16V313.39H528.037V264.16H526.013Z" fill="#2A8E9E"/>
<path d="M528.037 264.16V313.39H530.06V264.16H528.037Z" fill="#2A8E9E"/>
<path d="M523.99 264.16V313.39H526.013V264.16H523.99Z" fill="#2A8E9E"/>
<path d="M523.99 313.39L526.684 324.838L530.06 313.39H523.99Z" fill="white"/>
<mask id="mask1_1_892" style="mask-type:luminance" maskUnits="userSpaceOnUse" x="517" y="319" width="12" height="7">
<path d="M517.241 325.374L528.689 322.68L517.241 319.304V325.374Z" fill="white"/>
</mask>
<g mask="url(#mask1_1_892)">
<path d="M524.81 320.233V325.28H528.405V320.233H524.81Z" fill="#2A8E9E"/>
</g>
<path d="M523.99 257.605V264.16H530.06V257.605H523.99Z" fill="#F9CE68"/>
<path d="M523.99 261.388V262.848H530.06V261.388H523.99Z" fill="#F08F3C"/>
<path d="M523.99 258.911V260.372H530.06V258.911H523.99Z" fill="#F08F3C"/>
<path d="M530.06 256.916V257.605H523.99C523.747 255.714 525.027 253.863 527.025 253.881C528.702 253.881 530.06 255.24 530.06 256.916Z" fill="white"/>
<path d="M543.352 264.708L531.167 312.407L533.128 312.908L545.312 265.209L543.352 264.708Z" fill="#F08F3C"/>
<path d="M545.312 265.209L533.128 312.908L535.088 313.408L547.272 265.71L545.312 265.209Z" fill="#F9CE68"/>
<path d="M541.391 264.208L529.207 311.906L531.167 312.407L543.352 264.709L541.391 264.208Z" fill="#F9CE68"/>
<path d="M529.182 311.891L528.959 323.65L535.063 313.393L529.182 311.891Z" fill="white"/>
<mask id="mask2_1_892" style="mask-type:luminance" maskUnits="userSpaceOnUse" x="519" y="314" width="13" height="9">
<path d="M519.953 319.438L531.291 322.564L522.863 314.111L519.953 319.438Z" fill="white"/>
</mask>
<g mask="url(#mask2_1_892)">
<path d="M528.311 318.743L527.062 323.633L530.544 324.523L531.793 319.633L528.311 318.743Z" fill="#2A8E9E"/>
</g>
<path d="M543.013 257.855L541.39 264.207L547.272 265.709L548.894 259.358L543.013 257.855Z" fill="#2A8E9E"/>
<path d="M542.076 261.52L541.714 262.936L547.596 264.438L547.957 263.023L542.076 261.52Z" fill="#2A8E9E"/>
<path d="M542.689 259.121L542.327 260.536L548.209 262.038L548.57 260.623L542.689 259.121Z" fill="#2A8E9E"/>
<path d="M549.038 258.676L548.868 259.343L542.986 257.841C543.494 253.431 549.921 254.311 549.038 258.676Z" fill="white"/>
<path d="M538.157 348.825C482.106 348.971 500.01 355.706 497.066 287.816H545.934V341.048C545.934 345.343 542.452 348.825 538.157 348.825Z" fill="white"/>
<path d="M517.553 238.508H501.406V287.816H517.553V238.508Z" fill="#6FA2AA"/>
<path d="M507.542 244.989H501.406V247.319H507.542V244.989Z" fill="#DCECFD"/>
<path d="M507.542 250.312H501.406V252.641H507.542V250.312Z" fill="#DCECFD"/>
<path d="M507.542 255.634H501.406V257.963H507.542V255.634Z" fill="#DCECFD"/>
<path d="M507.542 260.957H501.406V263.286H507.542V260.957Z" fill="#DCECFD"/>
<path d="M507.542 266.279H501.406V268.608H507.542V266.279Z" fill="#DCECFD"/>
<path d="M507.542 271.601H501.406V273.93H507.542V271.601Z" fill="#DCECFD"/>
<path d="M507.542 276.924H501.406V279.253H507.542V276.924Z" fill="#DCECFD"/>
<path d="M507.542 282.246H501.406V284.576H507.542V282.246Z" fill="#DCECFD"/>
<path d="M517.553 241.255H514.974V287.816H517.553V241.255Z" fill="white"/>
<path d="M545.934 296.323H497.066V302.191H545.934V296.323Z" fill="#6FA2AA"/>
<path d="M545.934 306.982H497.066V312.85H545.934V306.982Z" fill="#6FA2AA"/>
<path d="M44.9082 137.006C44.9082 137.006 82.9387 220.653 91.2361 281.193H99.8097C99.8097 281.193 82.1957 200.055 44.9082 137.006Z" fill="white"/>
<path d="M50.097 147.792C50.097 147.792 40.41 141.065 50.097 125.189C63.006 85.602 -21.2571 109.626 5.15971 175.508L21.3049 160.439C1.72696 191.195 12.7294 199.526 25.072 226.365L37.7189 214.525C37.7189 214.525 28.839 230.132 29.1082 232.015C29.3773 233.899 48.2133 259.193 48.2133 259.193C48.2133 259.193 88.0378 203.223 88.5761 200.263C89.1143 197.303 66.2419 177.391 66.2419 177.391L92.8811 195.42C96.0674 182.302 112.565 133.685 78.0814 129.225C78.0814 129.225 90.1903 130.032 96.9174 134.068C96.9174 134.068 94.4957 109.043 75.1214 111.196C55.7472 113.349 58.9763 125.189 58.4383 132.992C57.9005 140.796 50.097 147.792 50.097 147.792Z" fill="#68B5C2"/>
<path d="M147.544 122.641C147.544 122.641 142.233 117.802 145.183 111.429C158.42 75.2815 102.007 72.7193 104.702 135.387L119.691 130.43C119.691 130.43 107.18 140.698 106.826 147.072C106.472 153.445 125.356 193.454 125.356 193.454L133.735 183.422C133.735 183.422 129.015 196.405 129.487 198.293C129.959 200.181 145.419 217.885 145.419 217.885C145.419 217.885 163.949 192.038 164.067 190.032C164.185 188.025 152.973 174.335 152.973 174.335L168.788 185.193C168.788 185.193 189.088 158.402 188.969 153.681C188.851 148.96 170.44 134.679 170.44 134.679L190.74 145.537C190.74 145.537 192.628 126.89 188.852 118.274L171.266 111.193L187.907 115.088C187.907 115.088 180.708 89.595 172.564 88.1787C164.421 86.7624 150.73 103.875 150.967 111.547C151.203 119.218 147.544 122.641 147.544 122.641Z" fill="#68B5C2"/>
<path d="M91.2358 281.194C91.2358 281.194 99.1286 186.085 147.544 122.641C147.544 122.641 103.949 212.013 99.8091 281.194H91.2358Z" fill="white"/>
<path d="M95.6332 281.194H51.9412L64.7107 342.62C65.3788 345.834 68.2111 348.138 71.4943 348.138H95.6332H119.772C123.055 348.138 125.887 345.834 126.556 342.62L139.325 281.194H95.6332Z" fill="#6A9EA7"/>
<path d="M574.204 349.488H568.649L585.983 320.595H591.539L574.204 349.488Z" fill="#F08F3C"/>
<path d="M625.081 349.488H630.637L613.303 320.595H607.747L625.081 349.488Z" fill="#F08F3C"/>
<path d="M585.508 255.457L581.338 257.638L570.967 237.804C570.364 236.652 570.81 235.231 571.961 234.629C573.113 234.026 574.535 234.472 575.137 235.624L585.508 255.457Z" fill="#2A8E9E"/>
<path d="M589.497 242.173C582.133 228.244 560.916 239.349 568.151 253.334L589.497 242.173Z" fill="#F08F3C"/>
<mask id="mask3_1_892" style="mask-type:luminance" maskUnits="userSpaceOnUse" x="566" y="235" width="24" height="19">
<path d="M589.497 242.173C582.133 228.244 560.916 239.349 568.151 253.334L589.497 242.173Z" fill="white"/>
</mask>
<g mask="url(#mask3_1_892)">
<path d="M583.449 235.145C583.449 235.145 577.061 247.358 566.247 252.86C558.062 239.308 574.207 232.702 583.449 235.145Z" fill="#F9CE68"/>
</g>
<path d="M622.934 255.993L618.444 254.586L625.135 233.228C625.524 231.988 626.844 231.298 628.084 231.687C629.324 232.075 630.014 233.395 629.626 234.635L622.934 255.993Z" fill="#2A8E9E"/>
<path d="M635.149 249.42C639.79 234.364 616.936 227.214 612.163 242.219L635.149 249.42Z" fill="#F08F3C"/>
<mask id="mask4_1_892" style="mask-type:luminance" maskUnits="userSpaceOnUse" x="612" y="233" width="24" height="17">
<path d="M635.149 249.42C639.79 234.364 616.936 227.214 612.163 242.219L635.149 249.42Z" fill="white"/>
</mask>
<g mask="url(#mask4_1_892)">
<path d="M635.842 240.175C635.842 240.175 622.689 244.294 611.151 240.537C614.947 225.167 631.034 231.913 635.842 240.175Z" fill="#F9CE68"/>
</g>
<path d="M604.293 330.593C549.441 329.61 549.45 248.094 604.295 247.119C659.144 248.102 659.136 329.618 604.293 330.593Z" fill="#F08F3C"/>
<path d="M599.171 330.593C544.319 329.61 544.328 248.094 599.173 247.119C654.023 248.102 654.014 329.618 599.171 330.593Z" fill="#F9CE68"/>
<path d="M633.56 288.856C632.788 334.06 565.548 334.053 564.782 288.855C565.554 243.652 632.794 243.659 633.56 288.856Z" fill="white"/>
<mask id="mask5_1_892" style="mask-type:luminance" maskUnits="userSpaceOnUse" x="564" y="254" width="70" height="69">
<path d="M633.56 288.856C632.788 334.06 565.548 334.053 564.782 288.855C565.554 243.652 632.794 243.659 633.56 288.856Z" fill="white"/>
</mask>
<g mask="url(#mask5_1_892)">
<path opacity="0.67" d="M618.402 254.467C637.176 297.177 588.691 322.376 558.355 299.57C586.832 367.509 680.509 305.855 618.402 254.467Z" fill="#DCECFD"/>
</g>
<path d="M600.453 265.568L597.651 281.776L600.453 287.537L603.255 281.776L600.453 265.568Z" fill="#2A8E9E"/>
<path d="M615.789 294.964L607.11 288.582L602.649 289.852L605.078 293.804L615.789 294.964Z" fill="#2A8E9E"/>
<path d="M605.013 288.582C604.911 294.576 595.994 294.576 595.892 288.581C595.995 282.587 604.912 282.587 605.013 288.582Z" fill="#2A8E9E"/>
<path d="M599.606 318.564C599.078 318.548 598.545 318.513 598.023 318.474L598.231 315.788C598.696 315.824 599.171 315.851 599.643 315.87C599.599 316.521 599.593 317.904 599.606 318.564ZM604.754 318.12L604.293 315.466C604.756 315.385 605.222 315.292 605.678 315.188L606.276 317.815C605.776 317.929 605.264 318.032 604.754 318.12ZM592.953 317.732C592.45 317.621 591.945 317.497 591.453 317.365L592.154 314.763C592.606 314.885 593.07 314.998 593.533 315.1L592.953 317.732ZM611.198 316.234L610.154 313.75C610.585 313.569 611.017 313.374 611.439 313.17L612.61 315.596C612.147 315.82 611.672 316.034 611.198 316.234ZM586.599 315.625C586.129 315.41 585.66 315.181 585.205 314.943L586.45 312.554C586.864 312.77 587.291 312.979 587.719 313.174L586.599 315.625ZM617.052 312.957L615.481 310.768C615.861 310.495 616.24 310.208 616.606 309.915L618.288 312.02C617.886 312.342 617.47 312.657 617.052 312.957ZM580.849 312.142C580.44 311.822 580.037 311.488 579.649 311.148L581.426 309.122C581.775 309.428 582.139 309.73 582.509 310.019L580.849 312.142ZM622.034 308.461L620.017 306.675C620.329 306.323 620.635 305.959 620.927 305.593L623.033 307.274C622.713 307.676 622.376 308.075 622.034 308.461ZM576.086 307.384C575.766 306.977 575.454 306.556 575.157 306.131L577.365 304.588C577.634 304.972 577.916 305.353 578.205 305.721L576.086 307.384ZM625.899 302.972L623.536 301.677C623.761 301.266 623.979 300.843 624.183 300.42L626.61 301.59C626.386 302.055 626.147 302.52 625.899 302.972ZM572.584 301.641C572.368 301.173 572.162 300.693 571.971 300.213L574.473 299.214C574.647 299.651 574.835 300.087 575.031 300.512L572.584 301.641ZM628.444 296.755L625.851 296.021C625.978 295.573 626.095 295.112 626.2 294.654L628.827 295.25C628.713 295.755 628.584 296.261 628.444 296.755ZM570.468 295.274C570.359 294.771 570.262 294.259 570.179 293.752L572.838 293.316C572.914 293.779 573.003 294.247 573.102 294.707L570.468 295.274ZM629.533 290.132L626.841 289.994C626.867 289.504 626.879 289.005 626.878 288.512H629.572C629.573 289.051 629.56 289.596 629.533 290.132ZM572.453 288.613H569.758C569.758 288.101 569.77 287.582 569.794 287.067L572.485 287.194C572.463 287.666 572.452 288.143 572.453 288.613ZM626.465 283.829C626.384 283.365 626.289 282.899 626.185 282.444L628.811 281.841C628.926 282.34 629.029 282.852 629.119 283.362L626.465 283.829ZM573.089 282.514L570.453 281.953C570.561 281.448 570.682 280.94 570.814 280.446L573.418 281.138C573.298 281.589 573.187 282.052 573.089 282.514ZM624.738 277.971C624.556 277.541 624.36 277.109 624.156 276.687L626.58 275.511C626.805 275.974 627.02 276.449 627.22 276.923L624.738 277.971ZM575.005 276.705L572.556 275.583C572.77 275.114 573 274.645 573.239 274.189L575.626 275.439C575.409 275.853 575.2 276.279 575.005 276.705ZM621.746 272.649C621.473 272.27 621.185 271.892 620.892 271.526L622.994 269.84C623.316 270.242 623.632 270.658 623.933 271.075L621.746 272.649ZM578.164 271.493L576.04 269.836C576.359 269.427 576.693 269.023 577.032 268.635L579.06 270.409C578.754 270.759 578.453 271.124 578.164 271.493ZM617.645 268.12C617.293 267.81 616.929 267.504 616.562 267.212L618.239 265.103C618.642 265.424 619.042 265.759 619.429 266.101L617.645 268.12ZM582.456 267.184L580.791 265.066C581.197 264.747 581.618 264.435 582.041 264.138L583.586 266.346C583.203 266.614 582.823 266.896 582.456 267.184ZM612.641 264.611C612.228 264.386 611.805 264.169 611.382 263.966L612.549 261.537C613.013 261.76 613.478 261.998 613.932 262.246L612.641 264.611ZM587.658 264.016L586.533 261.568C586.998 261.354 587.477 261.148 587.958 260.956L588.956 263.459C588.518 263.634 588.081 263.821 587.658 264.016ZM606.982 262.306C606.531 262.179 606.07 262.063 605.613 261.96L606.205 259.331C606.708 259.445 607.214 259.573 607.71 259.712L606.982 262.306ZM593.468 262.076L592.882 259.446C593.379 259.335 593.888 259.234 594.394 259.145L594.862 261.798C594.395 261.88 593.926 261.974 593.468 262.076ZM600.953 261.326C600.503 261.305 600.045 261.291 599.592 261.294V261.293H599.59C599.594 261.239 599.482 258.66 599.482 258.602C600.015 258.592 600.556 258.612 601.085 258.635L600.953 261.326Z" fill="#2A8E9E"/>
<path d="M25.7639 348.825C248.222 347.265 476.072 347.252 698.53 348.825C476.072 350.398 248.222 350.385 25.7639 348.825Z" fill="#2A8E9E"/>
</g>
<defs>
<clipPath id="clip0_1_892">
<rect width="699" height="350" fill="white"/>
</clipPath>
</defs>
</svg>
