<svg width="12" height="17" viewBox="0 0 12 17" xmlns="http://www.w3.org/2000/svg"><g fill="#FFF" fill-rule="evenodd"><path d="M5.948 1.03a4.208 4.208 0 0 1 4.203 4.202c0 1.801-2.748 5.484-4.203 7.24-1.455-1.753-4.203-5.438-4.203-7.24A4.207 4.207 0 0 1 5.948 1.03zm0 12.747c.148 0 .29-.064.388-.177.495-.57 4.842-5.653 4.842-8.37A5.235 5.235 0 0 0 5.95 0 5.235 5.235 0 0 0 .72 5.23c0 2.717 4.348 7.798 4.843 8.37a.504.504 0 0 0 .386.177z"></path><path d="M4.311 5.232c0-.901.734-1.635 1.635-1.635s1.635.734 1.635 1.635-.734 1.635-1.635 1.635a1.637 1.637 0 0 1-1.635-1.635m4.298 0a2.663 2.663 0 0 0-2.66-2.661 2.663 2.663 0 0 0-2.662 2.661 2.663 2.663 0 0 0 2.661 2.661 2.665 2.665 0 0 0 2.661-2.66M0 14.016C0 15.717 2.556 17 5.948 17c3.392 0 5.948-1.283 5.948-2.984 0-1.034-.942-1.94-2.584-2.487a.513.513 0 1 0-.324.975c1.145.38 1.884.973 1.884 1.512 0 .924-2.104 1.958-4.922 1.958-2.817 0-4.922-1.035-4.922-1.958 0-.567.799-1.18 2.033-1.56a.512.512 0 0 0 .339-.641.511.511 0 0 0-.642-.339C1.005 12.016 0 12.941 0 14.016z"></path></g></svg>