<svg xmlns="http://www.w3.org/2000/svg" xmlns:xlink="http://www.w3.org/1999/xlink" version="1.1" id="Layer_1" x="0px" y="0px" width="80px" height="40px" viewBox="20 0 80 40" style="enable-background:new 20 0 80 40;" xml:space="preserve">
<g id="MacWorld">
	<g>
		<polygon style="fill:#FFFFFF;" points="83.067,9.577 80.353,9.57 80.334,30.271 83.064,30.273   "/>
		<path style="fill:#FFFFFF;" d="M79.377,13.54c-0.168-0.896-1.011-1.545-1.922-1.486c-0.08,0.008-0.162,0.012-0.248,0.019    c-0.529,0.056-1.021,0.356-1.311,0.803v-0.613l-2.451-0.003v17.998l2.607-0.001l-0.004-15.05c0.007-0.23-0.021-0.53,0.1-0.734    c0.146-0.257,0.523-0.264,0.686-0.02c0.051,0.09,0.078,0.189,0.073,0.29v4.897l2.665,0.005l-0.003-4    C79.569,14.94,79.506,14.233,79.377,13.54L79.377,13.54z"/>
		<path style="fill:#FFFFFF;" d="M58.227,12.187l-2.637,0.004l-0.012,7.784c0,3.473,0.322,6.949,1.537,10.232l2.054,0.027    c0.52-1.412,0.898-2.879,1.129-4.363c0.011-0.053,0.065-0.254,0.085-0.119l0.188,1.129c0.187,1.152,0.494,2.275,0.925,3.36    l2.139,0.004l0.408-1.292c0.024-0.082,0.057-0.167,0.078-0.253c0.68-2.636,1.043-5.354,1.069-8.075    c0.028-2.808,0.011-8.413,0.011-8.413l-2.642-0.01l0.011,4.757c0,0,0.023,3.614-0.036,5.417c-0.032,1.089-0.204,2.16-0.338,3.237    c0,0.017-0.004,0.039-0.014,0.05l-0.005,0.004l-0.008-0.004c-0.012-0.009-0.02-0.026-0.021-0.037    c-0.02-0.06-0.031-0.118-0.033-0.183c-0.268-1.949-0.4-3.914-0.396-5.881l0.008-7.36l-2.707-0.007    c0,2.808-0.012,5.413,0.003,8.422c0.009,1.613-0.178,3.226-0.434,4.818c-0.003,0.021-0.03,0.16-0.045,0.152    c-0.016,0-0.016-0.021-0.016-0.029L58.48,25.24c-0.167-1.493-0.252-2.994-0.252-4.493l-0.003-8.552L58.227,12.187L58.227,12.187z"/>
		<path style="fill:#FFFFFF;" d="M53.626,12.538c-0.732-0.514-1.652-0.736-2.537-0.614c-0.167,0.026-0.33,0.052-0.493,0.082    c-0.862,0.144-1.601,0.758-1.908,1.575c-0.198,0.523-0.305,1.084-0.305,1.641l0.009,11.537c0,0,0.058,1.271,0.214,1.884    c0.234,0.965,1.056,1.578,1.991,1.789c0.356,0.074,0.713,0.074,1.073,0.077c0.787,0.013,1.525-0.294,2.117-0.806    c0.01-0.012,0.018-0.021,0.028-0.033c0.498-0.561,0.815-1.297,0.823-2.042c0.023-1.802-0.002-3.601-0.013-5.399l-2.704-0.008    l-0.015,5.646c0,0.103-0.033,0.208-0.086,0.296c-0.145,0.23-0.498,0.22-0.627-0.021c-0.062-0.119-0.062-0.257-0.062-0.39    l-0.001-13.278c-0.004-0.432,0.608-0.554,0.775-0.151c0.015,0.048,0.025,0.099,0.025,0.151l-0.004,5.087l2.704,0.004l0.011-3.501    c0-0.546-0.021-1.092-0.071-1.639c-0.062-0.672-0.363-1.362-0.868-1.818C53.677,12.581,53.65,12.559,53.626,12.538L53.626,12.538z    "/>
		<path style="fill:#FFFFFF;" d="M33.599,9.47l-3.886-0.007l0.01,20.7l2.835,0.008l-0.002-12.047c0.004-1.332,0-3.977,0-3.977    l0.234,1.282c0.517,3.523,0.783,7.08,0.794,10.639l0.002,4.105l2.847,0.008l0.007-4.459c0.02-3.886,1.018-11.602,1.018-11.602    s-0.027,10.884-0.021,16.064l2.866,0.006l0.016-20.747l-3.821-0.029c-0.729,2.695-1.207,5.513-1.435,8.294    c-0.004,0.047-0.004,0.104-0.021,0.145h-0.004l-0.005-0.004c-0.004-0.008-0.004-0.015-0.007-0.026    c-0.008-0.062-0.011-0.13-0.015-0.196C34.792,14.872,34.314,12.136,33.599,9.47L33.599,9.47z"/>
		<path style="fill:#FFFFFF;" d="M71.389,12.577c-0.922-0.66-2.072-0.738-3.152-0.482c-0.688,0.164-1.289,0.632-1.615,1.259    c-0.293,0.562-0.44,1.827-0.44,1.827l0.001,11.34c0,0.684,0.042,1.367,0.188,2.035c0.129,0.598,0.498,1.26,1.051,1.56    c1.278,0.704,3.123,0.655,4.189-0.427c0.025-0.012,0.047-0.035,0.066-0.06c0.479-0.612,0.775-1.386,0.779-2.17l0.008-11.393    c0.002-0.635-0.049-1.266-0.153-1.894c-0.103-0.598-0.42-1.231-0.92-1.593L71.389,12.577L71.389,12.577z M69.685,14.472    c0.021,0.24,0.036,0.486,0.036,0.731l-0.002,12.721c0.033,0.428-0.344,0.617-0.633,0.417c-0.215-0.146-0.158-0.62-0.162-0.784    L68.922,14.62c0,0,0.033-0.234,0.104-0.331c0.188-0.267,0.63-0.148,0.66,0.183H69.685L69.685,14.472z"/>
		<path style="fill:#FFFFFF;" d="M90.283,9.581l-2.695,0.003L87.586,12.6c-0.326-0.4-0.848-0.628-1.363-0.594    c-0.111,0.003-0.223,0.003-0.333,0.015c-0.632,0.049-1.204,0.445-1.47,1.021c-0.238,0.523-0.365,1.099-0.373,1.679l0.002,12.625    c0,0.672,0.078,1.342,0.3,1.973c0.249,0.727,0.938,1.168,1.694,1.181c0.076-0.003,0.154-0.003,0.235-0.003    c0.59,0.006,1.091-0.287,1.447-0.743c0.004-0.012,0.038-0.049,0.049-0.026l0.005,0.006c0.003,0.01,0.003,0.018,0.003,0.026    l0.048,0.515l2.457,0.019L90.283,9.589V9.581L90.283,9.581z M87.545,14.661c0.022,0.222,0.033,0.449,0.037,0.676l0.006,12.601    c0,0.354-0.496,0.522-0.728,0.248c-0.055-0.07-0.097-0.252-0.097-0.252l-0.016-13.188c0-0.33,0.455-0.563,0.703-0.3    C87.504,14.501,87.539,14.579,87.545,14.661L87.545,14.661z"/>
		<path style="fill:#FFFFFF;" d="M46.19,12.433c-0.761-0.523-1.733-0.702-2.632-0.476c-0.759,0.108-1.445,0.572-1.825,1.236    c-0.308,0.546-0.475,1.167-0.479,1.795l0.013,4.53l2.571-0.021l0.012-4.848c0-0.084,0.021-0.168,0.034-0.248    c0.052-0.375,0.59-0.483,0.75-0.123c0.019,0.045,0.029,0.101,0.029,0.152l-0.012,5.209c0,0-1.313,0.777-1.948,1.214    c-0.548,0.383-1.056,0.951-1.271,1.59c-0.018,0.045-0.033,0.093-0.044,0.137c-0.131,0.521-0.198,1.056-0.201,1.594l-0.003,3.28    c0,0,0.073,1.112,0.245,1.646c0.208,0.648,0.783,1.129,1.452,1.23c0.062,0.008,0.126,0.02,0.188,0.027    c0.657,0.088,1.33-0.189,1.735-0.715l-0.002,0.562l2.562-0.009l-0.006-14.058c0-0.598-0.041-1.195-0.119-1.784    c-0.097-0.706-0.441-1.394-0.979-1.864C46.238,12.47,46.217,12.452,46.19,12.433L46.19,12.433z M44.647,27.898    c0,0-0.271,0.445-0.521,0.383c-0.03-0.01-0.056-0.026-0.078-0.045c-0.104-0.102-0.167-0.238-0.175-0.379    c-0.019-0.416-0.029-0.834-0.029-1.248l0.019-3.062c0.003-0.538,0.315-1.042,0.799-1.288c0.008,1.881,0,3.758-0.021,5.639H44.647    L44.647,27.898z"/>
	</g>
</g>
<g id="Layer_1_1_">
</g>
</svg>