<svg xmlns="http://www.w3.org/2000/svg" xmlns:xlink="http://www.w3.org/1999/xlink" version="1.1" x="0px" y="0px" width="120px" height="40px" viewBox="0 0 120 40" style="enable-background:new 0 0 120 40;" xml:space="preserve">
<g id="NBC">
	<g>
		<polygon style="fill-rule:evenodd;clip-rule:evenodd;fill:#FFFFFF;" points="89.465,13.291 95.859,27.26 98.665,21.538     101.47,27.26 107.751,13.291 104.556,13.291 101.188,20.921 99.954,18.339 102.31,13.347 99.337,13.29 98.663,15.143     97.767,13.29 94.905,13.29 97.204,18.226 96.026,20.864 92.436,13.291 89.464,13.291 89.465,13.291   "/>
		<polygon style="fill-rule:evenodd;clip-rule:evenodd;fill:#FFFFFF;" points="30.748,12.741 39.081,20.599 39.081,13.241     41.778,13.241 41.778,26.872 33.462,18.858 33.462,26.424 30.748,26.424 30.748,12.74 30.748,12.741   "/>
		<path style="fill-rule:evenodd;clip-rule:evenodd;fill:#FFFFFF;" d="M43.29,13.277h5.688c0.871,0,3.342,0.661,3.429,3.323    c0.069,1.982-1.564,2.904-1.564,2.904c0.886,0.419,2.243,1.445,2.243,3.534c0,2.034-1.792,3.53-3.324,3.53H43.29V13.277    L43.29,13.277L43.29,13.277L43.29,13.277z M46.021,18.637h2.071c0.818-0.106,1.444-0.731,1.444-1.618    c0-0.941-0.818-1.462-1.496-1.516h-2.019V18.637L46.021,18.637L46.021,18.637L46.021,18.637z M46.038,24.431    c0.437,0,2.401,0,2.401,0c0.609-0.054,1.651-0.574,1.651-1.775c0-1.165-1.026-1.723-1.583-1.739h-2.47L46.038,24.431    L46.038,24.431L46.038,24.431z"/>
		<path style="fill-rule:evenodd;clip-rule:evenodd;fill:#FFFFFF;" d="M63.385,16.122c-2.854-1.897-6.716,0.035-6.959,3.549    c-0.105,4.265,4.105,6.021,6.959,4.178c0,0.068,0,2.73,0,2.73c-5.046,1.88-9.675-1.67-9.692-6.82    c0.017-4.367,4.837-8.229,9.692-6.299V16.122L63.385,16.122z"/>
		<path style="fill-rule:evenodd;clip-rule:evenodd;fill:#FFFFFF;" d="M111.916,21.623c-4.023-2.683-3.703-2.399-3.997-2.864    c-0.294-0.461-1.136-2.859,0.8-4.922c1.935-2.061,5.848-0.294,5.848-0.294v2.65c0,0-3.324-1.935-4.249-0.168    c-0.926,1.768,2.525,2.818,2.525,2.818s2.312,1.345,2.523,2.819c0.21,1.474,0.042,4.417-2.315,4.965c0,0-2.271,1.263-5.343-0.337    l0.043-2.986c0,0,1.305,1.431,3.156,1.347c1.851-0.085,2.397-2.104,1.011-3.028H111.916L111.916,21.623z"/>
		<polygon style="fill-rule:evenodd;clip-rule:evenodd;fill:#FFFFFF;" points="81.401,13.183 81.401,26.562 88.722,26.562     88.765,24.333 84.294,24.333 84.294,21.135 88.765,21.135 88.765,18.651 84.294,18.651 84.294,15.665 88.765,15.665     88.765,13.183 81.401,13.183 81.401,13.183   "/>
		<polygon style="fill-rule:evenodd;clip-rule:evenodd;fill:#FFFFFF;" points="69.085,12.769 77.418,20.704 77.418,13.273     80.115,13.273 80.115,27.036 71.798,18.945 71.798,26.585 69.085,26.585 69.085,12.769   "/>
		<path style="fill-rule:evenodd;clip-rule:evenodd;fill:#FFFFFF;" d="M23.619,21.058l-6.753,4.515l2.274-5.407l1.079-2.516    c0.437-0.814,1.26-1.333,2.159-1.348c0.859,0,1.622,0.414,2.105,1.156c0.498,0.742,0.526,1.955,0.028,2.707    C24.288,20.518,23.959,20.833,23.619,21.058L23.619,21.058L23.619,21.058z"/>
		<path style="fill-rule:evenodd;clip-rule:evenodd;fill:#FFFFFF;" d="M20.256,16.792l-3.34,7.896l-0.148-0.86l-1.005-6.473    c-0.041-0.396,0.121-0.729,0.437-0.947l0.479-0.285c0.029-0.099-0.111-0.133-0.177-0.168l-0.94-0.008    c-0.059-0.934,0.349-1.779,1.14-2.29c0.614-0.399,1.549-0.504,2.233-0.181c0.887,0.363,1.505,1.311,1.52,2.275    c-0.004,0.356-0.065,0.723-0.199,1.043V16.792L20.256,16.792z"/>
		<path style="fill-rule:evenodd;clip-rule:evenodd;fill:#FFFFFF;" d="M13.842,24.717l-3.288-7.916    c-0.353-0.847-0.204-1.961,0.401-2.646c0.646-0.719,1.558-1.023,2.497-0.78c0.794,0.195,1.539,0.956,1.735,1.771    c0.092,0.305,0.079,0.672,0.061,1.004L13.842,24.717L13.842,24.717L13.842,24.717z"/>
		<path style="fill-rule:evenodd;clip-rule:evenodd;fill:#FFFFFF;" d="M6.814,20.771c-0.676-0.586-0.976-1.367-0.879-2.27    c0.098-0.914,0.819-1.809,1.679-2.084c0.883-0.276,1.846-0.058,2.488,0.604c0.27,0.257,0.437,0.562,0.577,0.876l3.178,7.691    l-7.042-4.816V20.771L6.814,20.771z"/>
		<path style="fill-rule:evenodd;clip-rule:evenodd;fill:#FFFFFF;" d="M6.093,26.391c-0.878-0.102-1.556-0.574-1.968-1.38    c-0.419-0.813-0.311-1.967,0.252-2.688c0.612-0.736,1.499-1.104,2.393-0.924c0.365,0.059,0.67,0.216,0.958,0.396l6.836,4.597    L6.093,26.391L6.093,26.391z"/>
		<path style="fill-rule:evenodd;clip-rule:evenodd;fill:#FFFFFF;" d="M24.653,26.391c0.879-0.102,1.556-0.574,1.968-1.38    c0.419-0.813,0.309-1.967-0.252-2.688c-0.613-0.736-1.5-1.104-2.393-0.924c-0.364,0.059-0.669,0.216-0.957,0.396l-6.836,4.597    l8.469-0.002H24.653L24.653,26.391z"/>
	</g>
</g>
<g id="Layer_1">
</g>
</svg>