<svg xmlns="http://www.w3.org/2000/svg" xmlns:xlink="http://www.w3.org/1999/xlink" version="1.1" id="Layer_1" x="0px" y="0px" width="100px" height="40px" viewBox="10 0 100 40" style="enable-background:new 10 0 100 40;" xml:space="preserve">
<g id="ABC">
	<g>
		<g>
			<path style="fill:#FFFFFF;" d="M33.828,6.823c-7.271,0-13.183,5.897-13.165,13.198c0.018,7.269,5.932,13.179,13.199,13.154     c7.285,0,13.18-5.904,13.18-13.189C47.03,12.684,41.128,6.781,33.828,6.823z M29.383,24.146h-1.897v-0.674     c-0.605,0.381-1.353,0.617-2.133,0.617c-2.262,0-4.091-1.837-4.091-4.068c0-2.25,1.816-4.076,4.086-4.076     c2.217,0,4.052,1.826,4.052,4.053L29.383,24.146z M33.927,24.279c-2.291,0-4.137-1.875-4.137-4.154l-0.043-6.117h1.89     l0.058,2.646c0.617-0.441,1.401-0.674,2.233-0.674c2.271,0,4.118,1.869,4.118,4.145C38.045,22.404,36.197,24.279,33.927,24.279z      M42.391,24.23c-2.208,0-3.99-1.791-3.99-3.992c0-2.193,1.782-4.016,3.99-4.016c2.031,0,3.685,1.493,3.962,3.434h-1.781     c-0.236-0.975-1.123-1.715-2.185-1.715c-1.259,0-2.284,1.029-2.284,2.297c0,1.252,1.024,2.279,2.284,2.279     c0.959,0,1.795-0.604,2.097-1.463l1.825-0.023C45.938,22.873,44.335,24.23,42.391,24.23z"/>
			<path style="fill:#FFFFFF;" d="M25.331,17.796c-1.242,0-2.24,1.011-2.24,2.226c0.007,1.232,1.004,2.232,2.257,2.232     c1.209-0.014,2.202-1.012,2.202-2.232C27.55,18.785,26.558,17.796,25.331,17.796z"/>
			<path style="fill:#FFFFFF;" d="M33.989,17.863c-1.274,0-2.276,0.994-2.276,2.262c0,1.27,1.002,2.26,2.276,2.26     c1.255,0,2.264-1,2.26-2.26C36.249,18.857,35.244,17.863,33.989,17.863z"/>
		</g>
		<path style="fill:#FFFFFF;" d="M49.771,15.072c-0.604-0.633-1.29-0.999-1.713-0.999h-0.407v-0.388h0.322    c0.177,0,2.023,0.094,2.212,0.094c0.281,0,1.13-0.094,1.305-0.094h0.366l8.573,9.369v-7.396c0-1.131-0.521-1.585-1.826-1.585    h-0.389v-0.388h0.412c0.052,0,1.974,0.094,2.113,0.094c0.236,0,1.524-0.094,1.781-0.094h0.235l0.021,0.388    c-1.191,0.061-1.489,0.399-1.489,1.435v11.635h-0.433L50.642,15.98v8.408c0,1.76,0.407,2.229,1.883,2.229H52.9v0.359h-0.41    c-0.328,0-1.877-0.067-2.224-0.067c-0.209,0-1.646,0.067-1.973,0.067h-0.35v-0.359c1.512-0.145,1.827-0.379,1.827-1.449V15.072    L49.771,15.072z"/>
		<path style="fill:#FFFFFF;" d="M65.271,15.203c0-0.877-0.348-1.13-1.407-1.13h-0.331v-0.388h0.879    c0.617,0,3.902,0.094,3.905,0.094c0.481,0,3.623-0.094,4.272-0.094h0.896l0.046,2.912h-0.34c-0.082-1.516-0.757-2.08-2.331-2.08    H67.72v5.08h2.715c1.059,0,1.661-0.505,1.788-1.554l0.405,0.031v4.047h-0.385c-0.148-1.271-0.82-1.763-2.391-1.763h-2.156v4.656    c0,0.775,0.376,1.142,1.157,1.142h2.233c1.457,0,2.52-0.64,3.146-1.999h0.407l-0.944,2.818c-0.654,0-3.748-0.068-4.794-0.068    c-0.685,0-4.058,0.058-4.813,0.068h-0.592v-0.36h0.365c1.061-0.023,1.407-0.291,1.407-1.179L65.271,15.203L65.271,15.203z"/>
		<path style="fill:#FFFFFF;" d="M86.876,27.169h-0.627l-2.564-7l-2.627,7H80.44l-4.396-11.737c-0.328-0.904-0.65-1.298-1.234-1.383    v-0.363h0.383c0.253,0,1.489,0.094,1.779,0.094c0.254,0,1.533-0.094,1.796-0.094h0.417v0.389    c-0.653,0.025-0.924,0.193-0.924,0.551c0,0.191,0.068,0.527,0.181,0.823l3.069,8.327l1.783-4.746l-1.156-3.205    c-0.494-1.385-0.938-1.725-2.021-1.75v-0.389h0.38c0.303,0,1.93,0.094,2.312,0.094c0.312,0,1.944-0.094,2.282-0.094h0.543v0.389    h-0.543c-0.741,0-1.092,0.15-1.092,0.551c0,0.191,0.086,0.564,0.228,0.902l2.981,8.312l2.375-7.018    c0.289-0.91,0.424-1.489,0.424-1.869c0-0.627-0.322-0.88-1.018-0.88h-0.41v-0.388h0.123c0.312,0,1.09,0.094,1.582,0.094    c0.217,0,1.106-0.094,1.53-0.094h0.138v0.388c-0.539,0.141-0.854,0.551-1.289,1.907L86.876,27.169L86.876,27.169z"/>
		<path style="fill:#FFFFFF;" d="M92.066,23.943c0.354,0.824,0.658,1.261,1.286,1.701c0.763,0.582,1.756,0.862,2.887,0.862    c1.928,0,3.227-1,3.227-2.456c0-1.082-0.616-1.667-2.957-2.763c-2.245-1.065-2.801-1.634-3.264-2.067    c-0.701-0.755-0.998-1.4-0.998-2.318c0-2.086,1.692-3.443,4.219-3.443c0.783,0,1.6,0.104,2.511,0.33    c0.354,0.105,0.729,0.141,0.92,0.141c0.181,0,0.274-0.035,0.34-0.186h0.384l0.055,2.808h-0.332    c-0.198-0.649-0.332-0.961-0.625-1.329C99.1,14.52,98.1,14.1,96.829,14.1c-1.617,0-2.675,0.766-2.675,1.881    c0,1.006,0.601,1.562,2.753,2.557c2.758,1.277,4.43,2.424,4.43,4.554c0,2.418-1.983,4.054-4.922,4.054    c-0.732,0-1.488-0.09-2.384-0.279c-0.299-0.061-0.626-0.111-0.784-0.111c-0.273,0-0.373,0.053-0.548,0.227h-0.387l-0.036-0.307    c-0.193-1.018-0.383-2.011-0.559-2.632L92.066,23.943L92.066,23.943z"/>
	</g>
</g>
<g id="Layer_1_1_">
</g>
</svg>