<svg width="321" height="228" viewBox="0 0 321 228" fill="none" xmlns="http://www.w3.org/2000/svg">
<g clip-path="url(#clip0_1_227)">
<path d="M159.151 43.8187H125.725V88.1681H159.151V43.8187Z" fill="#E0F4F8"/>
<path d="M129.513 51.6219H136.066" stroke="#FFA200" stroke-width="0.879" stroke-miterlimit="10"/>
<path d="M129.513 58.1649H154.127" stroke="#FFA200" stroke-width="0.879" stroke-miterlimit="10"/>
<path d="M129.513 64.7079H154.127" stroke="#FFA200" stroke-width="0.879" stroke-miterlimit="10"/>
<path d="M129.513 71.2509H154.127" stroke="#FFA200" stroke-width="0.879" stroke-miterlimit="10"/>
<path d="M129.513 77.7938H154.127" stroke="#FFA200" stroke-width="0.879" stroke-miterlimit="10"/>
<path d="M19.0589 72.1346C19.0589 72.1346 23.7171 58.0477 25.5798 52.7387C27.4425 47.4297 28.7042 36.4594 22.3083 35.2318C15.9131 34.0042 13.3265 43.0322 13.3918 51.4848C13.4579 59.9125 19.0589 72.1346 19.0589 72.1346Z" fill="#D0E4E8"/>
<path d="M17.9452 94.7196C17.9452 94.7196 13.3055 67.7023 4.82659 70.5788C-3.65298 73.4545 4.40105 92.3318 17.9452 94.7196Z" fill="#D0E4E8"/>
<path d="M22.1951 85.6063C22.1951 85.6063 21.4257 76.4163 25.4978 68.3963C29.5699 60.3764 34.6764 61.2083 35.7016 64.8641C37.9415 72.8535 25.3046 80.4074 22.1951 85.6063Z" fill="#D0E4E8"/>
<path d="M24.4013 108.033C24.4013 108.033 24.1135 100.111 26.9474 90.5274C29.7813 80.9438 37.3309 77.8847 41.2468 82.4513C43.3297 84.8795 40.5932 95.339 33.8889 100.088C28.2567 104.079 24.4013 108.033 24.4013 108.033Z" fill="#D0E4E8"/>
<path d="M22.3349 115.106C22.3349 115.106 17.4437 102.357 10.5398 99.2236C3.63594 96.09 1.79312 100.981 3.53933 106.018C5.28483 111.055 12.0111 115.657 22.3349 115.106Z" fill="#D0E4E8"/>
<path d="M21.6602 36C21.6602 36 13.0265 77.2165 26.8669 125.718L21.6602 36Z" fill="#DCECFD"/>
<path d="M21.6602 36C21.6602 36 13.0265 77.2165 26.8669 125.718" stroke="#B1CBE5" stroke-width="1.0223" stroke-miterlimit="10"/>
<path d="M36.1288 84.1513C35.9043 84.3794 25.9229 100.216 23.418 111.566L36.1288 84.1513Z" fill="#DCECFD"/>
<path d="M36.1288 84.1513C35.9043 84.3794 25.9229 100.216 23.418 111.566" stroke="#B1CBE5" stroke-width="1.0223" stroke-miterlimit="10"/>
<path d="M6.01611 101.43C6.01611 101.43 9.43252 108.309 24.4515 116.263L6.01611 101.43Z" fill="#DCECFD"/>
<path d="M6.01611 101.43C6.01611 101.43 9.43252 108.309 24.4515 116.263" stroke="#B1CBE5" stroke-width="1.0223" stroke-miterlimit="10"/>
<path d="M4.22217 73.7174C5.35174 81.2308 8.78022 89.2251 20.8211 96.1404L4.22217 73.7174Z" fill="#DCECFD"/>
<path d="M4.22217 73.7174C5.35174 81.2308 8.78022 89.2251 20.8211 96.1404" stroke="#B1CBE5" stroke-width="1.0223" stroke-miterlimit="10"/>
<path d="M32.8961 64.244C32.8961 64.244 25.3081 72.7612 20.3267 92.0285L32.8961 64.244Z" fill="#DCECFD"/>
<path d="M32.8961 64.244C32.8961 64.244 25.3081 72.7612 20.3267 92.0285" stroke="#B1CBE5" stroke-width="1.0223" stroke-miterlimit="10"/>
<path d="M310.415 118.195C310.415 118.195 309.205 108.922 308.683 105.416C308.161 101.908 308.683 94.9689 312.787 94.9689C316.892 94.9689 317.42 100.864 316.376 106.088C315.334 111.295 310.415 118.195 310.415 118.195Z" fill="#DCECFD"/>
<path d="M308.422 132.306C308.422 132.306 314.503 116.134 319.409 118.922C324.315 121.71 317.088 132.436 308.422 132.306Z" fill="#DCECFD"/>
<path d="M306.874 126.161C306.874 126.161 308.442 120.564 306.874 115.116C305.306 109.669 302.046 109.577 300.978 111.718C298.642 116.397 305.567 122.574 306.874 126.161Z" fill="#DCECFD"/>
<path d="M313.086 95.5011C313.086 95.5011 313.533 122.037 299.206 150.413L313.086 95.5011Z" fill="#DCECFD"/>
<path d="M313.086 95.5011C313.086 95.5011 313.533 122.037 299.206 150.413" stroke="#B1CBE5" stroke-width="1.0223" stroke-miterlimit="10"/>
<path d="M319.41 120.937C317.818 125.453 314.747 129.994 306.473 132.844L319.41 120.937Z" fill="#DCECFD"/>
<path d="M319.41 120.937C317.818 125.453 314.747 129.994 306.473 132.844" stroke="#B1CBE5" stroke-width="1.0223" stroke-miterlimit="10"/>
<path d="M302.788 111.667C302.788 111.667 306.473 117.84 307.267 130.357L302.788 111.667Z" fill="#DCECFD"/>
<path d="M302.788 111.667C302.788 111.667 306.473 117.84 307.267 130.357" stroke="#B1CBE5" stroke-width="1.0223" stroke-miterlimit="10"/>
<path d="M263.088 75.7982C270.21 75.7982 292.971 75.7982 297.649 75.7982C302.325 75.7982 306.379 76.2657 306.691 74.0833C307.003 71.9009 303.67 71.4327 302.296 69.5622C300.922 67.6916 301.39 61.1437 295.622 61.1437C289.853 61.1437 288.365 65.7806 286.147 64.943C283.929 64.1054 282.682 54.1283 277.069 54.2839C271.457 54.4395 268.128 67.3585 265.165 66.2879C262.203 65.218 256.491 65.6641 255.867 69.4059C255.243 73.1477 244.376 71.2942 244.028 74.2389C243.679 77.1836 254.719 75.7982 263.088 75.7982Z" fill="#D0E4E8"/>
<path d="M253.509 90.001C255.545 90.3697 257.333 90.9523 258.87 91.7501C260.409 92.5486 261.697 93.46 262.736 94.4823C263.773 95.5046 264.564 96.5795 265.104 97.7048C265.644 98.8308 265.957 99.8837 266.039 100.866C266.079 101.357 265.925 101.756 265.572 102.063C265.218 102.37 264.813 102.523 264.355 102.523H259.991C259.285 102.523 258.755 102.391 258.402 102.124C258.049 101.859 257.725 101.501 257.436 101.05C256.813 100.028 255.866 99.137 254.599 98.3797C253.33 97.6231 251.452 97.2437 248.957 97.2437C247.877 97.2437 246.847 97.3567 245.872 97.5819C244.895 97.8071 244.044 98.1346 243.316 98.5637C242.587 98.9935 242.017 99.515 241.602 100.129C241.186 100.742 240.979 101.439 240.979 102.215C240.979 103.157 241.206 103.924 241.664 104.518C242.121 105.111 242.857 105.622 243.877 106.052C244.895 106.482 246.203 106.881 247.804 107.249C249.404 107.617 251.346 108.046 253.634 108.537C256.127 109.07 258.236 109.695 259.961 110.409C261.685 111.126 263.099 111.985 264.199 112.987C265.3 113.991 266.091 115.146 266.569 116.456C267.046 117.766 267.286 119.259 267.286 120.936C267.286 122.532 266.974 124.027 266.352 125.417C265.727 126.808 264.824 128.056 263.641 129.16C262.455 130.265 261.011 131.186 259.308 131.923C257.603 132.66 255.671 133.17 253.509 133.457V137.632C253.509 138.082 253.343 138.47 253.012 138.798C252.679 139.125 252.283 139.289 251.826 139.289H246.778C246.321 139.289 245.926 139.125 245.594 138.798C245.261 138.47 245.094 138.082 245.094 137.632V133.457C243.224 133.17 241.469 132.69 239.826 132.015C238.185 131.34 236.75 130.511 235.526 129.529C234.3 128.547 233.312 127.412 232.564 126.122C231.816 124.833 231.401 123.412 231.318 121.857C231.275 121.365 231.432 120.967 231.785 120.66C232.138 120.353 232.543 120.2 233.002 120.2H237.366C238.071 120.2 238.612 120.322 238.985 120.568C239.36 120.813 239.672 121.181 239.921 121.673C240.21 122.204 240.565 122.737 240.982 123.269C241.397 123.801 241.958 124.271 242.663 124.68C243.371 125.089 244.254 125.428 245.313 125.693C246.374 125.96 247.693 126.092 249.272 126.092C250.52 126.092 251.723 126 252.888 125.816C254.051 125.632 255.071 125.325 255.942 124.895C256.816 124.466 257.522 123.935 258.062 123.3C258.602 122.665 258.872 121.879 258.872 120.937C258.872 120.037 258.58 119.3 258 118.727C257.417 118.154 256.534 117.663 255.351 117.253C254.166 116.845 252.701 116.456 250.956 116.088C249.211 115.719 247.194 115.249 244.909 114.676C242.83 114.185 241.014 113.601 239.456 112.926C237.896 112.251 236.608 111.422 235.59 110.441C234.572 109.458 233.814 108.303 233.314 106.972C232.816 105.643 232.566 104.057 232.566 102.215C232.566 100.62 232.879 99.1463 233.501 97.7957C234.126 96.4459 234.988 95.229 236.089 94.1435C237.19 93.0594 238.509 92.1593 240.048 91.4424C241.585 90.7278 243.269 90.2056 245.097 89.8774V85.7037C245.097 85.254 245.263 84.8654 245.596 84.5379C245.928 84.2104 246.323 84.0463 246.78 84.0463H251.828C252.285 84.0463 252.681 84.2104 253.014 84.5379C253.346 84.8654 253.511 85.254 253.511 85.7037V90.001H253.509Z" fill="#F08F3C"/>
<path d="M211.387 204.942H310.611C310.611 204.942 316.058 204.168 312.979 198.516C309.9 192.865 308.242 192.865 312.032 180.788C315.82 168.711 322.688 146.438 317.241 145.26C311.794 144.082 305.875 161.196 299.007 161.875C292.139 162.554 307.532 103.014 290.718 102.472C273.905 101.931 266.801 142.425 260.881 149.529C254.961 156.633 246.336 144.529 239.953 153.704C233.569 162.879 235.345 192.596 229.088 189.551C218.629 184.461 211.387 204.942 211.387 204.942Z" fill="#2A8E9E" fill-opacity="0.38"/>
<path d="M290.72 102.472C290.72 102.472 279.469 168.711 263.604 204.941L290.72 102.472Z" fill="#88A9AE" fill-opacity="0.74"/>
<path d="M290.72 102.472C290.72 102.472 279.469 168.711 263.604 204.941" stroke="#DCECFD" stroke-width="0.8771" stroke-miterlimit="10"/>
<path d="M317.242 145.26C317.242 145.26 301.374 186.233 282.548 204.942L317.242 145.26Z" fill="#B1CBE5" fill-opacity="0.74"/>
<path d="M317.242 145.26C317.242 145.26 301.374 186.233 282.548 204.942" stroke="#DCECFD" stroke-width="0.8771" stroke-miterlimit="10"/>
<path d="M243.496 150.623C243.496 150.623 253.421 177.885 253.066 204.942L243.496 150.623Z" fill="#B1CBE5" fill-opacity="0.74"/>
<path d="M243.496 150.623C243.496 150.623 253.421 177.885 253.066 204.942" stroke="#DCECFD" stroke-width="0.8771" stroke-miterlimit="10"/>
<path d="M218.101 193.04C218.101 193.04 220.505 199.612 225.122 204.941L218.101 193.04Z" fill="#B1CBE5" fill-opacity="0.74"/>
<path d="M218.101 193.04C218.101 193.04 220.505 199.612 225.122 204.941" stroke="#DCECFD" stroke-width="0.8771" stroke-miterlimit="10"/>
<path d="M238.207 157.182C238.207 157.182 240.789 159.134 247.193 162.798L238.207 157.182Z" fill="#B1CBE5" fill-opacity="0.74"/>
<path d="M238.207 157.182C238.207 157.182 240.789 159.134 247.193 162.798" stroke="#DCECFD" stroke-width="0.8771" stroke-miterlimit="10"/>
<path d="M235.539 168.712C235.539 168.712 242.037 178.835 251.902 186.413L235.539 168.712Z" fill="#B1CBE5" fill-opacity="0.74"/>
<path d="M235.539 168.712C235.539 168.712 242.037 178.835 251.902 186.413" stroke="#DCECFD" stroke-width="0.8771" stroke-miterlimit="10"/>
<path d="M262.929 145.984C262.929 145.984 261.642 174.66 268.809 191.607L262.929 145.984Z" fill="#B1CBE5" fill-opacity="0.74"/>
<path d="M262.929 145.984C262.929 145.984 261.642 174.66 268.809 191.607" stroke="#DCECFD" stroke-width="0.8771" stroke-miterlimit="10"/>
<path d="M273.264 119.634C273.264 119.634 272.248 150.623 277.547 162.798L273.264 119.634Z" fill="#8FB2B7"/>
<path d="M273.264 119.634C273.264 119.634 272.248 150.623 277.547 162.798" stroke="#DCECFD" stroke-width="0.8771" stroke-miterlimit="10"/>
<path d="M297.499 147.512C297.499 147.512 287.065 168.826 273.025 178.715L297.499 147.512Z" fill="#B1CBE5" fill-opacity="0.74"/>
<path d="M297.499 147.512C297.499 147.512 287.065 168.826 273.025 178.715" stroke="#DCECFD" stroke-width="0.8771" stroke-miterlimit="10"/>
<path d="M298.921 123.659C298.921 123.659 290.366 132.127 283.526 138.283L298.921 123.659Z" fill="#B1CBE5" fill-opacity="0.74"/>
<path d="M298.921 123.659C298.921 123.659 290.366 132.127 283.526 138.283" stroke="#DCECFD" stroke-width="0.8771" stroke-miterlimit="10"/>
<path d="M282.548 105.729L286.67 123.659" stroke="#DCECFD" stroke-width="0.8771" stroke-miterlimit="10"/>
<path d="M318.265 158.118C318.265 158.118 312.968 164.39 306.638 168.711L318.265 158.118Z" fill="#B1CBE5" fill-opacity="0.74"/>
<path d="M318.265 158.118C318.265 158.118 312.968 164.39 306.638 168.711" stroke="#DCECFD" stroke-width="0.8771" stroke-miterlimit="10"/>
<path d="M312.032 180.788C312.032 180.788 299.385 192.78 289.013 197.559L312.032 180.788Z" fill="#B1CBE5" fill-opacity="0.74"/>
<path d="M312.032 180.788C312.032 180.788 299.385 192.78 289.013 197.559" stroke="#DCECFD" stroke-width="0.8771" stroke-miterlimit="10"/>
<path d="M320.606 204.942H202.36" stroke="black" stroke-width="0.9556" stroke-miterlimit="10"/>
<path d="M40.479 156.118V147.52L35.0557 147.81C34.7083 146.523 34.2032 145.305 33.5539 144.175L37.5919 140.547L31.5121 134.468L27.884 138.506C26.7544 137.856 25.5361 137.351 24.2495 137.003L24.5393 131.58H15.9404L16.2303 137.003C14.9437 137.35 13.7253 137.856 12.5958 138.506L8.96764 134.468L2.88786 140.547L6.92589 144.175C6.27585 145.304 5.77146 146.523 5.42406 147.81L0 147.52V156.118L5.42406 155.829C5.77146 157.115 6.27656 158.333 6.92589 159.463L2.88786 163.091L8.96764 169.171L12.5958 165.133C13.7253 165.783 14.9437 166.287 16.2303 166.635L15.9404 172.059H24.5386L24.2488 166.635C25.5353 166.287 26.7537 165.782 27.8833 165.133L31.5107 169.171L37.5905 163.091L33.5524 159.463C34.2018 158.333 34.7069 157.115 35.0543 155.829L40.479 156.118ZM20.2399 159.33C16.0917 159.33 12.7293 155.968 12.7293 151.82C12.7293 147.671 16.0924 144.309 20.2399 144.309C24.388 144.309 27.7504 147.671 27.7504 151.82C27.7504 155.967 24.388 159.33 20.2399 159.33Z" fill="#D0E4E8"/>
<path d="M110.114 99.6222V89.8163L103.928 90.1473C103.532 88.6803 102.956 87.29 102.215 86.0027L106.82 81.8652L99.8866 74.9315L95.7491 79.5365C94.4611 78.7955 93.0715 78.2194 91.6045 77.823L91.9356 71.6373H82.1296L82.4607 77.823C80.9937 78.2194 79.6034 78.7948 78.3154 79.5365L74.1779 74.9315L67.2442 81.8652L71.8491 86.0027C71.1082 87.2907 70.532 88.6803 70.1363 90.1473L63.9507 89.8163V99.6222L70.1363 99.2911C70.5327 100.758 71.1082 102.148 71.8491 103.436L67.2442 107.573L74.1779 114.507L78.3154 109.902C79.6034 110.643 80.993 111.219 82.4607 111.615L82.1296 117.8H91.9356L91.6045 111.615C93.0715 111.218 94.4618 110.643 95.7498 109.902L99.8873 114.507L106.821 107.573L102.216 103.436C102.957 102.148 103.533 100.758 103.929 99.2911L110.114 99.6222ZM87.0322 103.285C82.3016 103.285 78.4667 99.4503 78.4667 94.7196C78.4667 89.9889 82.3016 86.1541 87.0322 86.1541C91.7629 86.1541 95.5978 89.9889 95.5978 94.7196C95.5978 99.4496 91.7629 103.285 87.0322 103.285Z" fill="#DCF6FD"/>
<path d="M24.4098 201.195H230.432C230.432 201.195 219.775 185.549 204.146 181.479C188.517 177.409 183.887 184.144 175.013 169.232C166.139 154.32 157.969 145.122 147.313 144.748C136.656 144.374 119.123 155.768 99.3364 143.535C76.1519 129.201 57.3257 141.703 56.2601 160.488C55.1945 179.273 19.7921 173.12 24.4098 201.195Z" fill="#ECFFBF"/>
<path d="M156.607 201.195C156.607 201.195 160.572 189.925 164.285 190.733C167.999 191.541 170.479 197.051 174.79 192.655C179.101 188.26 176.965 172.923 184.72 171.62C192.475 170.316 188.134 188.802 193.205 185.685C199.445 181.85 205.951 161.493 213.831 163.368C221.71 165.242 221.544 201.196 221.544 201.196L156.607 201.195Z" fill="#DCF8FD"/>
<path d="M132.777 201.195L162.852 142.078L180.263 148.37L200.7 102.953L221.161 110.53L247.835 48.4868L258.996 52.5128V18.8857L227.027 42.3296L237.757 45.6451L210.937 85.6652L187.48 74.062L156.695 117.758L131.357 105.151L73.6455 201.195H132.777Z" fill="#E0F4F8"/>
<path d="M26.7261 117.102C28.3747 116.839 29.9708 117.382 31.5464 118.609C33.1296 119.841 34.66 121.741 36.1382 124.114C39.0939 128.857 41.7661 135.36 44.2271 141.804C46.6783 148.223 48.924 154.596 51.0103 158.993C52.0499 161.185 53.0784 162.949 54.1108 163.988C54.6287 164.508 55.189 164.889 55.7944 165.012C56.426 165.141 57.0348 164.975 57.5903 164.546C58.5449 163.809 59.6159 162.678 60.7407 161.445C61.8775 160.198 63.0799 158.835 64.3286 157.58C65.5777 156.326 66.8469 155.208 68.0991 154.453C69.3537 153.697 70.5386 153.336 71.6411 153.507C72.7288 153.676 73.8459 154.38 74.937 155.988C76.0331 157.603 77.0751 160.093 78.0034 163.742C79.842 170.97 81.2009 182.613 81.7446 200.657L6.58547 200.918C6.52492 200.685 6.43913 200.348 6.33156 199.922C6.11106 199.048 5.80253 197.798 5.45266 196.295C4.75262 193.288 3.88602 189.272 3.21828 185.23C2.5494 181.181 2.08501 177.133 2.17727 174.053C2.22356 172.508 2.4089 171.248 2.75344 170.363C3.09719 169.479 3.55213 169.072 4.09328 168.992C5.57421 168.774 6.60009 169.058 7.41457 169.572C8.25398 170.101 8.90343 170.893 9.60012 171.78C10.2785 172.643 11.0063 173.602 11.9683 174.307C12.9546 175.03 14.1755 175.482 15.8306 175.389C16.4354 175.355 16.8824 174.975 17.1997 174.471C17.5133 173.973 17.7446 173.291 17.9224 172.49C18.2792 170.883 18.4542 168.633 18.5366 165.981C18.7012 160.682 18.497 153.58 18.5562 146.497C18.6156 139.381 18.9393 132.246 20.1479 126.755C20.7524 124.009 21.5706 121.711 22.6616 120.039C23.7468 118.377 25.0795 117.365 26.7261 117.102Z" fill="#BBE1E6" fill-opacity="0.74" stroke="#DCECFD"/>
<path d="M26.647 116.608C26.647 116.608 29.6307 165.809 41.9629 201.42L26.647 116.608Z" fill="#6484B5" fill-opacity="0.74"/>
<path d="M26.647 116.608C26.647 116.608 29.6307 165.809 41.9629 201.42" stroke="#DCFCFD" stroke-width="0.9512" stroke-miterlimit="10"/>
<path d="M31.2908 117.807C31.2908 117.807 30.027 127.521 28.0996 132.772L31.2908 117.807Z" fill="#6470B5" fill-opacity="0.74"/>
<path d="M31.2908 117.807C31.2908 117.807 30.027 127.521 28.0996 132.772" stroke="#DCECFD" stroke-width="0.9512" stroke-miterlimit="10"/>
<path d="M18.9077 131.047C18.9077 131.047 20.0238 135.618 30.0329 148.185L18.9077 131.047Z" fill="#6470B5" fill-opacity="0.74"/>
<path d="M18.9077 131.047C18.9077 131.047 20.0238 135.618 30.0329 148.185" stroke="#DCECFD" stroke-width="0.9512" stroke-miterlimit="10"/>
<path d="M43.7306 139.134C43.7306 139.134 41.7144 172.31 36.1909 181.298L43.7306 139.134Z" fill="#6470B5" fill-opacity="0.74"/>
<path d="M43.7306 139.134C43.7306 139.134 41.7144 172.31 36.1909 181.298" stroke="#DCECFD" stroke-width="0.9512" stroke-miterlimit="10"/>
<path d="M4.02002 168.497C4.02002 168.497 8.51343 182.76 24.4702 201.42L4.02002 168.497Z" fill="#6493B5" fill-opacity="0.74"/>
<path d="M4.02002 168.497C4.02002 168.497 8.51343 182.76 24.4702 201.42" stroke="#DCECFD" stroke-width="0.9512" stroke-miterlimit="10"/>
<path d="M18.0562 152.667C18.0562 152.667 24.0038 174.387 39.4071 193.413L18.0562 152.667Z" fill="#648AB5" fill-opacity="0.74"/>
<path d="M18.0562 152.667C18.0562 152.667 24.0038 174.387 39.4071 193.413" stroke="#DCECFD" stroke-width="0.9512" stroke-miterlimit="10"/>
<path d="M11.2393 172.975C11.2393 172.975 12.6395 179.032 13.178 186.329L11.2393 172.975Z" fill="#6470B5" fill-opacity="0.74"/>
<path d="M11.2393 172.975C11.2393 172.975 12.6395 179.032 13.178 186.329" stroke="#DCECFD" stroke-width="0.9512" stroke-miterlimit="10"/>
<path d="M2.7749 185.604C2.7749 185.604 10.0731 190.756 20.4345 196.493L2.7749 185.604Z" fill="#6470B5" fill-opacity="0.74"/>
<path d="M2.7749 185.604C2.7749 185.604 10.0731 190.756 20.4345 196.493" stroke="#DCECFD" stroke-width="0.9512" stroke-miterlimit="10"/>
<path d="M3.96094 201.195H211.387" stroke="#292E4A" stroke-width="1.0223" stroke-miterlimit="10"/>
<path d="M50.1259 227.243C43.9616 227.243 38.9453 222.228 38.9453 216.063V106.048C38.9453 99.8829 43.9609 94.8681 50.1259 94.8681H98.1389C104.303 94.8681 109.32 99.8836 109.32 106.048V216.063C109.32 222.227 104.304 227.243 98.1389 227.243H50.1259Z" fill="#3F7179"/>
<path d="M55.6132 227.243C49.4489 227.243 44.4326 222.228 44.4326 216.063V106.048C44.4326 99.8829 49.4482 94.868 55.6132 94.868H103.626C109.791 94.868 114.807 99.8836 114.807 106.048V216.063C114.807 222.227 109.791 227.243 103.626 227.243H55.6132Z" fill="#32555B"/>
<path d="M103.626 98.2617H92.4631C91.872 98.2617 91.3491 98.6468 91.1744 99.2116L90.6586 100.875C90.3716 101.8 89.5163 102.43 88.5472 102.43H70.6915C69.7232 102.43 68.8672 101.8 68.5802 100.875L68.0644 99.2116C67.8896 98.6468 67.3668 98.2617 66.7757 98.2617H55.6129C51.3127 98.2617 47.8267 101.748 47.8267 106.048V216.063C47.8267 220.363 51.3127 223.849 55.6129 223.849H103.626C107.926 223.849 111.412 220.363 111.412 216.063V106.048C111.412 101.748 107.926 98.2617 103.626 98.2617Z" fill="#DCECFD"/>
<path d="M84.5698 99.7891H74.6701C74.3732 99.7891 74.1323 99.5483 74.1323 99.2513C74.1323 98.9544 74.3732 98.7135 74.6701 98.7135H84.5698C84.8668 98.7135 85.1069 98.9544 85.1069 99.2513C85.1069 99.549 84.8668 99.7891 84.5698 99.7891Z" fill="#292E4A"/>
<path d="M41.3779 117.157V133.562" stroke="white" stroke-width="1.4467" stroke-miterlimit="10" stroke-linecap="round" stroke-linejoin="round"/>
<path d="M41.3779 138.682V146.347" stroke="white" stroke-width="1.4467" stroke-miterlimit="10" stroke-linecap="round" stroke-linejoin="round"/>
<path d="M194.939 222.144L207.908 147.941H303.659L290.69 222.144H194.939Z" fill="#32555B"/>
<path d="M288.064 219.01H198.681L210.534 151.074H299.918L288.064 219.01Z" fill="#D9EEF2"/>
<path d="M291.068 222.144H131.593V227.494H291.068V222.144Z" fill="#32555B"/>
<path d="M204.854 222.144H131.593V227.494H204.854V222.144Z" fill="#437A83"/>
<path d="M291.068 222.144H131.593" stroke="#2A4E53" stroke-width="0.9823" stroke-miterlimit="10"/>
<path d="M266.911 203.281C266.911 203.281 267.917 206.064 267.562 207.425C267.207 208.787 266.141 209.97 266.082 211.984C266.023 213.996 266.217 217.548 266.86 217.667C267.503 217.786 267.063 215.003 267.638 214.766C268.214 214.53 270.167 218.858 270.167 218.858H275.969C275.969 218.858 273.957 206.36 273.66 204.229C273.363 202.097 266.911 203.281 266.911 203.281Z" fill="#F9B989"/>
<path d="M168.34 169.891C168.34 169.891 158.986 169.122 156.618 168.529C154.25 167.938 148.034 169.891 148.034 169.891L158.45 178.468C158.45 178.468 161.058 176.831 163.9 176.351C166.741 175.871 168.695 176.048 168.695 176.048L168.34 169.891Z" fill="#F9B989"/>
<path d="M208.41 116.296C208.294 118.648 207.662 124.51 208.025 127.228C208.388 129.946 209.81 131.846 212.64 131.407C215.471 130.968 217.989 142.926 217.989 142.926L224.073 143.835L228.469 137.163L224.357 129.843C224.357 129.843 227.336 121.763 225.781 117.022C224.226 112.28 212.971 108.557 208.752 110.104C204.532 111.65 208.41 116.296 208.41 116.296Z" fill="#F9B989"/>
<path d="M214.392 136.459L221.385 139.225L222.864 142.421V138.337L228.087 132.831L229.466 135.85L243.408 191.085H222.628L210.462 142.421L214.103 140.024L214.392 136.459Z" fill="#BEDBFA"/>
<path d="M254.817 218.857H212.384L220.319 191.085H252.546L254.817 218.857Z" fill="white"/>
<path d="M214.103 140.024C216.175 145.677 225.5 184.988 226.935 190.316C228.371 195.644 229.2 210.326 229.2 210.326C229.2 210.326 216.886 210.563 214.104 210.326C211.321 210.09 214.992 193.04 214.873 189.132C214.754 185.225 207.295 164.978 207.295 164.978C207.295 164.978 193.323 177.174 191.192 177.41C189.061 177.647 167.038 176.819 167.038 176.819V169.123C167.038 169.123 185.509 168.057 187.521 166.991C189.534 165.926 201.73 151.836 204.69 148.284C207.649 144.73 210.373 140.172 214.103 140.024Z" fill="#2A8E9E"/>
<path d="M202.825 156.275C201.226 156.452 199.539 166.576 197.497 169.506C196.198 171.37 194.328 174.235 193.205 176.351C197.705 173.347 207.295 164.977 207.295 164.977C206.377 162.846 204.423 156.097 202.825 156.275Z" fill="#1E6D79"/>
<g filter="url(#filter0_d_1_227)">
<path d="M266.432 204.971H274.488L271.318 187.187C270.294 180.626 268.187 174.284 265.077 168.416C259.803 158.468 251.577 143.599 248.202 141C245.977 139.286 235.947 135.494 229.465 135.849C229.465 135.849 236.835 181.139 237.901 188.243C238.967 195.347 243.407 209.378 243.407 209.378H258.299L254.816 188.993L250.866 169.949L259.278 181.255L266.432 204.971Z" fill="#2A8E9E"/>
</g>
<path d="M250.867 169.95C250.867 169.95 245.805 162.935 244.651 159.028C243.496 155.12 242.875 149.703 243.408 148.194C243.94 146.684 242.164 146.062 241.365 152.545C240.566 159.028 240.566 164.8 244.473 171.193C248.381 177.587 245.628 181.317 248.736 187C251.844 192.684 255.83 194.921 255.83 194.921L250.867 169.95Z" fill="#2B7884"/>
<path d="M203.312 109.416C205.343 104.995 210.205 107.635 215.576 108.271C220.948 108.906 225.956 109.59 227.697 113.415C229.437 117.24 227.28 125.028 224.357 129.843C224.357 129.843 221.997 126.9 221.973 124.876C221.949 122.85 224.356 121.545 223.358 119.589C222.359 117.632 220.926 118.868 220.608 119.71C220.289 120.552 220.1 121.437 219.734 120.994C219.367 120.552 220.048 118.74 219.846 117.23C219.644 115.72 218.915 113.482 215.542 113.993C212.168 114.505 208.624 113.749 208.624 113.749L208.411 116.298C208.41 116.296 201.026 114.393 203.312 109.416Z" fill="black"/>
<path d="M52.6467 34.3957C63.7442 34.3957 119.883 34.3957 132.504 34.3957C145.124 34.3957 150.347 32.8086 143.818 28.2747C137.29 23.7408 135.333 23.5142 133.156 18.9802C130.98 14.4463 125.976 11.4988 119.013 12.406C112.05 13.3125 107.347 15.8068 101.974 10.3657C96.6011 4.92458 91.5962 -3.46335 78.5408 1.52451C64.9327 6.72337 64.2763 19.2069 53.3003 21.7012C42.3229 24.194 30.2343 34.3957 52.6467 34.3957Z" fill="#E0F4F8"/>
<path d="M118.709 137.603C118.709 137.603 123.479 136.769 125.329 131.259C127.179 125.749 132.215 119.995 141.052 120.817C149.89 121.639 154.36 128.082 153.153 137.603C151.946 147.125 143.788 148.553 137.745 148.456C131.7 148.358 127.55 142.09 124.95 140.034C122.349 137.978 118.709 137.603 118.709 137.603Z" fill="#2B8998"/>
<path d="M146.498 136.047V133.151L144.671 133.249C144.554 132.815 144.384 132.405 144.165 132.024L145.526 130.803L143.478 128.754L142.256 130.115C141.876 129.896 141.465 129.726 141.032 129.609L141.13 127.782H138.233L138.331 129.609C137.898 129.726 137.487 129.896 137.107 130.115L135.885 128.754L133.837 130.803L135.198 132.024C134.979 132.405 134.808 132.815 134.692 133.249L132.865 133.151V136.047L134.692 135.949C134.809 136.382 134.979 136.793 135.198 137.173L133.837 138.395L135.885 140.443L137.107 139.083C137.487 139.301 137.898 139.471 138.331 139.588L138.233 141.416H141.13L141.032 139.588C141.465 139.471 141.876 139.301 142.256 139.083L143.478 140.443L145.526 138.395L144.165 137.173C144.384 136.793 144.555 136.382 144.671 135.949L146.498 136.047ZM139.681 137.129C138.284 137.129 137.151 135.996 137.151 134.599C137.151 133.202 138.284 132.069 139.681 132.069C141.079 132.069 142.211 133.202 142.211 134.599C142.211 135.996 141.079 137.129 139.681 137.129Z" fill="white"/>
<path d="M187.322 36.2172H165.706V64.8975H187.322V36.2172Z" fill="#E0F4F8"/>
<path d="M168.155 41.2632H172.393" stroke="#FFA200" stroke-width="0.7146" stroke-miterlimit="10"/>
<path d="M168.155 45.4946H184.072" stroke="#FFA200" stroke-width="0.7146" stroke-miterlimit="10"/>
<path d="M168.155 49.7258H184.072" stroke="#FFA200" stroke-width="0.7146" stroke-miterlimit="10"/>
<path d="M168.155 53.9571H184.072" stroke="#FFA200" stroke-width="0.7146" stroke-miterlimit="10"/>
<path d="M168.155 58.1884H184.072" stroke="#FFA200" stroke-width="0.7146" stroke-miterlimit="10"/>
<path d="M162.342 95.2126C165.244 92.4718 194.648 94.0731 196.687 95.7902C198.725 97.5065 197.347 109.297 197.405 113.703C197.438 116.283 199.832 121.433 202.873 121.755C199.369 123.578 193.79 122.291 191 120.682C188.21 119.073 187.315 119.405 182.023 119.405C176.73 119.405 168.302 119.405 164.821 119.405C161.34 119.405 160.315 115.961 160.315 110.704C160.316 105.446 160.411 97.037 162.342 95.2126Z" fill="#BEE8FA"/>
<path d="M181.377 100.227C182.015 100.342 182.574 100.524 183.055 100.774C183.537 101.024 183.94 101.309 184.265 101.629C184.59 101.949 184.837 102.286 185.006 102.637C185.175 102.99 185.273 103.319 185.299 103.627C185.312 103.78 185.263 103.905 185.153 104.001C185.042 104.097 184.915 104.145 184.772 104.145H183.406C183.185 104.145 183.019 104.104 182.909 104.02C182.799 103.937 182.697 103.825 182.606 103.684C182.412 103.365 182.116 103.085 181.718 102.849C181.321 102.612 180.734 102.494 179.952 102.494C179.614 102.494 179.292 102.529 178.987 102.6C178.681 102.67 178.415 102.772 178.187 102.906C177.959 103.041 177.78 103.204 177.651 103.397C177.52 103.588 177.456 103.807 177.456 104.05C177.456 104.344 177.527 104.584 177.67 104.77C177.813 104.955 178.044 105.115 178.363 105.25C178.682 105.384 179.091 105.509 179.592 105.625C180.093 105.74 180.701 105.874 181.416 106.027C182.196 106.194 182.857 106.39 183.396 106.613C183.936 106.838 184.378 107.106 184.723 107.42C185.067 107.734 185.315 108.096 185.464 108.506C185.614 108.916 185.689 109.383 185.689 109.908C185.689 110.408 185.591 110.875 185.396 111.311C185.201 111.746 184.918 112.137 184.547 112.482C184.176 112.828 183.724 113.117 183.191 113.347C182.658 113.578 182.053 113.737 181.376 113.827V115.133C181.376 115.274 181.324 115.396 181.22 115.499C181.116 115.601 180.992 115.652 180.85 115.652H179.27C179.127 115.652 179.002 115.601 178.899 115.499C178.794 115.396 178.742 115.275 178.742 115.133V113.827C178.157 113.738 177.608 113.587 177.094 113.376C176.58 113.165 176.131 112.905 175.748 112.598C175.364 112.291 175.055 111.935 174.821 111.532C174.586 111.128 174.457 110.683 174.431 110.197C174.417 110.043 174.466 109.918 174.577 109.822C174.688 109.726 174.815 109.678 174.958 109.678H176.323C176.544 109.678 176.713 109.717 176.831 109.793C176.948 109.87 177.045 109.985 177.123 110.139C177.214 110.305 177.325 110.472 177.455 110.639C177.585 110.805 177.761 110.953 177.982 111.081C178.203 111.208 178.48 111.314 178.811 111.397C179.142 111.481 179.555 111.522 180.05 111.522C180.44 111.522 180.817 111.494 181.181 111.436C181.545 111.378 181.865 111.282 182.138 111.147C182.411 111.013 182.632 110.847 182.801 110.648C182.97 110.45 183.055 110.203 183.055 109.908C183.055 109.627 182.964 109.396 182.782 109.216C182.599 109.037 182.323 108.884 181.953 108.755C181.582 108.627 181.124 108.506 180.577 108.39C180.031 108.275 179.4 108.128 178.685 107.948C178.034 107.795 177.466 107.612 176.978 107.401C176.49 107.19 176.087 106.93 175.769 106.623C175.45 106.315 175.213 105.953 175.057 105.537C174.901 105.122 174.822 104.625 174.822 104.048C174.822 103.549 174.92 103.088 175.115 102.665C175.31 102.242 175.58 101.861 175.925 101.522C176.269 101.182 176.682 100.901 177.164 100.676C177.645 100.453 178.172 100.289 178.744 100.186V98.8798C178.744 98.7391 178.796 98.6176 178.9 98.5146C179.004 98.4123 179.127 98.3605 179.271 98.3605H180.851C180.994 98.3605 181.117 98.4116 181.222 98.5146C181.326 98.6169 181.377 98.7384 181.377 98.8798V100.227Z" fill="#FFD817"/>
<path d="M98.3933 195.703L100.043 223.824H54.6812C54.6812 223.824 55.8569 217.551 55.8569 212.487C55.8569 202.363 61.8955 195.703 61.8955 195.703H98.3933Z" fill="white"/>
<path d="M84.8179 223.824H100.043L98.3933 195.703H92.5892L84.8179 223.824Z" fill="#D1D1D1"/>
<path d="M112.394 111.4C112.394 111.4 111.92 117.793 112.749 118.918C113.579 120.043 113.266 120.753 112.504 121.108C111.743 121.463 111.743 127.383 109.967 127.798C108.191 128.212 106.652 126.868 106 128.754C105.349 130.64 104.521 135.199 104.521 135.199L93.3315 134.429L96.4695 126.141C96.4695 126.141 94.3382 119.984 95.7591 114.655C97.1799 109.327 112.039 106.071 112.394 111.4Z" fill="#F59462"/>
<path d="M90.6672 131.943L109.396 134.582C109.827 134.643 110.109 135.064 110.001 135.486L108.902 139.757C108.902 139.757 109.849 146.388 109.493 151.361C109.138 156.334 105.112 173.62 104.047 178.948C102.981 184.277 102.152 197.419 99.4288 197.538C96.7058 197.657 65.092 197.538 59.6453 197.538C54.1985 197.538 62.3683 191.973 65.092 187.118C67.8151 182.264 71.1306 165.924 75.5118 156.57C79.8929 147.216 89.6015 136.737 89.8388 134.695C90.0761 132.652 89.6221 131.796 90.6672 131.943Z" fill="#2A8E9E"/>
<path d="M89.0612 150.953C87.0826 148.461 85.9723 149.082 87.0322 153.255C88.0922 157.429 89.4242 161.159 93.3315 163.645C96.8587 165.889 97.7098 179.203 103.46 182.622C103.657 181.215 103.848 179.946 104.047 178.949C104.918 174.593 107.767 162.246 108.972 155.167C108.968 155.167 90.7257 153.049 89.0612 150.953Z" fill="#1E6D79"/>
<path d="M112.868 156.275C112.868 156.275 119.617 165.411 121.808 166.053C123.998 166.694 145.903 168.47 147.797 168.47C149.692 168.47 154.013 171.135 155.73 171.964C157.447 172.793 161.946 176.581 159.637 177.943C157.329 179.305 153.303 179.186 150.994 177.943C148.685 176.7 146.79 175.043 144.719 175.043C142.647 175.043 122.336 175.558 117.9 174.213C111.744 172.349 102.188 161.959 100.631 160.597L112.868 156.275Z" fill="#F59462"/>
<path d="M145.858 176.61C146.036 175.263 145.769 173.902 147.723 174.612C149.677 175.322 151.675 176.966 153.229 177.41C154.782 177.854 153.184 179.674 151.941 179.674C150.698 179.674 145.679 177.969 145.858 176.61Z" fill="#F9B989"/>
<path d="M145.636 169.551C145.636 169.551 153.672 168.085 155.716 168.418C157.758 168.751 156.433 169.591 154.117 170.305C148.788 171.949 143.475 170.631 145.636 169.551Z" fill="#F9B989"/>
<path d="M100.85 118.09C100.85 118.09 98.7185 115.958 98.1267 118.09C97.5349 120.221 99.9028 121.997 99.4886 123.181C99.0744 124.365 97.2984 128.983 95.9954 128.746C94.6932 128.509 96.3507 125.904 94.8112 123.536C93.2717 121.169 91.2591 118.327 92.5613 112.999C93.8635 107.671 98.0081 109.091 99.4289 107.079C100.85 105.066 102.034 103.053 107.599 103.645C113.163 104.237 115.65 100.949 118.018 103.54C120.386 106.132 120.031 110.868 114.111 112.17C108.191 113.473 107.007 111.696 105.764 113.117C104.52 114.537 102.389 117.971 100.85 118.09Z" fill="#995417"/>
<path d="M87.7662 149.467L99.3695 162.787L114.229 157.045C114.229 157.045 107.244 146.507 104.875 143.665C102.507 140.824 98.3629 137.923 94.8108 138.515C91.2594 139.106 84.8656 145.618 87.7662 149.467Z" fill="#2B8998"/>
<path d="M102.496 141.324C102.496 141.324 105.708 143.627 109.554 150.128" stroke="#495285" stroke-miterlimit="10"/>
<path d="M30.7705 227.243H114.955" stroke="#292E4A" stroke-width="1.0223" stroke-miterlimit="10"/>
<path d="M128.991 227.243H304.504" stroke="#292E4A" stroke-width="1.0223" stroke-miterlimit="10"/>
</g>
<defs>
<filter id="filter0_d_1_227" x="225.465" y="135.826" width="53.0231" height="81.5523" filterUnits="userSpaceOnUse" color-interpolation-filters="sRGB">
<feFlood flood-opacity="0" result="BackgroundImageFix"/>
<feColorMatrix in="SourceAlpha" type="matrix" values="0 0 0 0 0 0 0 0 0 0 0 0 0 0 0 0 0 0 127 0" result="hardAlpha"/>
<feOffset dy="4"/>
<feGaussianBlur stdDeviation="2"/>
<feComposite in2="hardAlpha" operator="out"/>
<feColorMatrix type="matrix" values="0 0 0 0 0 0 0 0 0 0 0 0 0 0 0 0 0 0 0.25 0"/>
<feBlend mode="normal" in2="BackgroundImageFix" result="effect1_dropShadow_1_227"/>
<feBlend mode="normal" in="SourceGraphic" in2="effect1_dropShadow_1_227" result="shape"/>
</filter>
<clipPath id="clip0_1_227">
<rect width="321" height="228" fill="white"/>
</clipPath>
</defs>
</svg>
