<svg xmlns="http://www.w3.org/2000/svg" xmlns:xlink="http://www.w3.org/1999/xlink" version="1.1" id="Layer_1" x="0px" y="0px" width="60px" height="40px" viewBox="30 0 60 40" style="enable-background:new 30 0 60 40;" xml:space="preserve">
<g id="USA-Today">
	<g id="USA_Today_2_">
		<path style="fill:#FFFFFF;" d="M33.157,14.824V7.701h3.202v6.197c0,1.228,0.128,2.423,1.736,2.423    c1.609,0,1.739-1.194,1.739-2.423V7.701h3.202v7.122c0,2.756-1.769,4.286-4.94,4.286C34.83,19.109,33.157,17.579,33.157,14.824"/>
		<path style="fill:#FFFFFF;" d="M43.896,17.483l1.546-2.135c0.575,0.685,1.529,1.305,2.629,1.305c0.829,0,1.322-0.349,1.322-1.003    c0-0.78-0.716-1.003-1.928-1.369c-1.625-0.494-3.059-1.338-3.059-3.268c0-2.118,1.736-3.538,4.191-3.538    c1.706,0,2.995,0.526,3.807,1.292l-1.45,2.135c-0.462-0.526-1.242-0.972-2.197-0.972c-0.83,0-1.18,0.334-1.18,0.78    c0,0.702,0.844,0.892,1.769,1.18c1.814,0.573,3.217,1.402,3.217,3.458c0,2.15-1.545,3.761-4.334,3.761    C46.176,19.109,44.581,18.233,43.896,17.483"/>
		<path style="fill:#FFFFFF;" d="M56.866,7.701h3.521l4.161,11.186h-3.33l-0.525-1.609H56.47l-0.511,1.609H52.71L56.866,7.701     M59.879,14.728l-0.861-2.694c-0.175-0.525-0.317-1.194-0.381-1.673H58.54c-0.063,0.479-0.207,1.147-0.382,1.673l-0.862,2.694    H59.879z"/>
		<polyline style="fill:#FFFFFF;" points="35.961,23.713 33.205,23.713 33.205,21.114 41.919,21.114 41.919,23.713 39.162,23.713     39.162,32.301 35.961,32.301 35.961,23.713   "/>
		<path style="fill:#FFFFFF;" d="M42.145,26.726c0-2.758,1.975-5.833,6.134-5.833c4.175,0,6.151,3.075,6.151,5.833    c0,2.739-1.976,5.798-6.151,5.798C44.119,32.523,42.145,29.465,42.145,26.726 M51.13,26.726c0-2.009-1.306-3.045-2.868-3.045    c-1.532,0-2.837,1.036-2.837,3.045c0,1.99,1.305,3.011,2.837,3.011C49.823,29.736,51.13,28.715,51.13,26.726z"/>
		<path style="fill:#FFFFFF;" d="M55.578,21.116h4.126c3.951,0,6.214,2.103,6.214,5.591c0,3.427-2.326,5.594-6.214,5.594h-4.126    V21.116 M58.781,29.719h0.685c2.056,0,3.153-0.988,3.153-3.012c0-2.021-1.098-3.008-3.153-3.008h-0.685V29.719z"/>
		<path style="fill:#FFFFFF;" d="M69.632,21.114h3.521l4.158,11.187h-3.33l-0.523-1.609h-4.224l-0.512,1.609h-3.248L69.632,21.114     M72.644,28.143l-0.861-2.693c-0.175-0.525-0.319-1.196-0.382-1.674h-0.096c-0.062,0.478-0.208,1.147-0.382,1.674l-0.862,2.693    H72.644z"/>
		<path style="fill:#FFFFFF;" d="M79.289,28.317l-4.177-7.2h3.508l1.515,2.756c0.318,0.59,0.765,1.481,0.859,2.07h0.063    c0.095-0.589,0.542-1.48,0.862-2.07l1.512-2.756h3.412l-4.175,7.2v3.983h-3.38V28.317"/>
	</g>
</g>
<g id="Layer_1_1_">
</g>
</svg>